<?xml version="1.0" encoding="utf-8"?>
<!-- Generator: Adobe Illustrator 27.5.0, SVG Export Plug-In . SVG Version: 6.00 Build 0)  -->
<svg version="1.1" xmlns="http://www.w3.org/2000/svg" xmlns:xlink="http://www.w3.org/1999/xlink" x="0px" y="0px"
	 viewBox="0 0 500 500" style="enable-background:new 0 0 500 500;" xml:space="preserve">
<g id="Background">
	<rect style="fill:#F0F0EC;" width="500" height="500"/>
	<circle style="fill:#D8CABC;" cx="250" cy="250" r="117.184"/>
</g>
<g id="Logo">
	<g id="Logo_1_">
		<g id="Fill">
			<g>
				<g>
					<path style="fill:#EFEFE4;" d="M256.804,246.268c-0.029,0.035-0.042,0.081-0.051,0.125c-0.085,0.397-0.06,1.08,0.118,1.454
						c0.241,0.507,0.709,0.971,1.277,1.077c0.224,0.042,0.661,0.054,0.809-0.144c0.012-0.016,0.021-0.033,0.029-0.051
						c0.165-0.39-0.393-1.162-0.61-1.45C258.212,247.062,257.125,245.889,256.804,246.268z"/>
					<path style="fill:#EFEFE4;" d="M260.595,243.844c-0.118,0.005-0.241,0.011-0.344,0.068c-0.336,0.184-0.31,0.775-0.251,1.097
						c0.068,0.373,0.296,0.684,0.575,0.929c0.675,0.593,1.543,0.762,2.409,0.829c0.153,0.012,0.321-0.005,0.44-0.1
						c0.008-0.006,0.016-0.013,0.023-0.02c0.072-0.067,0.113-0.16,0.149-0.251c0.301-0.758,0.597-2.066-0.347-2.476
						C262.522,243.555,261.372,243.811,260.595,243.844z"/>
					<path style="fill:#EFEFE4;" d="M266.231,228.156c0.54-0.269,1.032-0.67,1.311-1.206c0.475-0.912,0.139-1.76-0.785-2.147
						c-2.125-0.89-4.769-0.978-7.039-0.906c-1.388,0.044-3.188,0.045-4.288,1.029c-0.75,0.671-1.062,1.79-0.768,2.752
						c0.157,0.513,0.41,0.89,0.73,1.164c1.146,0.985,2.987,0.732,4.38,0.63c1.598-0.118,3.18-0.398,4.74-0.761
						C265.1,228.575,265.691,228.426,266.231,228.156z"/>
					<path style="fill:#EFEFE4;" d="M283.837,250.655c-1.529-0.029-3.891,0.587-4.111,2.403c-0.088,0.725,0.376,1.045,0.997,1.279
						c0.728,0.274,1.536,0.256,2.286,0.091c0.414-0.091,0.939-0.22,1.358-0.452c0.188-0.104,0.354-0.229,0.48-0.381
						c0.373-0.449,0.463-1.233,0.361-1.794C285.08,251.102,284.551,250.669,283.837,250.655z"/>
					<path style="fill:#EFEFE4;" d="M291.973,214.571c-2.424-4.865-4.833-9.833-6.746-14.96c0.846,4.877,2.007,10.061,3.468,14.823
						c2.183,6.151,9.416,13.279,8.556,22.932c-0.001,0.014-0.003,0.026-0.004,0.04c-0.023,0.408-0.055,0.816-0.1,1.222
						c0,2.122-0.993,4.416-1.7,6.379c-1.069,2.967-2.356,5.856-3.847,8.635c-0.127,0.236-0.256,0.472-0.386,0.708
						c-2.036,3.818-7.026,6.422-11.509,7.863c-0.101,0.025-0.208,0.059-0.317,0.096c-1.513,0.47-2.953,0.807-4.194,1.01
						c-2.821,0.287-4.885-0.241-4.885-0.241l-2.552,8.776c0,0,1.689,5.309,5.104,9.251l0.004-0.006
						c1.645,2.065,4.171,3.477,6.607,4.841c0.015,0.008,0.029,0.014,0.044,0.023c1.474,0.955,3.197,1.525,4.954,1.719
						c5.319,0.799,9.316-3.752,12.434-7.401c6.815-8.232,7.654-19.574,6.569-29.784
						C301.835,237.951,297.854,225.762,291.973,214.571z M284.025,277.823c-1.718,1.836-4.86-0.079-4.82-2.327
						c0.022-1.254,1.72-2.682,2.87-2.76c1.63-0.111,3.184,1.17,3.172,2.854C285.241,276.503,284.763,277.31,284.025,277.823z
						 M294.763,275.153c-0.742,0.531-1.676,0.619-2.525,0.322c-2.495-0.311-2.792-3.979-0.95-5.268
						c1.027-0.719,3.18-0.184,3.92,0.701C296.255,272.163,296.133,274.173,294.763,275.153z M295.898,263.762
						c-1.718,1.836-4.86-0.079-4.82-2.327c0.022-1.254,1.72-2.682,2.871-2.76c1.63-0.111,3.184,1.17,3.172,2.854
						C297.114,262.442,296.636,263.249,295.898,263.762z"/>
					<path style="fill:#EFEFE4;" d="M264.755,277.436c0,0-3.389,0.31-8.779,2.137c-1.987,0.759-4.737,1.682-9.764,2.971
						c-7.782,1.995-11.065,1.697-13.733,1.127c0.39,0.477,0.803,0.874,1.409,1.265c1.209,0.778,2.376,1.542,3.621,2.272
						c0.627,0.368,1.254,0.735,1.891,1.086c1.288,0.709,2.615,1.347,3.973,1.911c4.551,1.89,9.443,2.951,14.363,3.188
						c2.47,0.119,4.951,0.028,7.405-0.281c1.221-0.154,2.435-0.362,3.636-0.626c1.162-0.255,2.298-0.648,3.461-0.874
						c0.074-0.014,0.147-0.031,0.22-0.048c0.443-0.108,0.871-0.275,1.295-0.441c1.258-0.492,2.515-0.984,3.773-1.476
						c-0.015,0.006-0.085-0.028-0.174-0.077C268.52,285.717,264.755,277.436,264.755,277.436z"/>
					<path style="fill:#EFEFE4;" d="M248.077,158.93c-0.291-1.205-0.556-2.413-0.751-3.634c-0.131,0.139-0.256,0.291-0.385,0.435
						c-1.414-3.399-3.526-6.704-6.315-7.589c-0.388-0.244-0.79-0.451-1.238-0.603c-4.013-1.528-8.453-1.923-12.664-1.069
						c-6.097,0.899-11.595,3.722-17.275,5.974c-0.287,0.107-1.445,0.538-3.007,1.115c-0.178,0.061-0.355,0.125-0.534,0.184
						c-0.05,0.026-0.109,0.048-0.161,0.073c-2.114,0.779-4.756,1.747-6.963,2.535c-1.047,0.306-2.025,0.646-2.926,1.021
						c-0.011,0.004-0.023,0.008-0.034,0.011l0.003,0.001c-4.426,1.851-7.075,4.523-7.838,7.844
						c-1.005,4.374-3.305,10.913,0.144,11.065c3.449,0.152,11.653-4.443,13.272-5.118c0.541-0.226,1.011-0.967,1.551-1.98
						c0.033-0.031,0.07-0.057,0.103-0.089c-0.024,0.01-0.048,0.02-0.072,0.03c1.071-2.019,2.428-5.098,5.177-7.478
						c0.69-0.597,1.448-1.095,2.243-1.534c-1.729,1.533-2.432,3.243-4.358,7.196c-0.135,0.269-0.267,0.538-0.394,0.805l0.164-0.196
						c0.383-0.353,1.254-0.758,1.564-0.99c0.623-0.465,1.229-0.953,1.832-1.443c3.341-2.715,6.664-4.999,11.021-5.675
						c1.34-0.208,2.697-0.284,4.052-0.284c0.7,0,1.401,0.021,2.1,0.056c0.524,0.026,1.388-0.079,1.87,0.124
						c-2.519-2.151-5.973-2.954-9.176-2.854c2.795-0.796,5.685-1.252,8.601-1.109c3.383,0.166,6.466,1.957,8.652,4.485
						c2.542,2.94,3.473,6.616,3.688,10.444c0.071,1.276,0.045,2.558-0.079,3.83c-0.113,1.15-0.578,2.415-0.561,3.542
						c0.781-0.245,1.443-1.16,1.886-1.82c0.25-0.373,1.279-1.765,1.169-2.209c0.35,1.405,0.22,2.924-0.361,4.25
						c1-0.611,1.8-1.543,2.253-2.623c0.347,0.968,0.481,2.012,0.388,3.036c0.502-1.66,1.101-3.29,1.791-4.881
						c0.331-0.762,0.633-1.667,1.104-2.353c0.174-0.254,0.406-0.464,0.607-0.702c0.154-0.183,0.763-0.671,0.795-0.888
						c-0.602,4.1-1.084,8.334-3.063,12.047c1.535-0.839,2.485-2.414,2.826-4.092c1.306-5.184,2.731-10.598,2.216-15.917
						c-0.133-5.732-1.784-12.095-4.953-14.886c-0.006-0.006-0.012-0.011-0.018-0.016c-0.055-0.048-0.107-0.103-0.162-0.149
						c-0.135-0.111-0.256-0.199-0.381-0.292c-0.06-0.043-0.114-0.095-0.177-0.135c-0.817-0.581-1.406-0.775-1.837-0.767
						c-0.844-0.21-1.74-0.287-2.603-0.256c0.208,0.77,0.812,1.136,1.468,1.451c1.349,0.807,2.695,2.282,3.856,4.094l-0.432,0.139
						c0.149,0.03,0.366,0.071,0.589,0.114c1.893,3.049,3.257,6.984,3.257,10.34c0,2.245-0.212,3.971-0.461,5.237
						c-0.018-0.746-0.062-2.078-0.084-2.766C249.098,163.222,248.769,161.242,248.077,158.93z M244.452,169.725
						c0.001-0.057,0.003-0.112,0.003-0.169c0.036-0.006,0.076-0.021,0.113-0.03C244.529,169.591,244.491,169.659,244.452,169.725z"
						/>
					<path style="fill:#EFEFE4;" d="M222.536,174.996c3.799-2.01,0.594-9.506-3.633-7.48
						C214.803,169.661,218.578,176.365,222.536,174.996z"/>
					<path style="fill:#EFEFE4;" d="M281.003,223.166c-6.775-3.031-14.769-4.891-21.964-2.295
						c11.619,0.989,24.18,3.657,32.633,12.308C290.303,228.089,285.412,225.303,281.003,223.166z"/>
					<path style="fill:#EFEFE4;" d="M291.546,194.973c1.322,4.709,6.498,7.614,11.16,7.994c3.91-0.459,8.145-2.05,10.115-5.699
						c2.161-4.005,3.918-8.509,2.936-13.123c0.095,3.49-0.894,6.838-2.145,10.06c-2.62,6.372-11.231,8.706-17.096,5.58
						C294.388,198.733,293.137,196.635,291.546,194.973z"/>
					<path style="fill:#EFEFE4;" d="M208.748,173.183c0.491,4.646,2.28,9.561,6.292,12.284c4.078,2.767,9.796,4.829,14.544,2.497
						c3.135-1.54,5.22-4.642,6.914-7.578c2.319-4.021,1.543-9.078-0.792-12.909c1.844,6.981-0.839,15.529-7.757,18.6
						c-4.625,2.525-9.583,0.265-13.265-2.683C211.51,180.853,209.745,177.03,208.748,173.183z"/>
					<path style="fill:#EFEFE4;" d="M201.31,221.487c7.365-6.339,16.756-9.754,24.288-15.955c-1.157-0.032-2.342-0.035-3.502-0.166
						c-5.155-1.688-9.137-4.834-12.118-8.14c0.222,0.133,0.442,0.271,0.668,0.396c3.359,1.853,7.251,3.165,11.08,3.708
						c1.954,0.175,3.924,0.189,5.882,0.069c3.164-0.195,6.307-1.171,8.923-2.944c0.526-0.422,3.328-2.792,3.179-5.243
						c-0.154-2.538-0.485-7.015-3.182-7.793c-0.866,1.033-1.869,1.949-2.989,2.7c-2.401,1.609-5.242,2.401-8.114,2.524
						c-7.302,0.313-15.47-2.929-19.69-9.064c-0.847-1.231-1.56-2.583-2.236-3.914c-0.091-0.179-0.955-2.351-1.108-2.353
						c-5.685-0.063-11.836,2.491-15.161,7.162c-6.978,9.805-7.328,23.362-5.822,34.865c0.416,3.174,0.79,6.837,1.975,9.831
						c0.955,2.413,2.742,4.786,4.323,6.86c0.245,0.322,3.052,3.175,2.966,3.482c0.752-2.697,1.632-4.989,2.916-7.169
						c0.778-1.322,1.705-2.602,2.842-3.906C197.954,224.689,199.552,223,201.31,221.487z"/>
					<path style="fill:#EFEFE4;" d="M252.452,275.463c1.912-0.611,3.807-1.276,5.686-1.982c1.779-0.668,3.639-1.44,4.777-2.962
						c0.832-1.113,1.161-2.491,1.291-3.852c0.028-0.291,0.405-4.058,0.444-4.037c-14.099-7.474-16.548-12.824-18.788-22.279
						c-0.833-3.515-1.08-6.709-0.832-9.527l0.054-0.186c-0.012,0.002-0.024,0.004-0.036,0.006c0.262-2.726,0.996-5.09,2.12-7.042
						c0.875-1.348,1.913-2.582,3.1-3.645c0.034-0.029,0.065-0.058,0.096-0.087c1.831-1.612,4.002-2.826,6.441-3.449
						c9.181-2.24,18.885-0.166,27.402,3.53c0.102,0.054,0.205,0.11,0.307,0.164c2.83-0.048,2.408-2.512,1.03-6.924
						c-1.281-4.102-3.599-17.159-3.97-28.401c-0.337-3.619-0.099-7.235,0.476-10.809c0.01-0.062,0.018-0.129,0.029-0.191
						c0.015-0.089,0.029-0.165,0.044-0.251c0.035-0.209,0.071-0.418,0.109-0.627c0.163-0.919,0.309-1.657,0.441-2.24
						c0.007-0.031,0.014-0.062,0.021-0.093c0.009-0.038,0.018-0.081,0.026-0.117c0.449-2.057,0.986-4.094,1.566-6.105
						c1.415-4.901,2.416-9.963,2.759-15.057c0.337-5.009,0.211-10.275-1.124-15.137c0.143,0.519,0.79,1.133,1.036,1.653
						c0.278,0.589,0.438,1.196,0.603,1.827c0.38,1.457,0.696,2.931,0.952,4.415c0.502,2.916,0.771,5.871,0.821,8.829
						c0.031,1.837-0.006,3.678-0.199,5.507c-0.058,0.546-0.555,5.189-1.072,5.234c0.182-0.016,0.562-0.04,0.744-0.055
						c1.607-2.739,3.617-5.588,6.728-6.696c9.766-3.029,17.785,5.888,25.945,9.465c0.615,0.269,1.337,0.513,1.943,0.287
						c-0.13-0.698-0.313-1.438-0.573-2.182c-0.13-0.373-0.272-0.713-0.418-1.038c-5.414-5.643-9.155-7.857-9.155-7.857
						s4.028,1.282,7.326,3.393c-0.32-1.363-0.509-3.138-0.434-5.733c0.209-7.196-6.261-13.794-21.811-18.512
						c-3.24-0.989-6.429-2.222-9.536-3.531c-10.551-4.005-21.537-7.313-32.863-7.915c-3.198-0.214-6.435-0.831-9.625-0.261
						c2.636,1.179,5.287,2.422,7.519,4.29c5.232,4.559,8.247,11.152,10.123,17.714c-0.15,1.013-0.301,2.034-0.459,3.055
						c-1.702-5.572-3.324-11.556-7.583-15.79c-1.995-1.813-4.013-3.712-6.467-4.884c1.417,1.828,3.388,3.126,4.789,4.971
						c2.659,3.989,4.876,8.414,5.477,13.234c-0.958-2.303-1.686-4.717-3.079-6.807c-1.733-2.984-4.361-5.303-6.126-8.263
						c-0.95-1.678-2.651-2.675-4.329-3.498c-5.984-2.818-12.292-5.002-18.79-6.269c-4.968-1.153-7.636-6.122-9.87-6.166
						c-2.234-0.044-5.113,11.667-5.113,11.667s1.318,0.805,1.841,2.232c-0.078-0.04-0.151-0.083-0.234-0.119
						c0.122,0.325,0.269,0.637,0.43,0.941c0.088,0.867-0.149,1.898-1.025,3.072c-1.282,1.716-4.653,6.65-7.967,11.548
						c-0.289-0.194-0.725-0.101-1.315,0.301c0.062,0.501,0.23,0.8,0.502,0.902c-3.729,5.521-7.159,10.654-7.159,10.654
						c4.694-0.871,9.142-2.818,13.305-5.089c0,0,1.93-1.098,7.464-3.704c4.709-0.697,9.181-2.62,13.962-2.928
						c3.126-0.261,6.308-1.156,9.435-0.34c4.124,0.997,8.152,3.206,10.606,6.759c1.915,3.348,2.303,7.29,2.754,11.049
						c0.407,3.761-0.225,7.518-0.98,11.194c-0.301,1.462-0.87,2.599-1.323,3.977c-0.586,1.781-1.073,3.565-1.88,5.268
						c-0.992,2.091-2.358,3.981-4.194,5.41c2.643-0.275,5.392-0.614,7.614-2.071c2.936-1.925,4.374-5.39,5.931-8.536
						c2.537-5.127,4.856-9.703,5.098-15.54c0.191-4.593,0.303-9.189,0.337-13.786c1.105,1.221,1.221,3.017,1.246,4.664
						c0.083,5.606-0.237,11.245-1.45,16.719c-1.364,6.153-3.891,12.161-8.001,16.993c-1.235,1.356-2.588,2.583-3.942,3.817
						c-1.158,1.056-2.493,1.546-3.936,2.106c-1.572,0.609-3.085,1.371-4.511,2.271c1.387,0.223,2.693,0.919,3.652,1.947
						c-1.84,0.121-3.735,0.257-5.39,1.072c-0.671,0.331-1.285,0.766-1.86,1.243c-0.728,0.604-1.397,1.278-1.997,2.01
						c1.188-0.411,2.29-0.747,3.404-1.317c1.139-0.583,2.275-1.19,3.506-1.561c-0.359,0.108-0.868,0.791-1.161,1.044
						c-0.393,0.341-0.791,0.675-1.195,1.002c-0.841,0.683-1.704,1.34-2.579,1.978c-1.756,1.279-3.565,2.482-5.377,3.68
						c-3.71,2.453-7.473,4.839-11.066,7.464c-3.127,2.284-6.258,4.61-9.759,6.298c-4.915,2.493-9.585,5.588-13.511,9.49
						c-2.365,2.351-4.499,5.36-5.665,8.493c-0.593,1.594-0.922,3.287-0.868,4.992c0.017,0.545-0.066,1.414,0.378,1.814
						c0.696,0.627,1.457-0.053,1.869-0.622c1.354-1.871,2.431-3.904,3.812-5.741c4.583-6.095,10.875-11.58,18.505-13.202
						c-1.072,0.772-2.182,1.514-3.295,2.257c-1.127,0.753-2.473,1.213-3.613,2c-1.393,0.961-2.703,2.043-3.958,3.177
						c-1.045,0.944-1.999,1.962-2.917,3.011c-4.79,7.18-4.306,11.779-4.306,11.779s-0.846-0.968-0.706-3.743
						c0.032-0.634,0.103-1.253,0.192-1.834c-0.506,0.741-0.978,1.504-1.358,2.316c-0.625,1.335-1.006,2.815-0.872,4.283
						c0.058,0.64,0.195,1.56,0.61,2.08c0.348,0.435,1.055,0.75,1.531,1.047c0.174,0.109,2.057,1.017,2.055,1.178
						c0.092-9.608,3.291-13.343,5.168-17.001l0.127-0.04c-0.144,0.529-0.274,1.063-0.4,1.597c-0.002-0.004-3.064,9.389-1.531,17.833
						c1.533,8.444,5.983,19.535,14.488,24.854c4.401,2.753,10.234,2.464,15.205,2.032
						C241.702,278.436,247.156,277.154,252.452,275.463z M263.385,162.957c-0.198,0.158-0.602,0.483-0.799,0.649
						c0.467-3.712,0.42-7.583,1.813-11.105C264.263,155.992,264.144,159.538,263.385,162.957z M222.092,253.813
						c-1.301,1.541-4.497,0.902-4.826-1.211c-0.186-1.196,0.845-2.146,1.716-2.794C221.364,248.035,224.34,252.016,222.092,253.813z
						 M222.315,243.594c-0.501-1.082-0.372-1.806,0.423-2.691c0.58-0.645,1.485-1.281,2.401-1.123
						c1.417,0.245,2.865,1.393,3.103,2.842c0.224,1.364-1.649,2.301-2.751,2.495C224.182,245.347,222.891,244.839,222.315,243.594z
						 M231.479,263.343c-1.539,1.819-5.545,1.785-6.283-0.857c-0.179-0.638-0.135-1.315-0.09-1.976
						c0.135-1.999,3.092-2.203,4.466-1.742C231.297,259.346,233.545,261.831,231.479,263.343z M234.131,252.396
						c-1.718,1.836-4.86-0.079-4.82-2.327c0.022-1.254,1.72-2.682,2.87-2.76c1.63-0.111,3.185,1.17,3.172,2.854
						C235.347,251.076,234.87,251.883,234.131,252.396z"/>
					<path style="fill:#EFEFE4;" d="M185.725,136.729c0.807-3.568,1.571-7.15,3.252-10.418c2.508-4.874,4.836-9.897,7.748-14.551
						c1.124-1.797,2.347-3.534,3.711-5.159c0.978-1.166,2.48-3.404,4.083-3.693c0.738-0.133,1.522,0.22,1.972,0.82
						c1.206,1.608,0.225,4.976,0.067,6.801c-0.22,2.54-0.374,5.097-0.153,7.643c0.06,0.693,0.305,1.554,0.994,1.648
						c0.546,0.074,0.997-0.409,1.306-0.865c2.117-3.125,2.146-6.595,1.735-10.207c-0.467-4.108-0.942-8.912-4.527-11.572
						c-5.398-1.504-10.432,2.414-13.883,6.158c-6.296,6.837-8.337,16.242-11.447,24.715c-0.381,1.039-0.774,2.08-1.327,3.039
						c-0.086,0.149-0.183,0.303-0.337,0.379c-0.287,0.143-0.649-0.061-0.794-0.347c-0.145-0.286-0.134-0.623-0.124-0.943
						c0.138-4.432-0.679-8.972-2.912-12.803c-2.233-3.831-5.984-6.882-10.339-7.718c-0.144-0.027-0.288-0.052-0.433-0.076
						c-5.278-0.832-11.229,2.031-16.144,3.695c-5.909,2-11.791,4.088-17.752,5.928c-10.897,3.363-9.151,10.438-6.688,19.89
						c2.051,7.871,9.665,17.733,15.226,25.038c4.496,5.908,7.659,12.99,11.625,19.272c1.55,2.456,3.139,4.887,4.766,7.292
						c1.109,1.639,3.587,4.351,5.45,5.041c1.278,0.473,2.757,0.209,3.912-0.513c1.686-1.054,2.549-2.931,3.426-4.638
						c1.678-3.269,3.182-6.626,4.823-9.914c0.321-0.644,0.634-1.292,0.939-1.943c3.073-6.566,5.329-13.486,7.195-20.482
						C182.998,151.12,184.102,143.91,185.725,136.729z"/>
					<path style="fill:#EFEFE4;" d="M334.701,150.905c2.596,6.066,5.452,13.493,5.452,13.493c-0.779-10.212-4.76-18.866-7.27-22.415
						C332.883,141.983,332.105,144.839,334.701,150.905z"/>
					<path style="fill:#EFEFE4;" d="M320.313,169.879c-2.177-1.92-4.162-4.111-6.695-5.603c-0.795-0.468-1.635-0.856-2.474-1.238
						c-1.763-0.802-3.559-1.593-5.471-1.903c-1.44-0.234-2.91-0.189-4.364-0.079c-1.741,0.131-3.506,0.366-5.145,0.996
						c-1.327,0.51-2.263,1.322-3.353,2.187c-4.973,3.943-6.393,6.367-7.264,12.69c-0.226,1.642-0.244,3.498-0.16,5.346
						c0.302-0.574,0.707-1.253,1.278-2.039c1.743-2.401,4.467-3.362,4.467-3.362c-2.867,2.544-4.602,6.573-5.462,9.06
						c0.084,0.738,0.176,1.447,0.271,2.112c1.83-2.332,4.321-3.898,4.321-3.898c-1.921,2.496-3.138,4.854-3.883,6.618
						c0.22,1.225,0.387,1.986,0.387,1.986s7.618-16.994,20.483-17.547c4.16,0.102,7.995,3.204,10.991,7.24
						c0.495,0.735,0.983,1.475,1.484,2.204c0.086,0.126,0.164,0.25,0.245,0.375c0.462,0.758,0.898,1.53,1.299,2.307
						c1.119,2.388,1.251,4.228,0.611,4.975c-0.864,1.008-3.575-0.057-7.152,6.447c-3.442,6.257-12.24,8.07-19.341,6.394
						c-0.23-0.109-0.502-0.183-0.838-0.204c0.06,0.211,0.12,0.422,0.18,0.633c0.353,1.245,0.719,2.486,1.109,3.72
						c0.97-1.303,2.852-1.865,2.852-1.865s-1.741,2.331-1.89,4.609c0.504,1.209,1.087,2.372,1.651,3.567
						c1.556,3.299,2.899,6.693,4.246,10.082c0.242,0.713,0.504,1.418,0.797,2.109c0.01,0.03,0.022,0.061,0.033,0.09
						c0.439,1.249,0.999,3.395,1.571,5.802c-0.01,0.058-0.02,0.117-0.03,0.175c0.022-0.008,0.044-0.016,0.065-0.024
						c1.365,5.762,2.788,12.935,2.788,12.935s5.532-7.292,8.328-13.591c2.796-6.299,5.235-14.343,5.294-18.358
						c0.017-1.116-0.172-2.63-1.206-3.285c-0.537-0.34-1.102-0.328-1.706-0.254c-3.401,0.417-6.646,1.752-10.056,2.089
						c0.523-0.052,1.248-0.581,1.721-0.815c0.577-0.286,1.148-0.582,1.713-0.891c1.137-0.622,2.247-1.296,3.311-2.037
						c0.164-0.115,0.323-0.233,0.484-0.35c0.01-0.006,0.019-0.009,0.029-0.016c2.848-1.851,7.266-4.684,7.956-7.819
						c0.69-3.135,1.933-8.957,0-13.309c0,0,0,0.015,0,0.021c-1.369-3.659-6.786-9.716-9.253-11.424
						c-1.509-1.044-3.092-1.746-4.633-2.136c-0.002-0.003-0.004-0.006-0.006-0.009c-3.799-0.977-5.441-1.782-5.324-1.743
						c0.117,0.039,3.467-0.712,6.075,0.526c2.088,0.921,3.988,1.828,5.739,3.333c1.703,1.463,3.153,3.194,4.531,4.958
						c0.158,0.203,0.33,0.406,0.505,0.611c0.014,0.017,0.026,0.03,0.04,0.047c1.406,1.739,4.155,3.46,4.298-0.25
						c0.033-2.016-0.262-4.048-0.842-5.924C324.056,173.357,322.418,171.736,320.313,169.879z M305.904,174.297
						c-0.42,0.002-0.9,0.027-1.411,0.068c-2.42,0.194-5.719,0.818-8.567,1.801c-2.128,0.734-4,1.666-5.05,2.766
						c0,0,1.251-2.72,5.05-4.334c0.248-0.105,0.507-0.207,0.777-0.301c0.266-0.093,0.533-0.174,0.8-0.246
						C301.671,172.931,305.904,174.297,305.904,174.297z"/>
					<path style="fill:#EFEFE4;" d="M311.37,186.534c0.403-0.291,0.651-0.757,0.773-1.239c0.144-0.566,0.215-1.262,0.093-1.839
						c-0.116-0.546-2.482-0.656-2.924-0.685c-0.547-0.035-2.325-0.205-2.391,0.669c-0.001,0.012-0.002,0.024-0.002,0.036
						C306.843,185.112,309.845,187.635,311.37,186.534z"/>
					<path style="fill:#EFEFE4;" d="M342.871,155.534c-1.23-5.546-3.314-10.911-6.241-15.783c-1.693-2.817-4.9-7.356-8.671-7.086
						c-1.901,0.136-3.084,1.403-3.921,2.998c-1.034,1.969-1.646,4.158-1.785,6.378c1.034-2.205,3.565-3.606,5.983-3.312
						c-0.754-0.825-1.857-1.232-2.964-1.181c0.761-0.121,1.357-0.698,2.112-0.837c1.496-0.276,2.723-0.038,3.911,0.967
						c2.599,2.199,4.204,5.284,5.577,8.337c1.582,3.519,2.909,7.11,3.821,10.865c0.946,3.894,1.28,7.918,1.763,11.888
						c0.691,5.69,1.131,11.407,0.983,17.146c-0.025,0.966-0.135,1.928-0.244,2.888c0.583-2.346,0.936-4.738,1.09-7.149
						c0.15-2.347,0.412-4.691,0.461-7.057c0.086-4.464-0.183-8.935-0.827-13.353C343.639,159.328,343.29,157.423,342.871,155.534z"
						/>
					<path style="fill:#EFEFE4;" d="M371.32,175.102c-1.124,0.972-2.178,2.232-3.652,2.426c-0.24,0.032-0.491,0.031-0.715-0.06
						c-0.294-0.119-0.506-0.376-0.705-0.624c-0.936-1.164-1.872-2.327-2.808-3.491c-0.848-1.055-1.808-2.179-3.136-2.439
						c-0.931-0.182-1.885,0.1-2.783,0.407c-2.949,1.007-7.12,2.635-8.674,5.563c-1.279,2.411-1.777,5.59-2.302,8.223
						c-1.203,6.024-1.607,12.203-1.421,18.338c0.515,17.01,5.999,20.539,8.171,18.82c2.171-1.719,9.862-12.938,13.3-20.715
						c3.438-7.777,9.41-12.671,11.865-19.138C379.993,178.374,375.748,171.274,371.32,175.102z"/>
					<path style="fill:#EFEFE4;" d="M298.2,189.823c0.617-0.121,1.54-0.686,1.82-1.273c0.177-0.369,0.21-0.755,0.03-1.131
						c-0.622-1.3-2.124-0.874-2.712,0.241c-0.296,0.562-0.361,1.443-0.007,1.896C297.508,189.783,297.79,189.903,298.2,189.823z"/>
				</g>
			</g>
			<path style="fill:#EFEFE4;" d="M191.08,244.501c-5.02,7.329-6.525,16.364-8.333,21.484c-1.807,5.12-11.746,22.689-10.34,41.562
				c1.405,18.874,12.649,36.442,18.673,42.466c6.023,6.023,12.75,7.329,20.781,13.754c8.031,6.425,18.974,16.866,20.279,23.692
				c1.305,6.827,3.514,0,3.514,0s2.008,8.232,0,14.958c0,0,9.437-14.183,23.893-25.313c14.456-11.13,33.23-29.2,33.23-29.2
				s8.734,0.402,14.356-12.348c5.622-12.75,5.622-32.929,4.417-39.856c-1.205-6.927-8.935-19.173-8.935-19.173
				s-6.124,11.342-14.958,13.551s-15.404,4.618-19.9,5.522c-4.495,0.904-19.874,1.807-28.046-3.313
				c-8.173-5.12-12.49-11.143-15.602-11.846c-3.112-0.703-13.352-7.63-15.962-15.059c-2.61-7.429-0.168-11.307-3.949-12.781
				C200.417,251.126,191.08,244.501,191.08,244.501z"/>
			<path style="fill:#FA8A21;" d="M191.706,241.781c0.873-8.437,7.965-21.65,22.547-27.783
				c14.581-6.134,23.643-15.061,23.643-15.061s2.555-5.796,4.821-7.798c2.266-2.002,9.844-3.115,13.278-6.534
				c3.434-3.419,7.341-10.441,8.778-17.433c1.438-6.992,1.737-15.498,1.498-18.732h-0.268c0,0-1.436-2.257-2.816-6.222
				c-1.379-3.965-4.654-14.135-14.193-18.445c-9.538-4.31-17.525-6.033-20.686-7.01s-10.63-5.516-12.239-8.102
				c-1.609-2.586-5.832-13.435-10.601-13.534c-4.769-0.099-54.346,14.009-61.102,16.294c-6.756,2.285-21.659,7.352-24.64,12.519
				c-2.981,5.166,2.186,19.076,4.173,23.646c1.987,4.57,20.015,30.257,21.68,38.582c1.665,8.326,5.828,18.816,15.985,14.487
				s13.155-13.155,14.82-9.991c1.665,3.164-2.827,21.182,2.342,32.522S191.706,241.781,191.706,241.781z"/>
			<path style="fill:#FDE38D;" d="M208.748,171.95c2.884,3.841,8.9,12.974,11.292,13.409c2.392,0.435,9.93-0.797,12.466-4.349
				c2.537-3.551,1.377-13.542,3.262-13.838c1.884-0.296,2.102,3.691,2.754,6.372s-1.595,8.842-3.407,10.944
				s-4.494,6.451-9.495,5.798c-5.001-0.652-13.626-3.407-16.453-6.886C206.341,179.923,208.748,171.95,208.748,171.95z"/>
			<circle style="fill:#EFEFE4;" cx="220.679" cy="171.175" r="5.004"/>
			<path style="fill:#FA8A21;" d="M286.637,136.293c-0.175-1.442,3.873,0.328,4.688,0s-1.493-2.5,1.629-2.364
				c3.122,0.136,13.776,5.429,21.783,4.139c8.008-1.289,9.192-8.379,16.236-6.696c7.044,1.683,19.77,25.509,28.643,30.455
				s15.564,9.248,20.947,14.443c5.382,5.195-4.073,18.94-7.71,23.34c-3.637,4.401-14.401,23.07-17.746,27.118
				c-3.346,4.048-11.055-7.09-11.055-7.09s-3.579-27.548-3.899-31.406c-0.32-3.858-3.227-11.17-6.647-9.478
				c-3.419,1.692-7.562,12.747-7.745,22.929c-0.183,10.182-6.729,31.485-10.656,38.071c-3.927,6.586-8.188,9.608-8.188,9.608
				s-5.124-17.661-8.287-26.706c-3.163-9.045-12.208-23.076-14.353-32.304c-2.145-9.228,2.65-23.065,3.155-32.299
				c0.505-9.235,0.549-15.193,0.452-16.89C287.787,139.467,286.637,136.293,286.637,136.293z"/>
			<path style="fill:#EFEFE4;" d="M296.818,186.14c-0.925,2.453-2.565,6.112,1.572,5.187c4.138-0.925,0.921-2.935,6.108-3.699
				c5.187-0.764,8.726,0.714,9.088-1.01c0.362-1.724,1.729-5.061-0.724-5.504c-2.453-0.442-8.338,0.121-8.994,0.603
				S296.818,186.14,296.818,186.14z"/>
			<path style="fill:#FDE38D;" d="M291.265,194.053c1.063,0.918,7.054,5.943,10.437,5.943c3.382,0,7.054-1.256,9.374-3.624
				c2.319-2.368,3.624-5.795,3.721-8.14c0.097-2.345,0.097-5.099,0.87-5.002s1.691,3.027,1.595,5.572
				c-0.097,2.545-3.545,9.745-4.962,11.194c-1.416,1.45-5.209,3.78-8.507,3.871c-3.298,0.091-7.743,0.622-9.628-1.842
				c-1.884-2.464-3.817-5.46-3.865-6.378C290.25,194.73,291.265,194.053,291.265,194.053z"/>
			<path style="fill:#C4C1BB;" d="M187.565,252.601c8.625,1.569,14.178,14.448,18.786,21.064
				c4.608,6.617,15.225,41.35,46.301,42.034c31.076,0.685,29.574-24.172,29.574-24.172s-28.232,6.901-36.936,3.809
				c-8.704-3.092-17.029-12.941-17.029-12.941s-9.655-1.718-14.579-7.559s-8.506-21.705-8.506-21.705l-14.586-7.883L187.565,252.601
				z"/>
			<path style="fill:#C4C1BB;" d="M239.684,282.494c7.932,2.833,24.366,6.003,32.186,2.945l-7.48-10.539L239.684,282.494z"/>
			<path style="fill:#C4C1BB;" d="M205.517,254.548c6.665,10.909,13.671,20.369,26.664,20.352c12.993-0.017,24.227-1.967,25.68-6.68
				c1.453-4.713-17.33-15.927-19.965-29.904c0,0,2.317-12.326,17.881-18.677c0,0-7.316,26.516-2.499,30.361
				c4.817,3.846,16.15,7.349,14.479,11.071c-1.671,3.722-3.368,13.829-3.368,13.829s-21.627,8.25-29.488,7.738
				s-16.05-3.762-19.583-7.738s-8.555-10.01-8.678-13.317C206.516,258.276,205.517,254.548,205.517,254.548z"/>
			<path style="fill:#C4C1BB;" d="M295.905,238.796c4.24,3.696,3.58,10.154,3.58,10.154s-8.277,9.647-14.237,13.739
				c-5.96,4.092-12.957,5.126-14.409,7.183c-1.452,2.057,5.464,12.882,11.643,14.466c6.179,1.584,13.967-1.678,13.967-1.678
				s-3.715,7.222-10.636,6.826s-14.687-7.272-18.055-10.93s-1.494-12.112-0.725-15.507s5.299-5.906,10.493-5.51
				s3.874,2.64,9.154-2.244c5.28-4.884,6.257-11.749,7.419-14.917C295.26,237.212,295.905,238.796,295.905,238.796z"/>
			<path style="fill:#CC7229;" d="M162.898,201.146c3.689-5.446-11.736-26.736-18.764-37.54
				c-7.027-10.804-15.099-26.046-14.406-35.224c0.693-9.179,1.581-11.595,1.581-11.595s-11.273-2.635-12.488,7.027
				c-1.215,9.663,2.825,23.292,6.69,28.687c3.865,5.395,18.218,26.537,20.529,35.731S162.898,201.146,162.898,201.146z"/>
			<path style="fill:#CC7229;" d="M205.517,180.953c3.969,7.621,7.713,12.281,15.162,13.793c7.449,1.512,14.222-1.25,14.222-1.25
				s-7.824,11.511-24.922,3.73c0,0,11.445,6.243,13.235,6.635c-0.382-0.084-1.407,0.519-1.755,0.645
				c-2.019,0.733-4.043,1.449-6.07,2.161c-7.789,2.736-15.593,5.147-22.707,9.446c-1.284,0.776-2.524,1.56-3.852,2.254
				c-0.809,0.425-1.603,1.233-2.022,0.041c-0.227-0.647-0.18-1.427-0.14-2.101c0.067-1.126,0.368-2.229,0.756-3.283
				c0.195-0.529,0.415-1.047,0.651-1.559c0.146-0.317,0.373-1.135,0.654-1.337c0,0-3.056,2.194-3.761,3.761
				c0,0-4.875-9.582-2.899-24.042s-5.914,1.439-5.592,9.763c0.322,8.324,1.764,21.026,4.205,26.798
				c2.441,5.771,7.053,11.833,9.03,14.073c1.977,2.24,2.899-6.061,7.379-11.727c4.48-5.666,16.875-15.057,26.23-19.249
				c9.356-4.192,13.852-9.894,13.852-9.894s4.709-4.503,4.652-7.564s-2.618-7.703-4.982-7.851c-2.364-0.148-3.004,2.314-5.072,3.447
				c-2.068,1.133-5.811,2.61-9.258,2.117c-3.447-0.492-9.898-3.742-11.621-5.86S205.517,180.953,205.517,180.953z"/>
			<path style="fill:#CC7229;" d="M299.076,222.411c5.22,6.3,12.501,14.068,21.157,6.585c0,0-5.651,14.425-13.315,21.003
				L299.076,222.411z"/>
			<path style="fill:#CC7229;" d="M319.596,190.774c0.482,5.016-2.894,11.672-6.559,14.565c-3.665,2.894-12.862,1.35-17.331,9.26
				c0,0-1.864-5.788-1.961-8.874c-0.096-3.087-2.638-5.88,1.961-3.76c4.598,2.12,11.544,2.643,15.113,0
				c3.569-2.643,5.374-7.429,6.449-9.069C318.342,191.257,319.596,190.774,319.596,190.774z"/>
			<path style="fill:#CC7229;" d="M376.569,174.254c2.142,7.161-3.138,12.374-7.657,19.242s-9.141,18.005-14.812,22.056
				s-10.168,2.008-10.168,2.008s6.778,10.731,8.159,12.018c1.381,1.287,7.374-8.88,9.838-13.776
				c2.464-4.896,11.481-19.08,15.132-23.599c3.651-4.519,6.412-12.051,4.529-15.189
				C379.708,173.878,376.569,174.254,376.569,174.254z"/>
		</g>
		<g id="Outline">
			<path style="fill:#3A2320;" d="M279.146,313.02c-1.936,1.798-3.509,4.014-5.588,5.732c-2.388,1.974-4.863,3.839-7.336,5.704
				c-1.237,0.932-2.474,1.864-3.701,2.81c-0.522,0.402-1.03,0.784-1.478,1.261c-0.273,0.291-0.69,1.028-1.124,1.087
				c3.071-0.419,5.873-1.868,8.366-3.665C272.835,322.67,276.961,318.288,279.146,313.02z"/>
			<path style="fill:#3A2320;" d="M381.816,172.162c-4.519-3.768-9.822-6.443-14.659-9.759
				c-8.224-5.303-15.054-12.506-20.848-20.326c-1.326-1.81-2.751-3.584-4.336-5.189c-0.008-0.009-0.013-0.018-0.021-0.027
				c-1.922-2.26-3.922-4.186-6.645-5.362c2.953,0.69,5.841,1.71,8.714,2.656c-0.744-3.301-4.195-4.773-7.005-5.952
				c-4.543-2.01-9.735-1.876-14.437-0.507c-0.293-2.311-2.374-4.559-4.844-4.147c-5.39,0.697-9.047,7.654-14.92,5.62
				c-10.376-4.496-20.682-9.458-31.826-11.762c-14.714-3.443-29.895-2.834-44.886-3.024c-2.374-3.198-5.232-5.968-7.788-8.991
				c-2.778-4.812-5.137-10.859-10.946-12.68c-5.825-1.361-11.611,1.045-17.057,2.857c-7.78,2.929-15.719,5.422-23.769,7.488
				c-11.326,3.031-22.589,6.316-33.86,9.538c-4.836,1.536-9.957,2.929-13.907,6.269c-2.913,2.628-2.944,6.902-2.944,10.527
				c0.111,11.223,5.659,21.402,11.326,30.757c3.957,6.641,9.118,12.783,11.295,20.326c2.066,6.91,0.958,14.516,4.163,21.125
				c2.224,4.781,7.78,7.891,13.028,6.728c6.68-0.989,11.588-6.166,15.98-10.867c-1.179,7.195-0.055,14.556,2.066,21.473
				c2.747,9.316,8.168,17.524,14.041,25.146c-2.612,5.382-4.614,11.026-6.372,16.74c-1.828,5.897-5.564,10.923-7.891,16.606
				c-3.182,7.796-5.699,16.067-5.461,24.576c-0.372,13.479,3.411,27.022,11.002,38.19c7.511,10.836,14.991,21.734,23.713,31.644
				c4.56,5.19,9.075,10.509,14.518,14.798c-2.126-5.757-5.474-11.47-10.139-18.127c-2.393-3.083-4.681-6.25-6.935-9.437
				c9.371,7.108,19.605,13.724,26.365,23.563c4.045,5.825,5.097,13.02,6.087,19.874c2.469-9.379,6.237-18.323,8.976-27.607
				c-3.435,1.583-5.2,5.113-7.488,7.923c-2.082-9.759-1.441-20.175-5.841-29.357c-3.712-8.271-9.981-16.186-18.925-18.996
				c10.733,6.364,17.547,18.102,18.869,30.386c0.443,3.316-0.008,6.664-0.008,9.997c-0.38-0.404-0.76-0.792-1.14-1.171
				c-6.372-6.672-13.867-12.086-20.959-17.935c-5.841-4.678-12.347-8.556-17.603-13.93c-7.234-7.582-10.986-17.785-12.688-27.964
				c-1.733-9.094-1.987-18.671,0.712-27.607c1.559-5.113,3.364-10.163,5.533-15.046c0.127,7.883,2.169,15.521,3.823,23.175
				c0.348,1.163,0.475,2.509,1.441,3.38c-2.823-11.399-2.261-34.436,1.56-43.175c0.001-0.004,0.003-0.007,0.005-0.011
				c0.002-0.005,0.004-0.01,0.006-0.015l0,0c0.787-2.007,1.893-3.88,3.424-5.524c0.367,0.079,0.727,0.166,1.081,0.258
				c4.127,3.192,8.071,5.203,9.834,6.029c1.609,5.944,8.278,26.103,25.471,29.612c5.05,7.164,12.271,11.654,20.046,13.64
				c-1.399,0.372-2.833,0.648-4.135,0.691c-4.769,0.159-8.4,0.313-8.4,0.313s8.377,1.737,18.013-0.019
				c0.648,0.068,1.297,0.119,1.946,0.154c2.498,0.134,5.081,0.002,7.636-0.347c-8.053,8.344-18.926,9.439-18.926,9.439
				c18.047-0.507,20.734-4.615,26.688-11.223c3.488-1.149,6.642-2.708,9.121-4.57c-1.11,4.897-4.856,11.97-8.059,15.793
				c0,0,8.436-3.11,16.89-17.964c1.583-0.337,3.292-0.905,4.973-1.823c2.788,2.261,3.588,7.248,3.588,7.248
				c1.008-3.025,0.559-7.192-0.627-9.308c0.439-0.385,0.867-0.807,1.284-1.26c4.828,5.23,6.12,14.647,6.12,14.647
				c0.208-6.454-1.089-12.821-3.881-17.671c0.408-0.69,0.791-1.433,1.143-2.236c0,0,3.548,4.437,4.764,10.693
				c0.006,0.031,0.011,0.063,0.016,0.094c2.091,7.844,1.931,16.271,0.916,24.292c-0.815,6.783-3,13.368-6.284,19.344
				c-1.551,2.754-3.269,5.525-5.794,7.503c4.781-10.464,8.699-21.837,7.772-33.504c-1.852,2.841-1.528,6.593-2.501,9.822
				c-0.118,0.595-0.246,1.187-0.381,1.776c-1.291,4.083-2.514,8.459-4.226,12.946c-0.791,1.938-1.629,3.859-2.493,5.767
				c-2.339,4.768-5.483,9.575-10.076,14.215c-1.551,1.471-3.136,2.901-4.748,4.3c-1.674,1.367-2.831,2.353-3.571,3.029
				c-8.44,7.001-17.337,13.471-25.232,21.112c-6.783,6.767-13.527,14.017-17.104,23.064c-0.228,0.752-0.791,1.919-0.763,2.802
				c14.498-19.666,25.305-25.058,35.377-33.052c0.099-0.079,0.191-0.148,0.286-0.22c3.686-2.982,7.411-5.915,11.133-8.836
				c4.417-3.435,8.556-7.226,13.083-10.511c-3.134,6.72-8.137,12.308-12.332,18.363c-1.307,1.98-2.992,3.847-3.811,6.092
				c7.291-7.317,20.825-21.524,29.333-34.278c3.99-6.883,7.397-14.093,9.327-21.836c2.841-12.197,1.084-25.09-3.76-36.535
				c-1.63-4.63-4.424-8.778-5.659-13.551c1.173-3.567,1.812-7.277,2.588-10.943c0.332-1.571,0.312-3.103,0.41-4.712
				c0.079-1.306-0.2-4.4,0.612-5.469c3.451-4.551,7.179-8.944,9.941-13.97c4.424-7.955,7.337-16.716,8.928-25.66
				c1.377-7.353,0.894-14.896,1.979-22.281c1.448-2.707,4.377-4.25,6.997-5.643c1.876,10.566,1.583,21.402,3.403,31.992
				c0.981,5.129,3.024,10.005,5.564,14.556c1.171,1.971,2.422,4.037,4.417,5.287c3.76,0.024,5.161-4.147,6.934-6.759
				c4.306-6.672,6.894-14.286,11.469-20.8c6.071-8.675,12.015-17.73,15.007-27.995C384.531,177.932,384.507,174.236,381.816,172.162
				z M172.962,180.671c-1.641,3.287-3.145,6.645-4.823,9.914c-0.877,1.708-1.74,3.584-3.426,4.638
				c-1.155,0.722-2.635,0.986-3.912,0.513c-1.863-0.69-4.342-3.402-5.45-5.041c-1.627-2.406-3.216-4.836-4.766-7.292
				c-3.966-6.282-7.129-13.364-11.625-19.272c-5.561-7.305-13.175-17.167-15.226-25.038c-2.463-9.452-4.208-16.527,6.688-19.89
				c5.962-1.84,11.844-3.928,17.752-5.928c4.915-1.664,10.866-4.527,16.144-3.695c0.145,0.023,0.289,0.048,0.433,0.076
				c4.355,0.836,8.106,3.887,10.339,7.718c2.233,3.831,3.05,8.371,2.912,12.803c-0.01,0.321-0.021,0.657,0.124,0.943
				c0.145,0.286,0.507,0.49,0.794,0.347c0.154-0.077,0.251-0.231,0.337-0.379c0.553-0.959,0.946-2,1.327-3.039
				c3.11-8.473,5.151-17.878,11.447-24.715c3.451-3.744,8.485-7.662,13.883-6.158c3.585,2.659,4.06,7.464,4.527,11.572
				c0.411,3.612,0.381,7.083-1.735,10.207c-0.309,0.456-0.76,0.939-1.306,0.865c-0.69-0.093-0.934-0.954-0.994-1.648
				c-0.221-2.546-0.066-5.103,0.153-7.643c0.158-1.826,1.139-5.193-0.067-6.801c-0.45-0.6-1.234-0.952-1.972-0.82
				c-1.603,0.289-3.105,2.527-4.083,3.693c-1.363,1.624-2.586,3.362-3.711,5.159c-2.913,4.655-5.24,9.677-7.748,14.551
				c-1.682,3.268-2.446,6.85-3.252,10.418c-1.624,7.18-2.727,14.39-4.628,21.516c-1.866,6.996-4.122,13.916-7.195,20.482
				C173.597,179.38,173.284,180.027,172.962,180.671z M249.135,166.776c0.249-1.266,0.461-2.993,0.461-5.237
				c0-1.882-0.403-3.758-1.002-5.536c-0.88-2.613-2.188-5.142-4.034-7.221c-0.618-0.696-1.38-1.52-2.235-1.93
				c-0.656-0.314-1.259-0.68-1.468-1.45c0.003,0.01,1.441,0.051,1.579,0.068c1.416,0.176,2.611,0.61,3.671,1.599
				c1.069,0.997,1.884,2.28,2.505,3.593c1.083,2.29,1.698,4.799,2.051,7.299c0.186,1.314,0.197,2.629,0.324,3.945
				c0.514,5.319-0.91,10.733-2.216,15.917c-0.34,1.678-1.29,3.253-2.826,4.092c0.025-0.014,0.053-0.099,0.066-0.126
				c0.022-0.042,0.044-0.084,0.065-0.126c0.043-0.084,0.085-0.169,0.127-0.253c0.085-0.173,0.167-0.347,0.247-0.523
				c0.156-0.346,0.302-0.697,0.438-1.052c0.305-0.795,0.559-1.609,0.777-2.432c0.218-0.826,0.399-1.66,0.557-2.499
				c0.159-0.841,0.294-1.686,0.421-2.533c0.063-0.423,0.125-0.845,0.186-1.268c0.064-0.444,0.152-0.882,0.216-1.327
				c-0.2,0.183-0.396,0.371-0.587,0.563c-0.06,0.06-0.12,0.121-0.175,0.186c-0.085,0.1-0.159,0.209-0.232,0.318
				c-0.151,0.224-0.311,0.443-0.459,0.668c-0.47,0.712-0.752,1.523-1.089,2.301c-0.691,1.59-1.289,3.221-1.791,4.881
				c0.093-1.024-0.041-2.068-0.388-3.036c-0.453,1.081-1.253,2.012-2.253,2.623c0.582-1.326,0.711-2.845,0.361-4.25
				c0.11,0.444-0.919,1.836-1.169,2.209c-0.443,0.661-1.105,1.575-1.886,1.82c-0.016-1.127,0.449-2.392,0.561-3.542
				c0.125-1.272,0.151-2.554,0.079-3.83c-0.214-3.828-1.146-7.505-3.688-10.444c-2.186-2.528-5.27-4.319-8.652-4.485
				c-2.916-0.143-5.805,0.313-8.601,1.109c3.202-0.1,6.656,0.703,9.176,2.854c-0.481-0.203-1.346-0.098-1.87-0.124
				c-0.699-0.035-1.4-0.056-2.1-0.056c-1.355,0-2.712,0.076-4.052,0.284c-4.898,0.761-8.791,3.963-12.616,6.868
				c-0.57,0.433-1.285,0.763-1.801,1.24l-0.164,0.196c0.127-0.267,0.259-0.536,0.394-0.805c1.926-3.953,2.63-5.663,4.358-7.196
				c-0.795,0.439-1.553,0.937-2.243,1.534c-1.718,1.487-3,3.373-4.073,5.36c-0.368,0.682-0.707,1.379-1.078,2.059
				c-0.007,0.013-0.01,0.03-0.001,0.04c-0.079,0.138-0.158,0.276-0.236,0.414c-0.33,0.578-0.719,1.371-1.371,1.643
				c-1.619,0.675-9.822,5.27-13.272,5.118c-3.449-0.152-1.15-6.69-0.144-11.065c0.763-3.32,3.412-5.992,7.836-7.845
				c0.011-0.004,0.023-0.008,0.034-0.011c5.368-1.805,10.683-3.765,15.933-5.89c4.879-1.975,9.677-4.237,14.934-5.012
				c3.838-0.566,7.925-0.556,11.64,0.669c4.341,1.432,6.862,4.467,8.577,8.591c0.129-0.143,0.254-0.295,0.385-0.435
				c0.195,1.221,0.461,2.43,0.751,3.634c0.692,2.312,1.021,4.292,0.974,5.08C249.073,164.698,249.117,166.03,249.135,166.776z
				 M227.949,186.077c6.918-3.071,9.601-11.619,7.757-18.6c2.335,3.831,3.111,8.888,0.792,12.909
				c-1.693,2.936-3.779,6.038-6.914,7.578c-4.748,2.333-10.466,0.27-14.544-2.497c-4.013-2.723-5.802-7.638-6.292-12.284
				c0.997,3.847,2.762,7.67,5.936,10.21C218.366,186.341,223.325,188.602,227.949,186.077z M218.903,167.516
				c4.227-2.026,7.432,5.469,3.633,7.48C218.578,176.365,214.803,169.661,218.903,167.516z M190.673,237.513
				c0.086-0.308-2.721-3.16-2.966-3.482c-1.581-2.073-3.368-4.446-4.323-6.86c-1.185-2.994-1.559-6.657-1.975-9.831
				c-1.506-11.503-1.156-25.06,5.822-34.865c3.325-4.671,9.476-7.225,15.161-7.162c0.153,0.002,1.017,2.174,1.108,2.353
				c0.676,1.331,1.389,2.683,2.236,3.914c4.22,6.135,12.388,9.377,19.69,9.064c2.872-0.123,5.713-0.915,8.114-2.524
				c1.12-0.751,2.124-1.667,2.989-2.7c1.677,0.484,2.367,2.36,2.712,3.895c0.199,0.886,0.309,1.79,0.386,2.694
				c0.096,1.138,0.128,2.174-0.379,3.236c-0.597,1.251-1.643,2.349-2.716,3.211c-3.37,2.706-8.056,3.255-12.235,3.069
				c-4.776-0.212-9.465-1.595-13.649-3.903c-0.227-0.125-0.446-0.263-0.668-0.396c0.277,0.166,0.534,0.581,0.761,0.817
				c0.274,0.285,0.553,0.564,0.837,0.839c0.583,0.564,1.187,1.106,1.812,1.622c2.152,1.778,4.606,3.327,7.219,4.332
				c0.781,0.3,1.594,0.53,2.426,0.632c0.85,0.104,1.711,0.04,2.565,0.064c-7.533,6.201-16.924,9.617-24.288,15.955
				c-1.758,1.513-3.356,3.202-4.88,4.95c-1.137,1.304-2.063,2.585-2.842,3.906C192.305,232.524,191.425,234.816,190.673,237.513z
				 M220.949,276.886c-8.505-5.32-12.955-16.41-14.488-24.854c-1.533-8.444,1.529-17.837,1.531-17.833
				c0.125-0.535,0.255-1.068,0.4-1.597l-0.127,0.04c-1.878,3.658-5.077,7.394-5.168,17.001c0.002-0.162-1.881-1.07-2.055-1.178
				c-0.476-0.297-1.183-0.612-1.531-1.047c-0.416-0.52-0.552-1.44-0.61-2.08c-0.134-1.468,0.247-2.948,0.872-4.283
				c0.38-0.812,0.852-1.574,1.358-2.316c-0.089,0.581-0.16,1.2-0.192,1.834c-0.14,2.775,0.706,3.743,0.706,3.743
				s-0.484-4.599,4.306-11.779c0.918-1.049,1.872-2.066,2.917-3.011c1.255-1.134,2.565-2.215,3.958-3.177
				c1.14-0.787,2.486-1.248,3.613-2c1.113-0.743,2.223-1.485,3.295-2.257c-7.63,1.623-13.922,7.108-18.505,13.202
				c-1.381,1.837-2.458,3.87-3.812,5.741c-0.412,0.569-1.173,1.249-1.869,0.622c-0.444-0.4-0.361-1.269-0.378-1.814
				c-0.054-1.704,0.275-3.398,0.868-4.992c1.166-3.133,3.3-6.142,5.665-8.493c3.926-3.902,8.596-6.997,13.511-9.49
				c3.502-1.687,6.633-4.014,9.759-6.298c3.593-2.625,7.356-5.01,11.066-7.464c1.812-1.198,3.621-2.4,5.377-3.68
				c0.876-0.638,1.738-1.294,2.579-1.978c0.404-0.328,0.802-0.662,1.195-1.002c0.292-0.254,0.802-0.936,1.161-1.044
				c-1.231,0.371-2.367,0.978-3.506,1.561c-1.114,0.57-2.216,0.906-3.404,1.317c0.599-0.732,1.269-1.406,1.997-2.01
				c0.575-0.477,1.19-0.913,1.86-1.243c1.654-0.815,3.549-0.951,5.39-1.072c-0.958-1.027-2.265-1.723-3.652-1.947
				c1.426-0.9,2.939-1.661,4.511-2.271c1.443-0.559,2.778-1.049,3.936-2.106c1.353-1.234,2.706-2.462,3.942-3.817
				c4.109-4.832,6.637-10.84,8.001-16.993c1.213-5.474,1.533-11.113,1.45-16.719c-0.024-1.646-0.141-3.443-1.246-4.664
				c-0.034,4.597-0.146,9.193-0.337,13.786c-0.243,5.837-2.561,10.413-5.098,15.54c-1.557,3.146-2.995,6.611-5.931,8.536
				c-2.222,1.457-4.972,1.796-7.614,2.071c1.836-1.429,3.202-3.319,4.194-5.41c0.807-1.702,1.294-3.486,1.88-5.268
				c0.453-1.379,1.022-2.515,1.323-3.977c0.755-3.676,1.388-7.433,0.98-11.194c-0.451-3.76-0.839-7.701-2.754-11.049
				c-2.454-3.554-6.482-5.762-10.606-6.759c-2.058-0.498-4.261-0.396-6.344-0.108c-2.039,0.282-4.088,0.507-6.119,0.864
				c-4.217,0.741-8.373,1.834-12.408,3.266c-1.861,0.66-3.544,1.725-5.299,2.634c-3.589,1.86-7.234,3.694-11.146,4.774
				c-0.938,0.259-1.889,0.473-2.849,0.633c0.178-0.033,0.595-0.89,0.69-1.031c0.622-0.929,1.245-1.858,1.868-2.787
				c3.657-5.45,7.313-10.903,11.052-16.299c1.073-1.549,2.556-2.962,3.089-4.818c0.364-1.265,0.181-3.077-0.962-3.934
				c-0.243-0.245-0.513-0.483-0.808-0.663c0,0,2.879-11.711,5.113-11.667c2.234,0.044,4.902,5.013,9.87,6.166
				c6.498,1.266,12.806,3.451,18.79,6.269c1.678,0.823,3.38,1.82,4.329,3.498c1.765,2.96,4.393,5.279,6.126,8.263
				c1.393,2.09,2.121,4.504,3.079,6.807c-0.602-4.82-2.818-9.245-5.477-13.234c-1.401-1.844-3.372-3.142-4.789-4.971
				c2.454,1.171,4.472,3.071,6.467,4.884c4.258,4.234,5.881,10.218,7.583,15.79c0.158-1.021,0.309-2.042,0.459-3.055
				c-1.876-6.562-4.891-13.155-10.123-17.714c-2.232-1.868-4.884-3.111-7.519-4.29c3.19-0.57,6.427,0.047,9.625,0.261
				c8.75,0.465,17.27,2.691,25.55,5.448c8.077,2.69,16.471,5.311,24.286,8.681c6.487,2.797,14.609,7.745,14.374,15.829
				c-0.075,2.595,0.114,4.37,0.434,5.733c-3.298-2.111-7.326-3.393-7.326-3.393s3.741,2.214,9.155,7.857
				c0.147,0.325,0.288,0.665,0.418,1.038c0.26,0.744,0.443,1.484,0.573,2.182c-0.606,0.226-1.329-0.017-1.943-0.287
				c-8.16-3.578-16.179-12.495-25.945-9.465c-3.111,1.108-5.121,3.957-6.728,6.696c-0.182,0.016-0.562,0.04-0.744,0.055
				c0.517-0.045,1.014-4.688,1.072-5.234c0.193-1.828,0.23-3.669,0.199-5.507c-0.05-2.958-0.319-5.913-0.821-8.829
				c-0.256-1.484-0.572-2.958-0.952-4.415c-0.165-0.631-0.325-1.237-0.603-1.827c-0.246-0.521-0.893-1.134-1.036-1.653
				c1.335,4.862,1.461,10.128,1.124,15.137c-0.343,5.094-1.343,10.156-2.759,15.057c-1.206,4.175-2.113,8.444-2.543,12.771
				c-0.431,4.338-0.206,8.628,0.131,12.954c0.569,7.294,1.478,14.742,3.313,21.84c0.11,0.426,0.226,0.851,0.357,1.271
				c1.378,4.412,1.8,6.876-1.03,6.924c-0.102-0.055-0.205-0.11-0.307-0.164c-8.516-3.696-18.22-5.77-27.402-3.53
				c-2.44,0.623-4.611,1.836-6.441,3.449c-0.032,0.029-0.063,0.058-0.096,0.087c-1.188,1.062-2.225,2.296-3.1,3.645
				c-1.124,1.952-1.858,4.316-2.12,7.042c0.012-0.002,0.024-0.004,0.036-0.006l-0.054,0.186c-0.249,2.818-0.001,6.013,0.832,9.527
				c2.24,9.455,4.689,14.805,18.788,22.279c-0.039-0.021-0.417,3.747-0.444,4.037c-0.13,1.361-0.459,2.739-1.291,3.852
				c-1.138,1.522-2.998,2.294-4.777,2.962c-1.879,0.706-3.774,1.371-5.686,1.982c-5.297,1.691-10.75,2.973-16.299,3.455
				C231.182,279.35,225.349,279.638,220.949,276.886z M259.039,220.871c7.195-2.596,15.189-0.736,21.964,2.295
				c4.409,2.137,9.3,4.923,10.669,10.012C283.219,224.528,270.658,221.86,259.039,220.871z M284.847,253.594
				c-0.126,0.152-0.293,0.277-0.48,0.381c-0.419,0.233-0.944,0.361-1.358,0.452c-0.75,0.165-1.558,0.184-2.286-0.091
				c-0.621-0.234-1.085-0.554-0.997-1.279c0.22-1.817,2.581-2.432,4.111-2.403c0.714,0.014,1.243,0.447,1.371,1.145
				C285.31,252.362,285.22,253.146,284.847,253.594z M259.772,229.473c-1.393,0.103-3.234,0.355-4.38-0.63
				c-0.319-0.274-0.573-0.651-0.73-1.164c-0.294-0.962,0.019-2.081,0.768-2.752c1.1-0.984,2.9-0.985,4.288-1.029
				c2.27-0.072,4.914,0.016,7.039,0.906c0.923,0.387,1.26,1.235,0.785,2.147c-0.279,0.535-0.771,0.936-1.311,1.206
				c-0.54,0.269-1.131,0.419-1.719,0.556C262.953,229.075,261.371,229.355,259.772,229.473z M263.597,246.395
				c-0.036,0.091-0.078,0.184-0.149,0.251c-0.007,0.007-0.015,0.014-0.023,0.02c-0.119,0.095-0.286,0.112-0.44,0.1
				c-0.866-0.067-1.735-0.236-2.409-0.829c-0.28-0.246-0.508-0.557-0.575-0.929c-0.059-0.321-0.084-0.913,0.251-1.097
				c0.103-0.057,0.226-0.063,0.344-0.068c0.777-0.033,1.927-0.288,2.655,0.076C264.194,244.329,263.898,245.637,263.597,246.395z
				 M258.986,248.73c-0.008,0.018-0.018,0.035-0.029,0.051c-0.147,0.199-0.585,0.186-0.809,0.144
				c-0.568-0.106-1.035-0.571-1.277-1.077c-0.178-0.374-0.203-1.057-0.118-1.454c0.01-0.045,0.022-0.09,0.051-0.125
				c0.321-0.379,1.408,0.794,1.572,1.012C258.592,247.568,259.151,248.34,258.986,248.73z M273.753,291.121
				c-0.424,0.166-0.852,0.333-1.295,0.441c-0.073,0.018-0.146,0.034-0.22,0.048c-1.163,0.226-2.299,0.619-3.461,0.874
				c-1.202,0.264-2.416,0.472-3.636,0.626c-2.454,0.309-4.935,0.4-7.405,0.281c-4.919-0.236-9.812-1.297-14.363-3.188
				c-1.358-0.564-2.685-1.202-3.973-1.911c-0.637-0.351-1.264-0.718-1.891-1.086c-1.245-0.73-2.413-1.494-3.621-2.272
				c-0.606-0.39-1.02-0.788-1.409-1.265c2.669,0.571,5.952,0.868,13.733-1.127c5.027-1.289,7.778-2.213,9.764-2.971
				c5.39-1.827,8.779-2.137,8.779-2.137s3.765,8.282,12.596,12.132c0.089,0.049,0.159,0.083,0.174,0.077
				C276.268,290.137,275.01,290.629,273.753,291.121z M296.904,280.281c-3.118,3.649-7.116,8.2-12.434,7.401
				c-1.757-0.194-3.48-0.763-4.954-1.719c-0.015-0.008-0.029-0.014-0.044-0.023c-2.436-1.364-4.962-2.776-6.607-4.841l-0.004,0.006
				c-3.415-3.942-5.104-9.251-5.104-9.251l2.552-8.776c0,0,2.063,0.528,4.885,0.241c1.241-0.203,2.68-0.54,4.194-1.01
				c0.109-0.037,0.216-0.071,0.317-0.096c4.483-1.441,9.473-4.045,11.509-7.863c0.13-0.236,0.26-0.472,0.386-0.708
				c1.492-2.779,2.778-5.668,3.847-8.635c0.707-1.963,1.7-4.257,1.7-6.379c0.045-0.406,0.076-0.814,0.1-1.222
				c0.001-0.014,0.003-0.026,0.004-0.04c0.86-9.653-6.373-16.781-8.556-22.932c-1.461-4.761-2.622-9.946-3.468-14.823
				c1.913,5.127,4.322,10.095,6.746,14.96c5.881,11.192,9.862,23.381,11.5,35.926C304.558,260.707,303.719,272.049,296.904,280.281z
				 M313.613,194.206c1.251-3.221,2.24-6.569,2.145-10.06c0.981,4.614-0.776,9.118-2.936,13.123
				c-1.388,2.573-4.063,4.163-6.772,5.034c-0.308,0.099-0.619,0.187-0.933,0.263c-2.242,0.542-4.398,0.271-6.528-0.563
				c-2.304-0.902-4.456-2.393-5.849-4.466c-0.266-0.396-0.502-0.811-0.704-1.244c-0.099-0.212-0.189-0.427-0.27-0.647
				c-0.06-0.162-0.105-0.553-0.219-0.673c1.591,1.662,2.841,3.76,4.971,4.812C302.382,202.912,310.993,200.577,313.613,194.206z
				 M297.339,187.66c0.588-1.115,2.09-1.541,2.712-0.241c0.18,0.376,0.146,0.761-0.03,1.131c-0.281,0.587-1.203,1.152-1.82,1.273
				c-0.41,0.08-0.691-0.04-0.868-0.266C296.978,189.103,297.043,188.222,297.339,187.66z M306.918,183.478
				c0.001-0.012,0.001-0.024,0.002-0.036c0.066-0.874,1.844-0.704,2.391-0.669c0.442,0.028,2.808,0.138,2.924,0.685
				c0.123,0.577,0.051,1.273-0.093,1.839c-0.122,0.482-0.37,0.948-0.773,1.239C309.845,187.635,306.843,185.112,306.918,183.478z
				 M321.46,182.318c-0.014-0.017-0.026-0.03-0.04-0.047c-0.175-0.205-0.347-0.408-0.505-0.611
				c-1.379-1.764-2.828-3.495-4.531-4.958c-1.751-1.505-3.652-2.412-5.739-3.333c-2.608-1.238-5.958-0.487-6.075-0.526
				c-0.117-0.039,1.525,0.766,5.324,1.743c0.002,0.003,0.004,0.006,0.006,0.009c1.541,0.391,3.124,1.092,4.633,2.136
				c2.467,1.708,7.884,7.765,9.253,11.424c0-0.006,0-0.021,0-0.021c1.933,4.352,0.69,10.174,0,13.309
				c-0.69,3.135-5.108,5.968-7.956,7.819c-0.01,0.007-0.019,0.01-0.029,0.016c-0.162,0.116-0.32,0.235-0.484,0.35
				c-1.064,0.741-2.174,1.415-3.311,2.037c-0.565,0.309-1.136,0.605-1.713,0.891c-0.473,0.234-1.198,0.764-1.721,0.815
				c3.41-0.337,6.655-1.672,10.056-2.089c0.604-0.074,1.17-0.086,1.706,0.254c1.034,0.656,1.222,2.169,1.206,3.285
				c-0.059,4.015-2.498,12.059-5.294,18.358c-2.796,6.299-8.328,13.591-8.328,13.591s-1.422-7.173-2.788-12.935
				c-0.022,0.008-0.044,0.016-0.065,0.024c0.01-0.058,0.02-0.117,0.03-0.175c-0.572-2.407-1.132-4.553-1.571-5.802
				c-0.01-0.03-0.022-0.061-0.033-0.09c-0.292-0.691-0.554-1.396-0.797-2.109c-1.347-3.388-2.69-6.782-4.246-10.082
				c-0.564-1.195-1.147-2.358-1.651-3.567c0.149-2.278,1.89-4.609,1.89-4.609s-1.883,0.562-2.852,1.865
				c-0.39-1.234-0.756-2.475-1.109-3.72c-0.06-0.211-0.12-0.422-0.18-0.633c0.336,0.021,0.608,0.095,0.838,0.204
				c7.101,1.676,15.9-0.137,19.341-6.394c3.577-6.504,6.289-5.439,7.152-6.447c0.64-0.747,0.508-2.587-0.611-4.975
				c-0.401-0.777-0.837-1.548-1.299-2.307c-0.081-0.125-0.159-0.248-0.245-0.375c-0.5-0.728-0.989-1.468-1.484-2.204
				c-2.996-4.036-6.832-7.138-10.991-7.24c-12.864,0.553-20.483,17.547-20.483,17.547s-0.167-0.761-0.387-1.986
				c0.745-1.764,1.961-4.121,3.883-6.618c0,0-2.491,1.566-4.321,3.898c-0.095-0.665-0.188-1.374-0.271-2.112
				c0.86-2.486,2.595-6.515,5.462-9.06c0,0-2.724,0.961-4.467,3.362c-0.571,0.787-0.976,1.465-1.278,2.039
				c-0.085-1.848-0.066-3.704,0.16-5.346c0.871-6.323,2.29-8.747,7.264-12.69c1.09-0.864,2.026-1.677,3.353-2.187
				c1.639-0.63,3.404-0.865,5.145-0.996c1.454-0.11,2.924-0.154,4.364,0.079c1.912,0.31,3.708,1.101,5.471,1.903
				c0.84,0.382,1.679,0.77,2.474,1.238c2.533,1.492,4.518,3.683,6.695,5.603c2.106,1.857,3.744,3.479,4.604,6.265
				c0.579,1.876,0.875,3.908,0.842,5.924C325.615,185.779,322.866,184.058,321.46,182.318z M334.701,150.905
				c-2.596-6.066-1.817-8.922-1.817-8.922c2.51,3.548,6.491,12.203,7.27,22.415C340.153,164.398,337.297,156.971,334.701,150.905z
				 M344.284,181.653c-0.154,2.412-0.508,4.803-1.09,7.149c0.109-0.96,0.219-1.921,0.244-2.888
				c0.148-5.74-0.292-11.456-0.983-17.146c-0.482-3.97-0.817-7.994-1.763-11.888c-0.912-3.754-2.239-7.346-3.821-10.865
				c-1.372-3.053-2.978-6.138-5.577-8.337c-1.188-1.005-2.415-1.243-3.911-0.967c-0.754,0.139-1.351,0.716-2.112,0.837
				c1.107-0.051,2.21,0.356,2.964,1.181c-2.418-0.294-4.949,1.107-5.983,3.312c0.139-2.22,0.752-4.409,1.785-6.378
				c0.837-1.595,2.02-2.861,3.921-2.998c3.771-0.27,6.978,4.268,8.671,7.086c2.927,4.873,5.011,10.238,6.241,15.783
				c0.419,1.889,0.768,3.794,1.048,5.708c0.644,4.418,0.913,8.889,0.827,13.353C344.696,176.962,344.434,179.306,344.284,181.653z
				 M378.459,182.412c-2.456,6.467-8.427,11.362-11.865,19.138c-3.438,7.777-11.129,18.996-13.3,20.715
				c-2.172,1.719-7.655-1.81-8.171-18.82c-0.186-6.135,0.218-12.314,1.421-18.338c0.526-2.633,1.024-5.812,2.302-8.223
				c1.553-2.928,5.724-4.556,8.674-5.563c0.898-0.307,1.852-0.589,2.783-0.407c1.328,0.259,2.288,1.384,3.136,2.439
				c0.936,1.164,1.872,2.327,2.808,3.491c0.199,0.247,0.411,0.505,0.705,0.624c0.224,0.091,0.475,0.091,0.715,0.06
				c1.473-0.194,2.527-1.454,3.652-2.426C375.748,171.274,379.993,178.374,378.459,182.412z"/>
			<path style="fill:#3A2320;" d="M263.385,162.957c0.76-3.419,0.879-6.965,1.013-10.456c-1.393,3.522-1.346,7.393-1.813,11.105
				C262.783,163.44,263.187,163.116,263.385,162.957z"/>
			<path style="fill:#3A2320;" d="M228.242,242.621c-0.237-1.448-1.686-2.596-3.103-2.842c-0.916-0.159-1.821,0.478-2.401,1.123
				c-0.796,0.885-0.924,1.609-0.423,2.691c0.577,1.245,1.867,1.754,3.177,1.523C226.593,244.922,228.466,243.985,228.242,242.621z"
				/>
			<path style="fill:#3A2320;" d="M232.181,247.31c-1.15,0.078-2.848,1.506-2.87,2.76c-0.04,2.248,3.103,4.163,4.82,2.327
				c0.739-0.513,1.216-1.32,1.223-2.232C235.366,248.48,233.811,247.199,232.181,247.31z"/>
			<path style="fill:#3A2320;" d="M293.948,258.676c-1.15,0.078-2.848,1.506-2.871,2.76c-0.039,2.248,3.103,4.163,4.82,2.327
				c0.739-0.513,1.216-1.32,1.223-2.232C297.132,259.845,295.577,258.565,293.948,258.676z"/>
			<path style="fill:#3A2320;" d="M282.075,272.736c-1.15,0.078-2.848,1.506-2.87,2.76c-0.04,2.248,3.103,4.163,4.82,2.327
				c0.739-0.513,1.216-1.32,1.223-2.232C285.259,273.906,283.704,272.626,282.075,272.736z"/>
			<path style="fill:#3A2320;" d="M291.289,270.208c-1.842,1.289-1.546,4.957,0.95,5.268c0.849,0.297,1.783,0.208,2.525-0.322
				c1.37-0.98,1.492-2.99,0.445-4.244C294.469,270.024,292.316,269.489,291.289,270.208z"/>
			<path style="fill:#3A2320;" d="M218.982,249.808c-0.871,0.648-1.902,1.598-1.716,2.794c0.329,2.113,3.525,2.752,4.826,1.211
				C224.34,252.016,221.364,248.035,218.982,249.808z"/>
			<path style="fill:#3A2320;" d="M229.572,258.768c-1.375-0.46-4.331-0.257-4.466,1.742c-0.045,0.661-0.088,1.338,0.09,1.976
				c0.739,2.642,4.745,2.676,6.283,0.857C233.545,261.831,231.297,259.346,229.572,258.768z"/>
			<path style="fill:#3A2320;" d="M212.567,306.95c2.336,3.897,5.108,7.611,8.517,10.638c3.154,2.8,6.91,4.676,11.096,5.292
				c-0.364-0.053-1.022-0.799-1.321-1.033c-0.456-0.356-0.934-0.674-1.389-1.019c-0.986-0.747-1.89-1.672-2.749-2.558
				c-2.357-2.434-4.377-5.144-6.123-8.028c-2.157-3.564-3.894-7.393-5.327-11.297c-1.18-3.215-2.057-6.542-2.607-9.922
				c-0.32,5.172-0.255,10.517,1.693,15.32c-1.255-1.76-2.164-3.732-3.041-5.699c-0.892-2.001-1.819-3.941-2.518-6.024
				c-1.271-3.788-2.79-7.535-3.481-11.491c-0.269-1.542-0.413-3.115-0.905-4.601c-0.426,2.52-0.134,5.099,0.158,7.638
				c0.123,1.066,0.246,2.133,0.456,3.184c1.346,6.728,3.797,13.24,7.276,19.156C212.391,306.654,212.479,306.803,212.567,306.95z"/>
			<path style="fill:#3A2320;" d="M254.916,344.685c-0.427-2.921-0.158-6.063-1.67-8.699c0.744,7.139,0.071,14.279-0.594,21.394
				C255.113,353.739,255.414,348.951,254.916,344.685z"/>
			<path style="fill:#3A2320;" d="M251.853,368.279c-2.588,3.95-5.905,7.313-8.999,10.859c-2.129,2.374-3.609,5.58-2.786,8.825
				c2.406-1.164,3.878-3.491,5.786-5.263c2.153-2.264,4.717-4.171,6.538-6.728c1.393-3.047,2.042-6.403,2.319-9.727
				C253.578,366.641,252.446,367.171,251.853,368.279z"/>
			<path style="fill:#3A2320;" d="M251.717,302.269c-8.743,2.738-19.06,1.59-24.013-2.384c0,0,4.32,5.74,12.709,5.917
				C248.803,305.978,251.717,302.269,251.717,302.269z"/>
			<path style="fill:#3A2320;" d="M184.355,321.317c0,0,4.561,11.459,10.809,18.204c6.248,6.745,19.962,12.403,26.854,22.942
				c0,0-2.147-6.316-6.282-11.161c-4.135-4.844-9.045-6.61-15.568-11.686C193.645,334.539,184.355,321.317,184.355,321.317z"/>
			<path style="fill:#3A2320;" d="M297.503,174.051c-0.267,0.072-0.534,0.153-0.8,0.246c-0.27,0.095-0.529,0.196-0.777,0.301
				c-3.799,1.614-5.05,4.334-5.05,4.334c1.05-1.1,2.922-2.032,5.05-2.766c2.848-0.983,6.146-1.607,8.567-1.801
				c0.512-0.041,0.992-0.066,1.411-0.068C305.904,174.297,301.671,172.931,297.503,174.051z"/>
		</g>
	</g>
</g>
</svg>
