<?xml version="1.0" encoding="utf-8"?>
<!-- Generator: Adobe Illustrator 27.5.0, SVG Export Plug-In . SVG Version: 6.00 Build 0)  -->
<svg version="1.1" xmlns="http://www.w3.org/2000/svg" xmlns:xlink="http://www.w3.org/1999/xlink" x="0px" y="0px"
	 viewBox="0 0 500 500" style="enable-background:new 0 0 500 500;" xml:space="preserve">
<g id="BACKGROUND">
	<rect style="fill:#FFFFFF;" width="500" height="500"/>
	<path style="fill:#FFE7DC;" d="M393.528,88.277c-18.201-2.576-36.989-1.794-54.596-7.075
		c-18.554-5.566-34.493-17.477-52.218-25.289c-27.37-12.063-59.105-13.91-87.689-5.102c-28.584,8.808-53.777,28.195-69.611,53.57
		c-20.592,33.001-25.124,74.186-46.387,106.759c-11.871,18.186-28.605,33.087-38.558,52.39
		c-18.083,35.071-10.179,78.977,9.928,112.928c11.163,18.849,26.213,35.894,45.463,46.351
		c39.928,21.69,88.815,11.652,134.013,16.328c36.077,3.732,71.24,17.196,107.464,15.377c29.642-1.489,58.638-13.635,80.49-33.718
		c21.853-20.083,36.399-47.952,40.379-77.364c5.447-40.243-8.313-81.16-3.503-121.485c1.891-15.851,6.636-31.376,6.93-47.337
		C466.409,132.52,435.128,94.166,393.528,88.277z"/>
</g>
<g id="OBJECTS">
	<g>
		<g>
			<path style="fill:#AD6B4A;" d="M471.08,232.266c-6.304-3.868-13.795-5.207-20.662-7.954
				c-11.127-4.45-21.129-13.621-23.177-25.428l-2.346,8.383c-3.757,4.603-2.86,11.793,0.778,16.49
				c3.638,4.697,9.374,7.294,15.108,8.852c5.734,1.557,11.69,2.258,17.337,4.104c2.004,0.655,4.219,1.733,4.712,3.783
				c0.539,2.24-1.379,4.413-3.519,5.266c-2.14,0.853-4.52,0.84-6.757,1.392c-1.172,0.29-2.566,1.298-2.053,2.391
				c0.301,0.642,1.103,0.839,1.803,0.948c7.494,1.172,15.914,0.639,21.541-4.447c1.418-1.282,2.645-2.901,2.948-4.788
				C477.392,237.533,474.295,234.239,471.08,232.266z"/>
			<g>
				<path style="fill:#A0603F;" d="M367.23,195.857c-5.98,11.941-4.242,27.334,4.25,37.64c-6.096,1.334-12.799,3.067-16.256,8.262
					c-0.763,1.147-1.237,2.891-0.156,3.745c0.473,0.374,1.11,0.443,1.711,0.493c11.15,0.927,22.449,0.048,33.321-2.595
					c1.029-0.25,2.105-0.544,2.859-1.286c0.952-0.937,1.182-2.372,1.858-3.525c1.43-2.437,4.504-3.203,7.052-4.424
					c10.995-5.267,12.513-17.391,9.735-27.928c-1.788-6.782-4.048-13.439-6.76-19.906c-1.073-2.559-2.304-5.201-4.522-6.867
					c-5.66-4.251-13.889-1.141-19.268,1.971C375.211,184.816,370.263,189.801,367.23,195.857z"/>
				<path style="fill:none;stroke:#47112C;stroke-width:0.5;stroke-linecap:round;stroke-linejoin:round;stroke-miterlimit:10;" d="
					M356.868,245.669c0.013-1.191,0.601-2.363,1.549-3.085"/>
				<path style="fill:none;stroke:#47112C;stroke-width:0.5;stroke-linecap:round;stroke-linejoin:round;stroke-miterlimit:10;" d="
					M360.505,246.044c0.171-1.225,0.973-2.344,2.077-2.901"/>
				<path style="fill:none;stroke:#47112C;stroke-width:0.5;stroke-linecap:round;stroke-linejoin:round;stroke-miterlimit:10;" d="
					M372.757,233.993c2.921,1.031,6.031,1.521,9.128,1.437"/>
			</g>
			<g>
				<path style="fill:#A0603F;" d="M340.372,173.45c0.49,18.963,2.696,37.936,1.349,56.858c-0.268,3.765-0.981,9.714-3.05,12.972
					c-0.724,1.141-1.899,1.908-2.814,2.901c-0.915,0.994-1.581,2.467-0.984,3.679c0.711,1.444,2.677,1.62,4.282,1.492
					c1.704-0.136,3.398-0.39,5.067-0.759c1.287-0.285,2.609-0.665,3.592-1.542c0.89-0.793,1.41-1.912,1.873-3.01
					c4.065-9.641,5.33-20.238,7.51-30.411c2.396-11.179,4.981-22.317,7.753-33.409c1.303-5.212,2.657-10.512,2.368-15.876
					c-0.487-9.031-7.548-18.331-17.606-15.687C340.835,152.993,340.185,166.229,340.372,173.45z"/>
				<path style="fill:none;stroke:#47112C;stroke-width:0.5;stroke-linecap:round;stroke-linejoin:round;stroke-miterlimit:10;" d="
					M339.785,251.131c-0.477-1.523-0.031-3.297,1.11-4.413"/>
				<path style="fill:none;stroke:#47112C;stroke-width:0.5;stroke-linecap:round;stroke-linejoin:round;stroke-miterlimit:10;" d="
					M335.77,250.459c-0.376-1.189,0.094-2.596,1.11-3.32"/>
				<path style="fill:none;stroke:#47112C;stroke-width:0.5;stroke-linecap:round;stroke-linejoin:round;stroke-miterlimit:10;" d="
					M339.72,243.487c1.128,0.178,2.264,0.301,3.404,0.368"/>
			</g>
			<path style="fill:#AD6B4A;" d="M340.475,157.61c0.333,12.229,4.844,24.938,14.568,32.362c9.132,6.972,21.291,8.331,31.636,13.329
				c1.415,0.684,2.825,1.457,3.894,2.61c1.544,1.665,2.22,3.941,2.719,6.156c1.301,5.783,1.717,11.765,1.228,17.672
				c-0.325,3.924-0.783,8.563,2.215,11.117c1.081,0.921,2.466,1.399,3.839,1.76c8.603,2.261,18.18,0.474,25.388-4.739
				c2.083-1.507,4.012-3.332,5.152-5.635c1.046-2.111,1.372-4.5,1.569-6.848c1.275-15.199-2.313-30.514-8.358-44.517
				c-6.046-14.003-14.488-26.831-23.303-39.278c-2.248-3.174-4.51-6.346-6.565-9.627c-1.86-2.97-4.481-5.578-6.57-8.425
				c-4.346-5.921-8.079-12.416-9.936-19.571c-0.329-1.267-0.654-3.498-2.201-3.618c-1.333-0.104-3.765,1.4-5.019,1.89
				c-2.345,0.917-4.962,1.718-7.137,3.009c-5.579,3.312-10.406,7.743-14.225,12.982C342.001,128.344,340.144,145.459,340.475,157.61
				z"/>
			<path style="fill:#E0AE89;" d="M374.237,187.271c-7.88-9.072-11.817-21.457-10.622-33.414c0.573-5.727,2.254-11.279,3.306-16.937
				c0.806-4.331,1.242-8.778,0.656-13.144c-0.587-4.366-2.258-8.67-5.25-11.903c-1.14-1.231-2.131-2.47-3.073-3.69
				c-3.764,2.843-7.096,6.231-9.886,10.058c-7.367,10.104-9.224,27.219-8.893,39.369c0.333,12.229,4.844,24.938,14.568,32.362
				c9.132,6.972,21.291,8.331,31.636,13.329c0.76,0.367,1.514,0.767,2.219,1.23c-1.127-2.473-2.746-4.765-4.534-6.821
				C381.181,194.051,377.417,190.932,374.237,187.271z"/>
			<path style="fill:#235879;" d="M355.655,139.78c5.936-1.113,11.491-3.819,16.444-7.275c4.1-2.861,8.26-6.439,10.579-10.957
				c1.782-3.472,1.823-8.095-1.256-10.932c-0.25-0.23-0.56-0.454-0.897-0.409c-0.303,0.041-0.531,0.287-0.73,0.519
				c-5.1,5.921-9.15,12.528-15.892,16.812c-5.082,3.228-11.214,4.992-17.187,4.238c-1.341-0.169-2.217-0.086-3.458,0.294
				c-0.206,0.063-0.356,0.237-0.49,0.406c-0.867,1.092-1.598,2.384-1.6,3.778C341.159,141.965,352.316,140.406,355.655,139.78z"/>
			<g>
				<path style="fill:#935535;" d="M344.248,70.348c-1.369-1.685-3.243-3.553-5.349-3.032c-1.091,0.27-1.913,1.136-2.746,1.892
					c-2.356,2.138-5.275,3.648-8.381,4.337c-0.872,0.193-1.792,0.337-2.517,0.86c-0.693,0.499-1.116,1.281-1.517,2.035
					c-2.313,4.357-4.626,8.713-6.939,13.07c-0.559,1.053-1.071,2.484-0.214,3.313c0.389,0.377,0.958,0.493,1.497,0.549
					c5.648,0.592,10.596-3.374,15.659-5.946c0.791-0.402,1.664-0.782,2.536-0.621c1.087,0.2,1.862,1.18,2.892,1.58
					c1.189,0.462,2.579,0.071,3.594-0.702c1.015-0.773,1.72-1.878,2.351-2.986c1.412-2.481,2.738-5.409,2.613-8.334
					C347.618,73.812,345.804,72.262,344.248,70.348z"/>
				<path style="fill:#AD6B4A;" d="M346.967,72.722c-2.607-0.121-5.246,0.042-7.606,1.295c-0.96,0.509-1.737,1.297-2.498,2.072
					c-2.981,3.036-6.064,6.191-7.934,10.066c-1.982,4.105-1.281,8.381-0.947,12.793c0.235,3.109,0.405,6.394-0.995,9.18
					c-1.339,2.664-3.723,4.643-4.414,7.658c-0.763,3.327,0.01,7.419,0.74,10.712c0.419,1.89,1.151,3.964,2.902,4.791
					c1.867,0.882,4.078-0.03,6.127,0.223c2.51,0.31,4.472,2.307,6.863,3.131c4.25,1.465,8.776-0.98,12.519-3.469
					c4.62-3.072,8.816-6.885,13.462-9.865c4.158-2.666,8.995-3.921,12.859-7.32c6.997-6.155,8.741-15.842,7.587-24.832
					c-0.616-4.795-2.811-9.583-6.782-12.34c-4.382-3.041-10.084-3.17-15.417-3.188c-4.521-0.016-9.034-0.303-13.536-0.693
					C348.935,72.854,347.954,72.767,346.967,72.722z"/>
				<path style="fill:#F0C198;" d="M359.882,112.85c-4.094-1.404-8.969-0.551-12.505-3.047c-2.93-2.068-4.076-5.988-3.757-9.56
					c0.367-4.116,2.271-8.149,2.934-12.307c0.126-0.791,0.236-1.622-0.03-2.378c-0.266-0.756-1.03-1.399-1.817-1.251
					c-0.731,0.138-1.185,0.856-1.521,1.52c-1.95,3.847-2.944,8.094-3.973,12.283c-0.492,2.005-1.016,4.052-2.171,5.763
					c-1.796,2.662-6.51,4.994-9.982,4.093c-0.025,0.053-0.047,0.107-0.074,0.159c-1.34,2.664-3.723,4.643-4.414,7.658
					c-0.763,3.327,0.01,7.419,0.74,10.712c0.419,1.89,1.151,3.964,2.902,4.791c1.867,0.882,4.078-0.03,6.127,0.223
					c2.51,0.31,4.472,2.307,6.863,3.131c4.25,1.465,8.776-0.98,12.519-3.469c4.62-3.072,8.816-6.885,13.462-9.865
					c0.597-0.383,1.209-0.735,1.829-1.07C365.842,116.89,363.253,114.007,359.882,112.85z"/>
				<path style="fill:#935535;" d="M374.503,71.084c-1.212-0.293-2.427-0.66-3.674-0.644c-1.247,0.016-2.568,0.492-3.243,1.542
					c-0.715,1.112-0.537,2.609,0.065,3.785c0.602,1.177,1.566,2.119,2.453,3.098c3.465,3.828,5.947,8.539,7.143,13.562
					c0.405,1.701,0.748,3.582,2.088,4.706c1.413,1.186,3.577,1.11,5.209,0.252c1.633-0.858,2.829-2.354,3.862-3.882
					c1.497-2.217,2.754-4.595,3.743-7.08c1.28-3.216,2.109-6.805,1.142-10.129C390.574,66.951,381.006,72.655,374.503,71.084z"/>
				<path style="fill:#3C1A2B;" d="M357.346,102.953c0,1.67-1.354,3.024-3.024,3.024c-1.67,0-3.024-1.354-3.024-3.024
					c0-1.67,1.354-3.024,3.024-3.024C355.992,99.93,357.346,101.283,357.346,102.953z"/>
				<path style="fill:#3C1A2B;" d="M335.799,101.674c0,1.67-0.866,3.024-1.933,3.024s-1.933-1.354-1.933-3.024
					c0-1.67,0.865-3.024,1.933-3.024S335.799,100.004,335.799,101.674z"/>
				<path style="fill:none;stroke:#47112C;stroke-width:0.5;stroke-linecap:round;stroke-linejoin:round;stroke-miterlimit:10;" d="
					M330.704,120.739c-0.215,3.543,0.579,7.142,2.266,10.266"/>
				<path style="fill:#F97A5A;" d="M325.981,113.845c-0.853,0.805-0.884,2.128-0.856,3.3c0.01,0.407,0.026,0.837,0.241,1.183
					c0.383,0.616,1.22,0.726,1.944,0.753c0.343,0.012,0.704,0.025,0.999,0.202c0.459,0.276,0.614,0.853,0.775,1.364
					c0.167,0.529,0.39,1.057,0.781,1.45c0.391,0.393,0.981,0.626,1.513,0.468c1.373-0.409,1.411-2.895,2.841-2.986
					c0.271-0.017,0.537,0.068,0.8,0.135c0.834,0.21,1.772,0.219,2.495-0.247c1.208-0.779,1.298-2.669,0.434-3.819
					C336.391,113.578,327.969,111.968,325.981,113.845z"/>
				<path style="fill:none;stroke:#47112C;stroke-width:0.5;stroke-linecap:round;stroke-linejoin:round;stroke-miterlimit:10;" d="
					M334.035,119.573c0.447-0.48,0.925-0.947,1.504-1.256c0.579-0.309,1.278-0.445,1.9-0.237"/>
				<path style="fill:none;stroke:#47112C;stroke-width:0.5;stroke-linecap:round;stroke-linejoin:round;stroke-miterlimit:10;" d="
					M328.348,119.131c-0.496-0.861-1.026-1.759-1.878-2.271"/>
				<g>
					<circle style="fill:#7A4024;" cx="327.409" cy="123.72" r="0.532"/>
					<path style="fill:#7A4024;" d="M326.877,127.257c0,0.294-0.238,0.532-0.533,0.532c-0.294,0-0.532-0.238-0.532-0.532
						c0-0.294,0.238-0.532,0.532-0.532C326.638,126.724,326.877,126.963,326.877,127.257z"/>
				</g>
				<g>
					<path style="fill:#7A4024;" d="M336.863,124.785c0,0.294-0.238,0.533-0.532,0.533c-0.294,0-0.532-0.238-0.532-0.533
						c0-0.294,0.238-0.532,0.532-0.532C336.625,124.252,336.863,124.491,336.863,124.785z"/>
					<path style="fill:#7A4024;" d="M339.052,128.321c0,0.294-0.238,0.532-0.532,0.532c-0.294,0-0.533-0.238-0.533-0.532
						c0-0.294,0.238-0.532,0.533-0.532C338.814,127.789,339.052,128.027,339.052,128.321z"/>
					<circle style="fill:#7A4024;" cx="340.3" cy="125.871" r="0.532"/>
				</g>
			</g>
			<path style="fill:#F9A048;" d="M354.108,143.631c0,2.527-2.048,4.575-4.575,4.575c-2.526,0-4.575-2.048-4.575-4.575
				c0-2.526,2.048-4.574,4.575-4.574C352.06,139.057,354.108,141.105,354.108,143.631z"/>
			<g>
				<path style="fill:#AD6B4A;" d="M368.478,177.592c0.49,18.963,2.696,37.936,1.349,56.858c-0.268,3.765-0.981,9.714-3.05,12.972
					c-0.724,1.141-1.899,1.908-2.814,2.901c-0.915,0.994-1.581,2.467-0.984,3.679c0.711,1.444,2.677,1.62,4.282,1.492
					c1.704-0.136,3.398-0.39,5.067-0.759c1.287-0.285,2.609-0.665,3.592-1.542c0.89-0.793,1.41-1.911,1.873-3.01
					c4.065-9.641,5.33-20.238,7.51-30.411c2.396-11.179,4.981-22.317,7.753-33.409c1.303-5.212,2.657-10.512,2.368-15.876
					c-0.487-9.031-7.549-18.331-17.606-15.687C368.941,157.135,368.291,170.371,368.478,177.592z"/>
				<path style="fill:none;stroke:#47112C;stroke-width:0.5;stroke-linecap:round;stroke-linejoin:round;stroke-miterlimit:10;" d="
					M368.023,255.329c-0.334-1.344,0.239-2.866,1.377-3.656"/>
				<path style="fill:none;stroke:#47112C;stroke-width:0.5;stroke-linecap:round;stroke-linejoin:round;stroke-miterlimit:10;" d="
					M364.02,255.105c-0.291-1.39,0.14-2.91,1.117-3.94"/>
				<path style="fill:none;stroke:#47112C;stroke-width:0.5;stroke-linecap:round;stroke-linejoin:round;stroke-miterlimit:10;" d="
					M368.952,247.921c1.121,0.242,2.242,0.484,3.363,0.726"/>
				<path style="fill:none;stroke:#47112C;stroke-width:0.5;stroke-linecap:round;stroke-linejoin:round;stroke-miterlimit:10;" d="
					M369.439,196.642c-0.324-8.783-0.648-17.566-0.973-26.349"/>
			</g>
			<path style="fill:none;stroke:#47112C;stroke-width:0.5;stroke-linecap:round;stroke-linejoin:round;stroke-miterlimit:10;" d="
				M342.98,173.593c3.351,8.817,10.288,16.21,18.875,20.113c0.201,0.091,0.437,0.236,0.416,0.456
				c-0.02,0.219-0.477,0.131-0.335-0.038"/>
			<g>
				<path style="fill:#AD6B4A;" d="M393.212,205.929c-5.98,11.941-4.242,27.334,4.25,37.64c-6.096,1.334-12.799,3.067-16.256,8.262
					c-0.763,1.147-1.237,2.891-0.156,3.745c0.473,0.374,1.11,0.443,1.711,0.493c11.15,0.927,22.449,0.048,33.321-2.595
					c1.029-0.25,2.105-0.544,2.859-1.286c0.952-0.937,1.182-2.373,1.858-3.525c1.43-2.437,4.504-3.203,7.052-4.424
					c10.995-5.267,12.513-17.391,9.735-27.928c-1.788-6.782-4.048-13.438-6.76-19.906c-1.073-2.559-2.304-5.201-4.522-6.867
					c-5.66-4.251-13.889-1.141-19.268,1.971C401.193,194.888,396.245,199.873,393.212,205.929z"/>
				<path style="fill:none;stroke:#47112C;stroke-width:0.5;stroke-linecap:round;stroke-linejoin:round;stroke-miterlimit:10;" d="
					M382.85,255.742c0.013-1.191,0.601-2.363,1.549-3.085"/>
				<path style="fill:none;stroke:#47112C;stroke-width:0.5;stroke-linecap:round;stroke-linejoin:round;stroke-miterlimit:10;" d="
					M386.487,256.117c0.171-1.225,0.973-2.344,2.077-2.901"/>
				<path style="fill:none;stroke:#47112C;stroke-width:0.5;stroke-linecap:round;stroke-linejoin:round;stroke-miterlimit:10;" d="
					M398.739,244.065c2.921,1.031,6.031,1.521,9.128,1.437"/>
				<path style="fill:none;stroke:#47112C;stroke-width:0.5;stroke-linecap:round;stroke-linejoin:round;stroke-miterlimit:10;" d="
					M437.764,216.469c1.359,5.009,1.536,10.335,0.513,15.424"/>
			</g>
			<path style="fill:#F0C198;" d="M401.02,141.601c-1.758-2.483-3.547-4.991-5.297-7.533c-0.444,4.798-1.667,9.746-0.251,14.299
				c1.146,3.687,3.9,6.657,5.424,10.204c3.116,7.25,1.075,16.683,6.488,22.425c4.384,4.65,11.813,4.729,17.09,8.334
				c1.509,1.031,2.821,2.334,4.25,3.469c-1.247-4.053-2.725-8.038-4.401-11.92C418.278,166.876,409.835,154.047,401.02,141.601z"/>
			<path style="fill:#F0C198;" d="M419.551,209.072c1.381,2.241,3.754,4.515,6.282,3.779c1.454-0.423,2.48-1.793,2.893-3.25
				c0.413-1.457,0.312-3.005,0.171-4.513c-0.338-3.627-0.941-7.377-2.999-10.382c-2.186-3.191-7.743-6.417-10.029-1.974
				C413.605,197.135,417.254,205.342,419.551,209.072z"/>
		</g>
		<path style="fill:none;stroke:#47112C;stroke-width:0.5;stroke-linecap:round;stroke-linejoin:round;stroke-miterlimit:10;" d="
			M352.971,90.963c3.086-1.784,7.572-0.333,9.028,2.92"/>
		<path style="fill:none;stroke:#47112C;stroke-width:0.5;stroke-linecap:round;stroke-linejoin:round;stroke-miterlimit:10;" d="
			M330.056,90.797c0.473-0.802,0.963-1.625,1.699-2.195c0.737-0.57,1.788-0.835,2.613-0.404c0.791,0.413,1.273,1.389,2.154,1.531"/>
		<path style="fill:none;stroke:#47112C;stroke-width:0.5;stroke-linecap:round;stroke-linejoin:round;stroke-miterlimit:10;" d="
			M357.369,127.353c1.644-2.555,2.304-5.726,1.816-8.724"/>
		<path style="fill:none;stroke:#47112C;stroke-width:0.5;stroke-linecap:round;stroke-linejoin:round;stroke-miterlimit:10;" d="
			M357.291,119.704c1.003-1.08,2.529-1.651,3.995-1.495"/>
		<path style="fill:none;stroke:#47112C;stroke-width:0.5;stroke-linecap:round;stroke-linejoin:round;stroke-miterlimit:10;" d="
			M338.616,74.585c-1.383-0.098-2.804-0.132-4.121,0.301c-3.16,1.039-4.843,4.353-6.712,7.105c-0.894,1.316-1.896,2.559-2.993,3.711
			c-0.881,0.925-1.873,1.821-3.103,2.169"/>
		<path style="fill:none;stroke:#47112C;stroke-width:0.5;stroke-linecap:round;stroke-linejoin:round;stroke-miterlimit:10;" d="
			M379.63,73.23c2.881,2.546,3.113,6.93,5.063,10.243"/>
	</g>
	<g>
		<g>
			<path style="fill:#D4783A;" d="M175.965,315.221c9.374-0.437,13.361-11.074,13.787-18.993c0.31-5.765-0.828-11.51-2.282-17.098
				c-0.203-0.781-0.393-1.682,0.079-2.338c1.552-2.155,5.601,8.158,5.96,9.171c1.826,5.152,2.644,10.663,2.361,16.123
				c-0.351,6.756-3.362,13.298-7.753,18.4c-4.92,5.717-12.529,8.504-19.808,6.173c-3.192-1.022-6.329-2.643-8.33-5.332
				c-2.258-3.034-3.083-9.052,1.571-10.218C165.975,309.999,171.143,315.446,175.965,315.221z"/>
			<path style="fill:#D99A5C;" d="M193.509,285.963c-0.359-1.013-4.408-11.325-5.96-9.17c-0.472,0.656-0.282,1.557-0.079,2.338
				c1.454,5.587,2.592,11.333,2.282,17.098c-0.267,4.967-1.936,11-5.454,14.918c0.147,0.342,0.365,0.63,0.703,0.78
				c0.63,0.28,1.348-0.071,1.947-0.413c0.924-0.527,1.848-1.055,2.771-1.582c0.429-0.245,0.956-0.494,1.392-0.262
				c0.317,0.168,0.465,0.533,0.618,0.857c0.35,0.738,0.887,1.41,1.556,1.865c1.472-3.258,2.399-6.752,2.583-10.307
				C196.153,296.625,195.334,291.115,193.509,285.963z"/>
			<g>
				<path style="fill:#D4783A;" d="M145.372,369.066c-0.599,4.289-1.372,8.62-0.895,12.925c0.313,2.823,1.157,5.558,1.634,8.358
					c1.64,9.639-1.135,19.42-1.751,29.179c-0.279,4.427,0.144,14.151-4.847,16.171c-2.002,0.811-4.246,0.679-6.399,0.501
					c-1.334-0.111-2.889-0.376-3.501-1.567c-0.315-0.613-0.294-1.342-0.208-2.027c0.611-4.889,4.041-7.512,4.009-12.762
					c-0.026-4.244-0.052-8.488-0.078-12.732c-0.052-8.521-3.832-13.904-6.737-21.761c-3.209-8.682-5.748-17.594-8.288-26.49
					c-2.135-7.478-4.281-15.397-2.308-22.92c1.992-7.591,9.355-17.804,17.8-18.761c6.12-0.693,7.674,5.244,9.249,10.121
					C147.382,340.715,147.305,355.232,145.372,369.066z"/>
				<path style="fill:none;stroke:#790D00;stroke-width:0.5;stroke-linecap:round;stroke-linejoin:round;stroke-miterlimit:10;" d="
					M131.979,435.888c-0.353-1.235-0.299-2.582,0.151-3.786"/>
				<path style="fill:none;stroke:#790D00;stroke-width:0.5;stroke-linecap:round;stroke-linejoin:round;stroke-miterlimit:10;" d="
					M135.381,436.002c0.084-1.129,0.398-2.24,0.916-3.247"/>
				<path style="fill:none;stroke:#790D00;stroke-width:0.5;stroke-linecap:round;stroke-linejoin:round;stroke-miterlimit:10;" d="
					M134.658,428.263c1.249-0.182,2.515-0.243,3.776-0.181"/>
				<path style="fill:none;stroke:#790D00;stroke-width:0.5;stroke-linecap:round;stroke-linejoin:round;stroke-miterlimit:10;" d="
					M133.316,393.933c1.658,1.164,3.798,1.617,5.785,1.224"/>
			</g>
			<g>
				<path style="fill:#D99A5C;" d="M79.497,351.045c0.066,0.308,0.135,0.616,0.206,0.923c1.476,6.415,3.892,12.757,8.137,17.948
					c9.758,11.931,28.3,12.948,41.372,5.214c4.491-2.657,9.863-5.927,13.66-9.401c3.711-3.395,6.388-7.72,10.689-10.545
					c3.922-2.577,8.756-3.619,12.834-5.969c7.846-4.52,11.989-13.93,10.373-22.472c-1.616-8.542-8.628-15.829-17.301-18.657
					c-4.965-1.619-11.002-2.539-16.201-2.58c-5.212-0.042-9.725-0.276-14.351-3.07c-2.59-1.565-4.844-3.639-7.443-5.187
					c-3.581-2.133-7.02-1.771-10.945-2.138c-3.968-0.372-8.014,0.413-11.71,1.845c-3.405,1.32-5.618,2.823-7.957,5.771
					C79.959,316.463,75.815,333.958,79.497,351.045z"/>
				<path style="fill:#F9AD33;" d="M94.597,322.293c3.777,1.97,8.074,3.445,12.351,2.879c2.959-0.391,5.688-1.733,8.184-3.289
					c4.241-2.645,7.411-6.064,9.79-10.526c1.137-2.132,4.271-9.383,1.733-11.34c-0.343-0.265-1.485-0.156-1.93-0.275
					c-1.084-0.289-2.161-0.885-3.205-1.301c-2.313-0.92-4.643-1.801-7.019-2.547c-5.078-1.593-10.728-0.86-15.684,1.062
					c-4.338,1.682-9.77,3.271-12.529,7.364c-2.596,3.852-0.7,10.225,2.372,13.172C90.579,319.333,92.228,321.058,94.597,322.293z"/>
				<path style="fill:#F9D672;" d="M108.661,329.301c0.051,2.858-2.224,5.216-5.081,5.267c-2.858,0.051-5.216-2.224-5.267-5.081
					c-0.051-2.858,2.224-5.216,5.081-5.267C106.252,324.168,108.61,326.443,108.661,329.301z"/>
			</g>
			<g>
				<path style="fill:#D99A5C;" d="M99.956,351.116c-1.741-4.294-4.887-7.952-8.742-10.496c-1.951-1.288-4.09-2.296-6.332-2.961
					c-2.382-0.707-4.481-1.813-6.518-3.417c-1.324,10.337-1.939,21.516-1.068,31.912c1.076,12.836,3.286,25.544,4.428,38.373
					c0.91,10.214,2.993,22.809-1.158,32.566c-1.323,3.109-4.014,4.044-4.454,7.667c-0.096,0.786-0.102,1.655,0.381,2.283
					c0.541,0.704,1.515,0.879,2.399,0.966c2.14,0.211,4.301,0.208,6.44-0.01c1.086-0.11,2.204-0.29,3.117-0.887
					c1.266-0.828,1.929-2.324,2.291-3.793c0.592-2.401,0.905-4.74,1.101-7.193c1.546-19.332,4.174-38.577,7.87-57.615
					C101.478,369.411,103.439,359.707,99.956,351.116z"/>
				<path style="fill:#D4783A;" d="M90.377,423.229c-1.017,1.266-2.801,2.363-4.181,1.508c-0.521-0.323-0.862-0.867-1.331-1.262
					c-0.52-0.439-1.166-0.579-1.811-0.513c-0.04,4.964-0.655,9.824-2.487,14.132c-1.323,3.109-4.014,4.044-4.454,7.667
					c-0.096,0.786-0.102,1.655,0.381,2.283c0.541,0.704,1.515,0.879,2.399,0.966c2.14,0.211,4.3,0.208,6.44-0.01
					c1.085-0.11,2.204-0.29,3.117-0.887c1.266-0.828,1.929-2.324,2.291-3.793c0.592-2.401,0.905-4.74,1.101-7.193
					c0.428-5.355,0.948-10.702,1.542-16.041C92.099,420.701,91.293,422.089,90.377,423.229z"/>
				<path style="fill:none;stroke:#790D00;stroke-width:0.5;stroke-linecap:round;stroke-linejoin:round;stroke-miterlimit:10;" d="
					M78.991,447.467c-0.326-1.306-0.197-2.722,0.36-3.947"/>
				<path style="fill:none;stroke:#790D00;stroke-width:0.5;stroke-linecap:round;stroke-linejoin:round;stroke-miterlimit:10;" d="
					M84.135,448.018c-0.289-1.614-0.05-3.317,0.669-4.79"/>
				<path style="fill:none;stroke:#790D00;stroke-width:0.5;stroke-linecap:round;stroke-linejoin:round;stroke-miterlimit:10;" d="
					M82.746,438.359c1.448,0.024,2.897,0.048,4.345,0.073"/>
			</g>
			<g>
				<path style="fill:#D99A5C;" d="M121.177,351.054c1.809-4.266,5.012-7.874,8.907-10.357c1.972-1.257,4.126-2.231,6.378-2.861
					c2.393-0.67,4.786-0.683,6.848-2.255c1.161,10.357,1.323,20.484,0.287,30.866c-1.278,12.817-3.689,25.489-5.034,38.298
					c-1.071,10.198-3.352,22.759,0.643,32.581c1.274,3.13,3.95,4.107,4.333,7.737c0.083,0.788,0.076,1.656-0.417,2.276
					c-0.552,0.695-1.529,0.855-2.414,0.928c-2.143,0.177-4.303,0.14-6.439-0.111c-1.084-0.128-2.199-0.325-3.103-0.936
					c-1.253-0.848-1.892-2.354-2.231-3.829c-0.554-2.411-0.83-4.753-0.988-7.209c-1.24-19.354-3.565-38.638-6.96-57.732
					C119.367,369.323,117.559,359.589,121.177,351.054z"/>
				<path style="fill:#D4783A;" d="M127.806,423.069c-0.286-0.157-0.589-0.248-0.898-0.312c0.403,4.471,0.755,8.946,1.042,13.426
					c0.157,2.456,0.433,4.799,0.988,7.209c0.339,1.475,0.978,2.981,2.231,3.829c0.904,0.612,2.019,0.809,3.103,0.936
					c2.136,0.251,4.296,0.289,6.439,0.111c0.885-0.073,1.861-0.233,2.414-0.928c0.493-0.62,0.5-1.489,0.417-2.276
					c-0.383-3.629-3.059-4.607-4.333-7.737c-1.141-2.803-1.758-5.834-2.049-8.965c-2.04-0.308-4.285-0.193-5.886-1.478
					C129.923,425.8,129.322,423.902,127.806,423.069z"/>
				<path style="fill:none;stroke:#790D00;stroke-width:0.5;stroke-linecap:round;stroke-linejoin:round;stroke-miterlimit:10;" d="
					M140.619,447.724c0.347-1.301,0.24-2.718-0.298-3.952"/>
				<path style="fill:none;stroke:#790D00;stroke-width:0.5;stroke-linecap:round;stroke-linejoin:round;stroke-miterlimit:10;" d="
					M135.466,448.194c0.314-1.609,0.103-3.316-0.594-4.801"/>
				<path style="fill:none;stroke:#790D00;stroke-width:0.5;stroke-linecap:round;stroke-linejoin:round;stroke-miterlimit:10;" d="
					M137.008,438.558c-1.449,0.001-2.897,0.003-4.346,0.004"/>
			</g>
			<path style="fill:none;stroke:#790D00;stroke-width:0.5;stroke-linecap:round;stroke-linejoin:round;stroke-miterlimit:10;" d="
				M99.641,377.369c-6.184-4.397-10.881-10.848-13.167-18.084"/>
			<g>
				<path style="fill:#D99A5C;" d="M180.507,370.431c-0.599,4.289-1.372,8.62-0.895,12.925c0.313,2.823,1.158,5.558,1.634,8.358
					c1.64,9.639-1.135,19.42-1.751,29.179c-0.279,4.427,0.144,14.151-4.847,16.171c-2.003,0.811-4.246,0.68-6.4,0.501
					c-1.334-0.111-2.889-0.376-3.501-1.567c-0.316-0.613-0.294-1.342-0.209-2.027c0.611-4.889,4.041-7.512,4.009-12.763
					c-0.026-4.244-0.052-8.488-0.078-12.732c-0.052-8.521-3.832-13.904-6.737-21.761c-3.21-8.683-5.748-17.594-8.288-26.49
					c-2.135-7.478-4.281-15.397-2.308-22.92c1.992-7.591,9.355-17.804,17.8-18.761c6.12-0.693,7.674,5.244,9.249,10.121
					C182.516,342.08,182.439,356.597,180.507,370.431z"/>
				<path style="fill:none;stroke:#790D00;stroke-width:0.5;stroke-linecap:round;stroke-linejoin:round;stroke-miterlimit:10;" d="
					M167.113,437.252c-0.352-1.235-0.299-2.582,0.151-3.785"/>
				<path style="fill:none;stroke:#790D00;stroke-width:0.5;stroke-linecap:round;stroke-linejoin:round;stroke-miterlimit:10;" d="
					M170.516,437.366c0.084-1.129,0.398-2.24,0.917-3.246"/>
				<path style="fill:none;stroke:#790D00;stroke-width:0.5;stroke-linecap:round;stroke-linejoin:round;stroke-miterlimit:10;" d="
					M169.793,429.628c1.249-0.182,2.515-0.243,3.776-0.181"/>
				<path style="fill:none;stroke:#790D00;stroke-width:0.5;stroke-linecap:round;stroke-linejoin:round;stroke-miterlimit:10;" d="
					M168.45,395.298c1.658,1.164,3.798,1.617,5.785,1.224"/>
			</g>
			<path style="fill:none;stroke:#790D00;stroke-width:0.5;stroke-linecap:round;stroke-linejoin:round;stroke-miterlimit:10;" d="
				M151.547,356.617c2.552-2.742,5.706-4.92,9.174-6.336c1.128-0.461,2.338-0.873,3.158-1.775"/>
			<g>
				<path style="fill:#D99A5C;" d="M88.779,251.018c-5.038,4.102-6.245,10.891-7.854,16.679c-0.965,3.471-2.315,6.822-3.255,10.3
					c-0.876,3.241-0.698,6.688-0.807,10.063c-0.046,1.438-0.092,2.888,0.141,4.308c0.932,5.682,5.515,7.831,8.596,12.031
					c2.909,3.965,4.904,7.737,9.682,9.959c5.41,2.515,11.916,1.783,17.311-0.764c2.374-1.121,5.056-2.535,6.647-4.603
					c1.451-1.886,2.533-3.728,4.321-5.39c3.303-3.071,7.372-5.673,9.303-9.915c1.906-4.188,1.042-8.532,0.333-12.867
					c-0.628-3.838-0.391-7.591-1.534-11.454c-1.206-4.077-2.505-8.15-4.423-11.944c-1.202-2.378-2.741-4.73-5.072-6.023
					c-4.794-2.66-12.075-1.025-17.414-1.723C99.581,248.999,93.232,247.393,88.779,251.018z"/>
				<path style="fill:#D4783A;" d="M105.937,277.15c-0.607,2.056-0.837,4.358,0.115,6.278c0.771,1.554,2.206,2.653,3.331,3.973
					c1.411,1.655,2.336,3.667,3.625,5.419c1.289,1.752,3.131,3.317,5.304,3.412c1.756,0.077,3.414-0.823,4.791-1.916
					c1.135-0.901,2.166-1.973,2.804-3.273c1.475-3.008,0.617-6.583-0.268-9.814c-0.63-2.301-1.26-4.601-1.89-6.902
					c-0.433-1.58-0.871-3.174-1.622-4.63c-0.751-1.456-1.85-2.783-3.313-3.521c-2.989-1.507-5.849,0.792-7.901,2.787
					C108.597,271.212,106.852,274.052,105.937,277.15z"/>
				<path style="fill:#AD622E;" d="M93.506,249.223c-0.573-1.316-1.741-2.251-3.744-2.272c-1.31-0.014-2.508,0.69-3.616,1.39
					c-1.753,1.107-3.527,2.284-5.553,2.726c-1.376,0.301-2.81,0.248-4.186,0.55c-5.834,1.282-8.441,8.227-7.169,13.574
					c0.437,1.837,1.21,3.577,1.687,5.404c0.796,3.05,0.745,6.246,0.873,9.396c0.053,1.298,0.465,2.961,1.757,3.088
					c0.444,0.043,0.879-0.128,1.277-0.329c2.23-1.124,3.847-3.225,4.866-5.505c1.689-3.779,2.261-6.814,4.707-10.228
					c2.729-3.809,6.352-7.007,8.521-11.206C93.903,253.919,94.349,251.159,93.506,249.223z"/>
				<path style="fill:#AD622E;" d="M120.591,250.521c2.004-0.133,3.936,0.7,5.735,1.594s3.612,1.885,5.609,2.105
					c2.733,0.302,5.851-0.794,8.044,0.864c2.254,1.703,1.961,5.124,1.357,7.883c-1.427,6.525-3.544,13.307-8.519,17.764
					c-0.498,0.446-1.077,0.886-1.745,0.892c-0.899,0.009-1.599-0.754-2.115-1.49c-1.21-1.726-2.116-3.665-2.662-5.701
					c-0.548-2.043-0.741-4.186-1.516-6.154c-1.016-2.577-2.951-4.659-4.61-6.877C117.901,258.375,113.795,250.972,120.591,250.521z"
					/>
				<path style="fill:#412317;" d="M118.418,282.65c0.03,1.67-1.299,3.048-2.969,3.078c-1.67,0.03-3.048-1.299-3.078-2.969
					s1.299-3.048,2.969-3.078S118.388,280.981,118.418,282.65z"/>
				<path style="fill:#412317;" d="M94.481,281.019c0.03,1.67-1.299,3.048-2.969,3.078c-1.67,0.03-3.048-1.299-3.078-2.969
					c-0.03-1.67,1.299-3.047,2.969-3.077C93.073,278.02,94.451,279.35,94.481,281.019z"/>
				<path style="fill:none;stroke:#790D00;stroke-width:0.5;stroke-linecap:round;stroke-linejoin:round;stroke-miterlimit:10;" d="
					M85.202,273.287c2.534-2.6,6.88-3.196,10.02-1.373"/>
				<path style="fill:none;stroke:#790D00;stroke-width:0.5;stroke-linecap:round;stroke-linejoin:round;stroke-miterlimit:10;" d="
					M111.275,273.408c3.873-0.91,8.209,0.586,10.696,3.691"/>
				<path style="fill:#412317;" d="M93.898,301.595c1.762,1.058,4.15,1.346,5.819,0.147c0.7-0.502,1.273-1.251,2.112-1.447
					c1.242-0.29,2.35,0.734,3.454,1.372c2.037,1.178,4.611,1.096,6.836,0.33c1.348-0.464,2.591-1.256,3.828-1.96
					c0.286,0.329,0.55,0.677,0.788,1.042c-0.005-0.01-3.027,2.907-3.308,3.151c-1.191,1.035-2.503,1.94-3.873,2.722
					c-5.278,3.01-12.14,2.318-16.189-2.283c-1.288-1.464-2.283-3.129-3.227-4.825c-0.227-0.408-0.457-0.832-0.499-1.296
					c0.303-0.128,0.606-0.256,0.91-0.384c0.541,0.641,1.089,1.289,1.681,1.883C92.751,300.569,93.259,301.211,93.898,301.595z"/>
				<path style="fill:#F97B37;" d="M97.742,306.108c-0.361,0.193-0.687,0.461-0.953,0.771c-1.46,1.698-2.156,4.469-2.037,6.66
					c0.068,1.27,0.411,2.558,1.192,3.562c0.781,1.004,2.046,1.679,3.311,1.542c1.675-0.182,2.903-1.653,3.716-3.129
					c1.277-2.319,2.683-4.267,4.314-6.35c0.213-0.272,0.431-0.552,0.538-0.881c0.309-0.947-0.438-1.98-1.369-2.333
					c-0.931-0.352-1.97-0.2-2.947-0.007c-0.977,0.193-1.985,0.421-2.957,0.208c-0.461-0.101-0.901-0.301-1.37-0.351
					C98.679,305.748,98.185,305.871,97.742,306.108z"/>
				<path style="fill:none;stroke:#790D00;stroke-width:0.5;stroke-linecap:round;stroke-linejoin:round;stroke-miterlimit:10;" d="
					M100.999,306.921c-1.566,2.119-2.335,4.814-2.122,7.441"/>
				<path style="fill:none;stroke:#790D00;stroke-width:0.5;stroke-linecap:round;stroke-linejoin:round;stroke-miterlimit:10;" d="
					M115.415,299.889c0.977,0.205,1.779,1.068,1.912,2.057"/>
				<path style="fill:none;stroke:#790D00;stroke-width:0.5;stroke-linecap:round;stroke-linejoin:round;stroke-miterlimit:10;" d="
					M91.201,297.986c-1.403,0.208-2.666,1.185-3.222,2.489"/>
				<g>
					<path style="fill:#814120;" d="M98.738,290.108c-3.251,0.517-4.636,2.713-3.642,5.226c0.374,0.945,1.28,1.796,2.485,1.963
						c0.506,0.07,1.08,0.032,1.469,0.298c0.205,0.141,0.324,0.346,0.437,0.545c0.503,0.889,1.102,2.213,2.637,2.091
						c1.869-0.096,2.325-2.419,4.045-3.064c0.72-0.27,1.561-0.198,2.296-0.438c1.649-0.537,2.038-2.297,1.942-3.724
						c-0.17-2.509-4.034-2.906-6.444-3C102.487,289.948,100.495,289.829,98.738,290.108z"/>
					
						<path style="fill:none;stroke:#532320;stroke-width:0.5;stroke-linecap:round;stroke-linejoin:round;stroke-miterlimit:10;" d="
						M99.434,297.454c0.253-1.204-0.83-2.454-2.293-2.647"/>
					
						<path style="fill:none;stroke:#532320;stroke-width:0.5;stroke-linecap:round;stroke-linejoin:round;stroke-miterlimit:10;" d="
						M105.224,297.562c0.141-1.167,1.226-2.244,2.608-2.591"/>
				</g>
				<g>
					<path style="fill:#AC3E00;" d="M106.973,299.659c0.197,0.218,0.179,0.555-0.039,0.752c-0.218,0.197-0.555,0.18-0.752-0.039
						c-0.197-0.218-0.18-0.555,0.039-0.752C106.44,299.424,106.776,299.441,106.973,299.659z"/>
					<path style="fill:#AC3E00;" d="M110.316,300.299c0.197,0.218,0.179,0.555-0.039,0.752c-0.218,0.197-0.555,0.18-0.752-0.039
						c-0.197-0.218-0.179-0.555,0.039-0.752C109.783,300.063,110.119,300.081,110.316,300.299z"/>
					<path style="fill:#AC3E00;" d="M98.2,300.259c0.197,0.218,0.179,0.555-0.039,0.752s-0.555,0.18-0.752-0.039
						c-0.197-0.218-0.179-0.555,0.039-0.752C97.666,300.023,98.003,300.041,98.2,300.259z"/>
					<path style="fill:#AC3E00;" d="M94.352,298.894c0.197,0.218,0.179,0.555-0.039,0.752c-0.218,0.197-0.555,0.18-0.752-0.039
						c-0.197-0.218-0.18-0.555,0.039-0.752C93.818,298.659,94.155,298.676,94.352,298.894z"/>
					<path style="fill:#AC3E00;" d="M97.364,297.833c0.197,0.218,0.179,0.555-0.039,0.752c-0.218,0.197-0.555,0.18-0.752-0.039
						c-0.197-0.218-0.179-0.555,0.039-0.752S97.167,297.615,97.364,297.833z"/>
					<path style="fill:#AC3E00;" d="M110.649,297.809c0.197,0.218,0.179,0.555-0.039,0.752c-0.218,0.197-0.555,0.18-0.752-0.039
						c-0.197-0.218-0.179-0.555,0.039-0.752S110.452,297.59,110.649,297.809z"/>
				</g>
			</g>
		</g>
		<path style="fill:none;stroke:#790D00;stroke-width:0.5;stroke-linecap:round;stroke-linejoin:round;stroke-miterlimit:10;" d="
			M129.822,255.229c0.708,2.91,1.911,5.699,3.541,8.212c0.501,0.773,1.236,1.61,2.148,1.483"/>
		<path style="fill:none;stroke:#790D00;stroke-width:0.5;stroke-linecap:round;stroke-linejoin:round;stroke-miterlimit:10;" d="
			M79.417,254.393c-2.476,2.944-3.999,6.677-4.288,10.512"/>
	</g>
	<g>
		<path style="fill:#E0AF82;" d="M117.184,149.66c9.624-4.313,21.698,1.561,15.808,13.216c-1.827,3.616-4.885,6.432-7.877,9.163
			c-9.688,8.842-19.103,19.774-31.703,24.39c-7.418,2.718-15.635,1.752-23.433,3.018c-5.024,0.816-9.856,2.558-14.857,3.507
			c-0.704,0.133-1.539,0.212-2.032-0.308c-0.321-0.339-0.393-0.838-0.425-1.304c-0.251-3.672,1.702-7.943,5.339-8.506
			c2.02-0.312,4.015,0.585,6.047,0.807c3.952,0.432,7.686-1.686,11.097-3.728c5.6-3.352,11.32-6.806,15.446-11.863
			c3.175-3.89,5.251-8.547,8.041-12.722C103.193,158.512,109.7,153.014,117.184,149.66z"/>
		<path style="fill:#E0AF82;" d="M227.216,169.041c7.137,0.485,14.241-0.958,21.338-1.854c2.701-0.341,5.579-0.575,8.019,0.632
			c1.871,0.925,3.248,2.586,4.743,4.044c4.526,4.414,11.446,7.233,17.232,4.687c2.331-1.026,4.411-4.016,2.755-5.951
			c-1.042-1.216-2.886-1.163-4.47-1.4c-7.678-1.15-11.392-10.43-18.488-13.582c-6.88-3.056-15.919,0.11-21.783-4.612
			c-2.467-1.986-3.819-5.007-5.084-7.91c-1.317-3.022-2.634-6.045-3.951-9.067c-1.216-2.792-2.495-5.672-4.749-7.719
			c-5.095-4.629-13.524-3.286-18.993,0.893c-4.207,3.215-7.363,8.138-7.409,13.433c-0.023,2.684,0.737,5.324,1.8,7.789
			c1.987,4.607,4.108,8.256,8.337,11.045C213.469,164.057,218.475,168.31,227.216,169.041z"/>
		<path style="fill:#EAC3A4;" d="M146.29,117.17c-4.99,1.714-9.885,3.066-15.429,3.612c-7.784,0.768-15.617,0.81-23.414,1.393
			c-8.05,0.602-16.447,1.933-22.884,6.804c-6.584,4.982-10.195,13.044-11.852,21.132c-1.656,8.088-1.616,16.414-2.376,24.635
			c-0.236,2.556-0.59,5.216-2.03,7.341c-1.427,2.107-3.73,3.413-5.794,4.903c-4.952,3.574-8.855,8.584-11.107,14.26
			c-1.681,4.234-2.456,8.933-4.979,12.798c-2.512,3.848-7.305,6.861-10.645,10.109c-0.793,0.771-1.603,1.566-2.064,2.572
			c-0.394,0.861-0.506,1.822-0.557,2.767c-0.113,2.091,0.097,4.333,1.378,5.99c1.28,1.657,3.924,2.381,5.523,1.029
			c0.574-0.485,0.946-1.162,1.306-1.823c3.085-5.674,6.989-11.314,11.727-15.8c7.495-7.25,17.851-11.028,25.184-18.443
			c7.029-7.108,10.692-16.967,17.534-24.255c15.328-16.328,38.647-13.317,58.153-8.449c15.688,3.915,32.65,6.729,47.699,0.814
			c5.207-2.047,10.962-3.961,15.172-7.771c0.622-0.563,1.223-1.169,1.64-1.897c0.608-1.061,0.785-2.307,0.961-3.517
			c0.813-5.604,1.822-11.18,3.025-16.713c0.527-2.426,1.107-4.884,2.342-7.038c1.93-3.365,5.244-5.647,8.194-8.165
			c0.913-0.779,1.818-1.614,2.373-2.679c0.458-0.879,0.653-1.87,0.782-2.853c1.024-7.836-1.847-15.597-5.147-22.565
			c-2.776-5.86-5.547-11.316-11.111-15.058c-0.908-0.611-1.939-1.188-3.028-1.078c-0.89,0.09-1.663,0.626-2.393,1.143
			c-19.359,13.685-39.943,26.336-62.163,34.622C150.257,115.755,148.266,116.491,146.29,117.17z"/>
		<g>
			<path style="fill:#AC5F11;" d="M254.411,66.957c3.023-1.215,6.403-0.987,9.632-1.419c4.936-0.66,9.51-2.867,14.252-4.387
				c0.198-0.063,0.424-0.123,0.603-0.018c0.161,0.094,0.228,0.29,0.273,0.471c0.916,3.636-1.623,7.28-4.591,9.571
				s-6.519,3.87-9.04,6.645c-1.912,2.104-3.406,4.992-6.173,5.649c-3.217,0.764-6.09-1.902-8.836-3.745
				c-2.152-1.445-7.877-4.597-5.281-7.941c0.788-1.015,2.971-1.432,4.069-2.001C251.046,68.888,252.596,67.687,254.411,66.957z"/>
			<path style="fill:#EAC3A4;" d="M209.994,91.354c0.23,1.984,0.735,3.941,1.433,5.762c2.734,7.129,4.238,15.595,10.355,20.672
				c3.381,2.807,8.964,6.837,13.483,6.738c6.221-0.136,12.151,0.71,17.801,3.473c1.241,0.607,2.458,1.292,3.788,1.661
				c3.073,0.854,6.133-0.226,8.605-2.086c2.368-1.781,2.916-4.54,4.691-6.737c0.701-0.867,1.674-1.466,2.474-2.243
				c2.427-2.357,2.497-6.671,2.572-9.845c0.026-1.118-0.018-2.286-0.548-3.27c-1.562-2.899-7.37-1.977-9.55-5.335
				c-1.983-3.053-0.505-7.059-0.522-10.7c-0.025-3.066-1.193-5.991-3.005-8.436c-0.921-1.243-2.003-2.365-3.195-3.349
				c-1.427-1.179-2.263-1.624-4.093-1.695c-0.379-0.015-0.763-0.03-1.123-0.151c-0.352-0.118-0.663-0.33-0.968-0.54
				c-1.819-1.248-3.249-2.376-5.408-2.888c-2.163-0.513-4.358-0.879-6.556-1.198c-6.888-0.998-13.214-2.851-19.245,1.314
				c-3.213,2.218-6.422,4.598-8.625,7.821C210.139,83.572,209.55,87.513,209.994,91.354z"/>
			<g>
				<path style="fill:#E08A36;" d="M258.357,93.082c0.154,3.008,0.555,6.273,2.676,8.412c1.82,1.836,4.775,2.437,7.168,1.459
					c0.235-0.096,0.458-0.218,0.678-0.342c-1.501-0.489-2.922-1.146-3.779-2.466c-1.983-3.053-0.505-7.059-0.522-10.7
					c-0.02-4.454-2.461-8.559-5.871-11.503C258.221,82.971,258.099,88.036,258.357,93.082z"/>
				<path style="fill:#E08A36;" d="M220.737,89.895c1.214,2.336,1.853,4.931,3.014,7.294c4.261,8.675,16.15,12.577,24.723,8.115
					c2.64-1.374,5.028-3.554,5.864-6.41c0.511-1.745,0.409-3.621,0.02-5.397c-0.75-3.422-2.513-6.519-3.999-9.692
					c-1.486-3.173-2.732-6.626-2.337-10.107c0.036-0.319,0.096-0.636,0.166-0.953c-2.603-0.704-5.29-1.171-7.956-1.557
					c-6.888-0.998-13.214-2.851-19.245,1.314c-2.766,1.91-5.526,3.943-7.647,6.528c0.449,0.969,0.998,1.898,1.595,2.765
					C216.82,84.534,219.203,86.944,220.737,89.895z"/>
			</g>
			<g>
				<path style="fill:none;stroke:#601800;stroke-width:0.5;stroke-linecap:round;stroke-linejoin:round;stroke-miterlimit:10;" d="
					M269.852,114.461c-0.447,2.927-2.324,5.601-4.924,7.016"/>
				<path style="fill:none;stroke:#601800;stroke-width:0.5;stroke-linecap:round;stroke-linejoin:round;stroke-miterlimit:10;" d="
					M264.928,121.478c-4.807,0.405-9.633-1.107-12.993-4.569"/>
				<path style="fill:none;stroke:#601800;stroke-width:0.5;stroke-linecap:round;stroke-linejoin:round;stroke-miterlimit:10;" d="
					M253.058,115.901c-1,0.294-1.863,1.022-2.323,1.957"/>
				<path style="fill:none;stroke:#601800;stroke-width:0.5;stroke-linecap:round;stroke-linejoin:round;stroke-miterlimit:10;" d="
					M264.964,121.457c0.678,0.359,1.496,0.443,2.233,0.23c0.845-0.244,1.536-0.844,2.184-1.438"/>
			</g>
			<g>
				<path style="fill:#794A1F;" d="M273.872,109.158c0.582-2.032,0.172-3.478-2.165-3.366c-0.666,0.032-1.333,0.064-1.999,0.096
					c-1.534,0.074-4.347-0.438-5.067,1.411c-0.654,1.681,0.141,3.793,1.742,4.625c0.612,0.318,1.338,0.484,1.783,1.01
					c0.476,0.564,0.666,1.693,1.362,2.054c0.894,0.464,1.925-0.459,2.4-1.126C272.917,112.473,273.403,110.798,273.872,109.158z"/>
				<path style="fill:none;stroke:#601800;stroke-width:0.5;stroke-linecap:round;stroke-linejoin:round;stroke-miterlimit:10;" d="
					M268.132,112.443c-0.1-0.909-0.831-1.713-1.726-1.899"/>
			</g>
			<g>
				<path style="fill:#934A00;" d="M260.988,113.216c-0.002,0.299-0.246,0.539-0.545,0.537c-0.299-0.002-0.539-0.246-0.537-0.545
					c0.002-0.299,0.246-0.539,0.545-0.537C260.75,112.674,260.99,112.918,260.988,113.216z"/>
				<path style="fill:#934A00;" d="M263.188,116.825c-0.002,0.299-0.246,0.539-0.545,0.537c-0.299-0.002-0.539-0.246-0.537-0.545
					c0.002-0.299,0.246-0.539,0.545-0.537C262.949,116.282,263.19,116.526,263.188,116.825z"/>
				<path style="fill:#934A00;" d="M265.013,114.348c-0.002,0.299-0.246,0.539-0.545,0.537c-0.299-0.002-0.539-0.246-0.537-0.545
					c0.002-0.299,0.246-0.539,0.545-0.537C264.774,113.805,265.015,114.049,265.013,114.348z"/>
				<path style="fill:#934A00;" d="M272.235,117.232c-0.002,0.299-0.246,0.539-0.545,0.537c-0.299-0.002-0.539-0.246-0.537-0.545
					c0.002-0.299,0.246-0.539,0.545-0.537C271.996,116.69,272.237,116.934,272.235,117.232z"/>
			</g>
			<path style="fill:#502315;" d="M249.628,96.787c-0.012,1.697-1.396,3.063-3.093,3.051c-1.697-0.012-3.063-1.396-3.051-3.093
				c0.011-1.697,1.396-3.063,3.093-3.051C248.274,93.706,249.64,95.091,249.628,96.787z"/>
			<path style="fill:#502315;" d="M263.148,97.997c-0.012,1.697-0.588,3.068-1.286,3.063c-0.699-0.005-1.256-1.384-1.245-3.081
				c0.012-1.697,0.587-3.068,1.286-3.063C262.602,94.922,263.16,96.301,263.148,97.997z"/>
			<path style="fill:#AC5F11;" d="M214.803,70.961c1.96-3.287,5.332-5.501,8.838-7.036c3.506-1.535,7.237-2.501,10.771-3.971
				c3.979-1.655,7.664-3.929,11.473-5.944c0.924-0.489,2.066-0.96,2.962-0.422c1.443,0.868,0.633,3.09-0.377,4.436
				c-2.933,3.909-6.364,7.442-10.186,10.488c-2.026,1.614-4.344,3.399-4.617,5.975c-0.125,1.181,0.218,2.367,0.152,3.553
				c-0.168,3.007-2.995,5.321-5.944,5.93c-3.438,0.709-10.035,0.089-12.875-2.357C212.138,79.151,213.12,73.783,214.803,70.961z"/>
			<path style="fill:none;stroke:#601800;stroke-width:0.5;stroke-linecap:round;stroke-linejoin:round;stroke-miterlimit:10;" d="
				M240.021,88.094c1.447-1.332,3.434-2.059,5.399-1.977c1.965,0.082,3.884,0.973,5.215,2.421"/>
			<path style="fill:none;stroke:#601800;stroke-width:0.5;stroke-linecap:round;stroke-linejoin:round;stroke-miterlimit:10;" d="
				M259.723,89.356c0.293-0.725,0.883-1.325,1.603-1.632c0.447-0.19,1.085-0.202,1.295,0.236"/>
			<path style="fill:none;stroke:#601800;stroke-width:0.5;stroke-linecap:round;stroke-linejoin:round;stroke-miterlimit:10;" d="
				M260.488,98.816c0.427,1.784,2.13,3.179,3.963,3.246"/>
			<path style="fill:none;stroke:#601800;stroke-width:0.5;stroke-linecap:round;stroke-linejoin:round;stroke-miterlimit:10;" d="
				M258.273,124.654c1.872,1.013,4.116,1.32,6.191,0.849"/>
		</g>
		<path style="fill:#EAC3A4;" d="M193.966,176.592c1.046,1.244,1.996,2.594,2.745,4.169c0.613,1.289,1.125,2.654,1.212,4.078
			c0.157,2.575-1.077,5.054-1.121,7.633c-0.076,4.493,3.341,8.168,6.376,11.481c4.626,5.049,8.865,10.453,12.669,16.148
			c3.61,5.404,7.291,9.427,11.499,14.299c1.875,2.17,3.806,4.387,6.325,5.759s5.789,1.74,8.188,0.168
			c0.564-0.37,1.078-0.855,1.337-1.477c0.791-1.903-1.019-3.79-2.501-5.222c-3.77-3.644-6.429-8.259-9.037-12.809
			c-5.776-10.076-14.706-21.582-14.434-33.772c0.101-4.542,1.102-9.012,1.545-13.533c0.892-9.114,0.975-24.566-5.45-31.809
			c-3.964-4.469-10.562-6.13-16.391-4.82c-6.249,1.404-16.012,7.146-16.139,14.362c-0.105,6.003,2.604,12.637,6.054,17.479
			C188.937,171.663,191.679,173.872,193.966,176.592z"/>
		<path style="fill:none;stroke:#601800;stroke-width:0.5;stroke-linecap:round;stroke-linejoin:round;stroke-miterlimit:10;" d="
			M239.583,241.279c-0.275-1.424-0.987-2.76-2.015-3.783"/>
		<path style="fill:none;stroke:#601800;stroke-width:0.5;stroke-linecap:round;stroke-linejoin:round;stroke-miterlimit:10;" d="
			M240.371,236.177c1.062,0.898,1.766,2.208,1.931,3.589"/>
		<path style="fill:none;stroke:#601800;stroke-width:0.5;stroke-linecap:round;stroke-linejoin:round;stroke-miterlimit:10;" d="
			M277.76,171.359c1.417,0.042,2.745,1.094,3.111,2.463"/>
		<path style="fill:none;stroke:#601800;stroke-width:0.5;stroke-linecap:round;stroke-linejoin:round;stroke-miterlimit:10;" d="
			M34.444,234.968c0.879-1.013,1.465-2.278,1.67-3.603"/>
		<path style="fill:none;stroke:#601800;stroke-width:0.5;stroke-linecap:round;stroke-linejoin:round;stroke-miterlimit:10;" d="
			M37.173,237.025c1.429-0.864,2.414-2.424,2.58-4.085"/>
		<path style="fill:none;stroke:#601800;stroke-width:0.5;stroke-linecap:round;stroke-linejoin:round;stroke-miterlimit:10;" d="
			M72.205,191.919c-0.526,2.85,1.134,5.955,3.796,7.1"/>
		<path style="fill:none;stroke:#601800;stroke-width:0.5;stroke-linecap:round;stroke-linejoin:round;stroke-miterlimit:10;" d="
			M211.429,192.355c0.429,0.747,1.273,1.237,2.135,1.238"/>
		<path style="fill:none;stroke:#601800;stroke-width:0.5;stroke-linecap:round;stroke-linejoin:round;stroke-miterlimit:10;" d="
			M237.148,233.162c-0.468,0.871-1.822,1.081-2.533,0.393"/>
		<path style="fill:none;stroke:#601800;stroke-width:0.5;stroke-linecap:round;stroke-linejoin:round;stroke-miterlimit:10;" d="
			M272.024,168.762c-0.846,0.096-1.663,0.432-2.331,0.959"/>
		<path style="fill:#D24A2C;" d="M202.858,92.806c1.088,13.786,7.007,27.606,17.927,36.092c1.271,0.988,2.709,1.936,4.319,1.963
			c2.487,0.042,4.418-2.06,5.992-3.986c0.176-0.215,0.359-0.445,0.399-0.72c0.084-0.573-0.457-1.024-0.935-1.352
			c-6.694-4.596-12.806-10.235-16.996-17.19c-3.692-6.129-5.809-13.348-5.286-20.533c0.193-2.648,0.552-4.521-2.332-2.41
			C203.247,86.646,202.608,89.64,202.858,92.806z"/>
		<path style="fill:#F9D672;" d="M228.103,135.13c0.74,3.206,0.004,6.114-1.645,6.494c-1.648,0.38-3.584-1.911-4.324-5.117
			c-0.74-3.206-0.004-6.114,1.645-6.494C225.427,129.632,227.363,131.923,228.103,135.13z"/>
		<path style="fill:#EAC3A4;" d="M64.156,141.831c-8.002,8.056-16.012,17.011-26.884,20.287c-0.948,0.286-1.96,0.554-2.647,1.267
			c-0.687,0.713-0.834,2.046-0.021,2.61c0.523,0.362,1.222,0.285,1.848,0.178c19.498-3.32,34.024-19.843,52.507-26.884
			c2.318-0.883,4.768-1.657,6.604-3.324c1.837-1.668,2.854-4.562,1.561-6.68C89.858,117.385,69.704,136.245,64.156,141.831z"/>
		<path style="fill:#E08A36;" d="M59.243,153.007c0.825-0.693,1.76-1.278,2.417-2.132c1.602-2.082,1.085-4.947,1.095-7.625
			c-7.545,7.664-15.245,15.783-25.483,18.869c-0.948,0.286-1.96,0.554-2.647,1.267c-0.687,0.713-0.834,2.046-0.021,2.61
			c0.522,0.362,1.222,0.285,1.848,0.178c6.722-1.145,12.853-3.859,18.759-7.212C56.112,156.671,57.361,154.59,59.243,153.007z"/>
		<path style="fill:#E08A36;" d="M117.902,133.999c4.142,0.747,7.095,4.302,10.636,6.576c2.816,1.809,6.128,2.837,9.474,2.941
			c1.175,0.037,2.404-0.053,3.419-0.645c2.177-1.269,2.596-4.285,4.396-6.047c3.12-3.054,9.578-1.725,11.346-5.717
			c0.546-1.231,0.452-2.728,1.239-3.82c0.788-1.094,2.214-1.461,3.463-1.968c3.301-1.341,5.952-4.192,7.049-7.582
			c0.933-2.881,0.773-6.007,1.501-8.947c0.166-0.668,0.385-1.321,0.643-1.958c-6.127,3.024-12.374,5.776-18.762,8.158
			c-2.052,0.765-4.043,1.501-6.019,2.18c-4.99,1.714-9.885,3.066-15.429,3.612c-7.784,0.767-15.617,0.81-23.414,1.393
			c-4.323,0.323-8.744,0.863-12.91,2.042c4.865,2.756,8.543,8.872,14.246,9.812C111.791,134.525,114.902,133.457,117.902,133.999z"
			/>
		<path style="fill:#E08A36;" d="M87.417,138.553c-1,2.092-1.264,4.449-1.515,6.754c-0.229,2.106-0.429,4.364,0.586,6.223
			c1.559,2.854,5.542,3.616,8.594,2.495c3.053-1.12,5.355-3.637,7.418-6.15c1.115-1.358,2.247-2.866,2.336-4.62
			c0.087-1.703-0.827-3.277-1.709-4.736c-0.743-1.228-1.486-2.457-2.229-3.685c-0.4-0.66-0.814-1.337-1.43-1.803
			C96.162,130.535,88.859,135.535,87.417,138.553z"/>
		<path style="fill:none;stroke:#601800;stroke-width:0.5;stroke-linecap:round;stroke-linejoin:round;stroke-miterlimit:10;" d="
			M244.661,58.535c-1.83,2.562-4.073,4.828-6.616,6.684c-2.226,1.624-4.697,2.952-6.627,4.919c-1.93,1.967-3.27,4.824-2.515,7.473"
			/>
		<path style="fill:none;stroke:#601800;stroke-width:0.5;stroke-linecap:round;stroke-linejoin:round;stroke-miterlimit:10;" d="
			M276.36,64.592c-0.767,1.375-1.747,2.636-2.928,3.677c-2.208,1.947-5.01,3.049-7.656,4.339c-2.646,1.29-5.301,2.915-6.756,5.474"
			/>
		<path style="fill:none;stroke:#601800;stroke-width:0.5;stroke-linecap:round;stroke-linejoin:round;stroke-miterlimit:10;" d="
			M72.815,148.348c0.463-3.531,1.707-6.957,3.617-9.962"/>
		<path style="fill:none;stroke:#601800;stroke-width:0.5;stroke-linecap:round;stroke-linejoin:round;stroke-miterlimit:10;" d="
			M97.312,174.251c3.287-4.03,6.573-8.061,9.86-12.091"/>
		<path style="fill:none;stroke:#601800;stroke-width:0.5;stroke-linecap:round;stroke-linejoin:round;stroke-miterlimit:10;" d="
			M188.617,171.219c-2.425-1.43-4.64-3.214-6.553-5.279"/>
		<path style="fill:none;stroke:#601800;stroke-width:0.5;stroke-linecap:round;stroke-linejoin:round;stroke-miterlimit:10;" d="
			M218.925,156.517c-0.013-1.827-0.271-3.651-0.764-5.41"/>
	</g>
	<g>
		<g>
			<path style="fill:#907235;" d="M311.447,289.63c4.622-0.089,8.575,3.416,11.067,7.309c2.492,3.893,4.046,8.358,6.806,12.066
				c1.815,2.44,4.131,4.506,6.762,6.032c-5.254,0.224-10.544-0.388-15.608-1.807c-4.236-1.187-8.392-2.986-11.652-5.939
				C302.991,302.011,299.888,289.853,311.447,289.63z"/>
			<path style="fill:none;stroke:#2A0F10;stroke-width:0.5;stroke-linecap:round;stroke-linejoin:round;stroke-miterlimit:10;" d="
				M309.708,294.085c4.212,0.967,7.948,3.837,9.966,7.659"/>
		</g>
		<path style="fill:#F79E5B;" d="M451.943,332.947c6.04,8.664,9.061,19.004,12.856,28.86c1.664,4.32,3.612,8.746,7.16,11.72
			c1.418,1.189,4.245,2.664,4.776,4.579c0.584,2.109-0.828,2.159-2.594,1.447c-9.198-3.709-14.483-13.225-18.703-22.2
			c-4.221-8.975-8.614-18.688-17.166-23.711c-3.625-2.129-7.882-3.323-10.884-6.266c-1.756-1.722-4.055-6.251-1.605-8.361
			c2.057-1.772,7.095-0.092,9.313,0.647C441.985,321.963,447.832,327.05,451.943,332.947z"/>
		<path style="fill:#E59158;" d="M415.276,330.827c4.039,9.115,3.766,19.295,2.534,28.984c-1.257,9.881-4.417,17.509-0.255,27.317
			c1.862,4.388,4.719,8.471,5.343,13.197c0.471,3.563-0.382,7.153-1.229,10.645c-1.276,5.264-2.552,10.528-3.828,15.793
			c-0.645,2.663-0.292,5.26-1.352,7.917c-0.262,0.656-0.571,1.305-1.04,1.833c-0.614,0.691-1.462,1.129-2.313,1.49
			c-2.388,1.013-4.977,1.547-7.57,1.561c-0.882,0.005-1.789-0.055-2.593-0.419c-0.804-0.364-1.494-1.086-1.603-1.962
			c-0.123-0.986,0.489-1.914,1.19-2.618c1.758-1.767,4.251-2.806,5.597-4.905c1.572-2.451,1.646-6.231,1.865-9.053
			c0.816-10.508-1.732-18.678-9.696-26.014c-3.815-3.514-8.133-6.555-11.282-10.676c-4.722-6.179-7.891-15.398-9.618-22.91
			c-1.936-8.418-3.042-17.398-1.506-25.974c1.073-5.986,3.863-11.824,8.572-15.672c4.399-3.595,12.485-6.082,17.907-3.265
			C409.326,318.657,413.154,326.039,415.276,330.827z"/>
		<path style="fill:#E59158;" d="M286.918,372.16c1.579,6.047,3.539,11.963,6.023,17.552c5.355,12.045,8.832,24.542,7.04,37.818
			c-0.219,1.621-0.457,3.298-1.324,4.686c-1.853,2.965-6.281,4.185-6.909,7.625c-0.109,0.6-0.073,1.255,0.255,1.769
			c0.589,0.924,1.849,1.085,2.943,1.138c2.826,0.136,5.714,0.158,8.411-0.696c8.922-2.824,7.157-14.635,8.214-22.082
			c1.095-7.715,1.677-15.536,1.024-23.319c-0.375-4.466-1.15-8.961-0.548-13.402c0.946-6.97,5.344-13.186,4.858-20.261
			c-0.437-6.356-2.847-13.082-7.91-17.194c-5.406-4.391-28.353-10.246-26.698,1.973C283.387,355.817,284.814,364.104,286.918,372.16
			z"/>
		<path style="fill:#F79E5B;" d="M283.751,353.206c0.886,2.509,1.818,4.998,2.866,7.433c2.017,4.689,4.231,8.712,7.92,12.22
			c3.642,3.462,7.689,6.561,12.257,8.7c0.091,0.042,0.183,0.085,0.274,0.127c4.83,2.211,10.117,3.294,15.412,3.726
			c36.332,2.964,69.063-23.58,105.439-25.941c4.966-0.322,10.471-0.382,14.113-3.773c3.811-3.548,4.12-9.459,3.423-14.619
			c-0.577-4.272-1.692-8.55-3.991-12.198c-4.068-6.456-11.355-10.195-18.673-12.356c-17.837-5.267-36.887-2.835-55.449-1.673
			c-8.064,0.504-16.217,0.755-24.169-0.674c-7.627-1.371-14.92-4.267-21.764-7.902c-10.283-5.461-19.784-12.759-26.468-22.292
			c-0.765-1.092-1.662-2.318-2.988-2.461c-0.652-0.07-1.298,0.144-1.914,0.367c-10.832,3.914-20.302,11.481-26.642,21.083
			c-4.135,6.262-1.851,8.105,2.339,13.388c3.989,5.029,7.417,10.525,10.251,16.282C279.203,339.181,281.302,346.271,283.751,353.206
			z"/>
		<g>
			<path style="fill:#D25D2C;" d="M242.375,268.897c-1.139,1.877-2.278,3.755-3.417,5.632c-1.495,2.464-2.991,4.929-4.486,7.393
				c-0.691,1.138-1.4,2.531-0.827,3.733c0.479,1.005,1.674,1.433,2.771,1.624c3.441,0.598,7.031-0.194,10.139-1.788
				c3.107-1.594,5.767-3.954,8.099-6.553c1.04-1.16,2.04-2.402,2.577-3.865c1.284-3.502-1.406-6.889-4.319-8.551
				C248.457,263.982,245.014,264.548,242.375,268.897z"/>
			<path style="fill:#F79E5B;" d="M271.196,263.351c-2.655,0.213-5.263,0.844-7.919,1.051c-2.928,0.228-5.915-0.061-8.774,0.609
				c-4.413,1.034-8.182,4.473-9.617,8.772c-0.625,1.874-0.855,3.93-1.974,5.558c-1.243,1.81-3.362,2.773-5.375,3.651
				c-2.071,0.903-4.141,1.806-6.212,2.71c-0.687,0.3-1.402,0.62-1.872,1.203c-0.509,0.631-0.655,1.475-0.719,2.282
				c-0.408,5.145,2.022,10.426,6.195,13.463c0.415,0.302,0.857,0.594,1.145,1.02c0.386,0.57,0.441,1.293,0.589,1.965
				c0.627,2.849,3.087,5.017,5.809,6.067c2.722,1.05,5.702,1.164,8.619,1.225c9.902,0.206,20.394,1.513,29.255-3.634
				c4.922-2.858,9.1-7.016,11.944-11.949c2.844-4.933,5.4-10.627,4.878-16.402c-0.513-5.674-3.755-10.961-8.374-14.241
				C284.051,263.334,276.834,262.899,271.196,263.351z"/>
			<g>
				<path style="fill:#AC3F11;" d="M238.794,293.454c0.201,0.223,0.183,0.566-0.04,0.766c-0.223,0.201-0.566,0.183-0.766-0.04
					c-0.201-0.222-0.183-0.566,0.04-0.766C238.25,293.214,238.593,293.232,238.794,293.454z"/>
				<path style="fill:#AC3F11;" d="M242.2,294.106c0.201,0.223,0.183,0.566-0.04,0.766c-0.223,0.201-0.566,0.183-0.766-0.04
					c-0.201-0.223-0.183-0.566,0.04-0.766C241.657,293.866,242,293.883,242.2,294.106z"/>
				<path style="fill:#AC3F11;" d="M242.539,291.568c0.201,0.223,0.183,0.566-0.04,0.766c-0.223,0.201-0.566,0.183-0.766-0.04
					c-0.201-0.222-0.183-0.566,0.04-0.766C241.995,291.328,242.338,291.345,242.539,291.568z"/>
			</g>
			<g>
				<path style="fill:none;stroke:#790D13;stroke-width:0.5;stroke-linecap:round;stroke-linejoin:round;stroke-miterlimit:10;" d="
					M233.606,294.247c0.382,1.648,0.772,3.316,1.55,4.818c0.778,1.502,2,2.846,3.594,3.414"/>
				<path style="fill:none;stroke:#790D13;stroke-width:0.5;stroke-linecap:round;stroke-linejoin:round;stroke-miterlimit:10;" d="
					M237.843,302.123c2.443,0.417,4.886,0.833,7.328,1.25c3.213,0.548,6.537,1.093,9.701,0.308c2.972-0.737,5.629-2.673,7.239-5.278
					"/>
				<path style="fill:none;stroke:#790D13;stroke-width:0.5;stroke-linecap:round;stroke-linejoin:round;stroke-miterlimit:10;" d="
					M261.017,298.262c1.298-0.191,2.681,0.445,3.381,1.554"/>
				<path style="fill:none;stroke:#790D13;stroke-width:0.5;stroke-linecap:round;stroke-linejoin:round;stroke-miterlimit:10;" d="
					M238.434,302.356c-0.629,0.886-1.957,1.183-2.903,0.65"/>
			</g>
			<g>
				<path style="fill:#86452B;" d="M232.041,286.722c-0.745,0.097-1.558,0.257-2.03,0.842c-0.268,0.332-0.388,0.763-0.423,1.188
					c-0.151,1.821,1.091,3.429,2.264,4.83c0.383,0.457,0.829,0.949,1.423,1.001c0.776,0.068,1.394-0.649,1.715-1.358
					c0.321-0.71,0.519-1.519,1.098-2.04c0.807-0.727,2.161-0.709,2.801-1.587c0.203-0.279,0.307-0.624,0.318-0.969
					C239.314,285.332,233.861,286.484,232.041,286.722z"/>
				<path style="fill:none;stroke:#790D13;stroke-width:0.5;stroke-linecap:round;stroke-linejoin:round;stroke-miterlimit:10;" d="
					M235.687,291.389c0.264-0.793,0.751-1.51,1.392-2.047"/>
				<path style="fill:none;stroke:#790D13;stroke-width:0.5;stroke-linecap:round;stroke-linejoin:round;stroke-miterlimit:10;" d="
					M230.607,291.51c-0.159-0.484-0.245-0.992-0.253-1.501"/>
			</g>
			<path style="fill:#790D13;" d="M264.098,279.348c0.031,1.702-1.324,3.106-3.026,3.136c-1.702,0.03-3.106-1.324-3.136-3.026
				c-0.031-1.702,1.324-3.106,3.026-3.136C262.663,276.291,264.067,277.646,264.098,279.348z"/>
			<path style="fill:#790D13;" d="M247.063,279.335c-0.416,1.498-1.283,2.585-1.936,2.427c-0.654-0.158-0.846-1.5-0.43-2.998
				c0.416-1.498,1.283-2.585,1.936-2.427C247.286,276.495,247.479,277.837,247.063,279.335z"/>
			<path style="fill:#D25D2C;" d="M278.699,262.038c-0.331-0.07-0.667-0.125-1.009-0.16c-0.463-0.048-0.934-0.079-1.391,0.011
				c-1.683,0.333-2.646,2.278-2.473,3.985c0.174,1.707,1.18,3.202,2.196,4.585c2.952,4.015,5.287,9.167,6.399,14.027
				c0.217,0.947,0.498,2.044,1.387,2.436c0.844,0.372,1.807-0.09,2.589-0.578c2.789-1.74,5.276-3.964,7.314-6.544
				c1.674-2.12,3.068-4.535,3.553-7.192c0.485-2.657-0.037-5.584-1.811-7.621c-0.367-0.422-0.794-0.808-1.31-1.026
				c-2.6-1.094-5.206,0.97-7.82,0.588C283.733,264.171,281.379,262.604,278.699,262.038z"/>
			<path style="fill:none;stroke:#790D13;stroke-width:0.5;stroke-linecap:round;stroke-linejoin:round;stroke-miterlimit:10;" d="
				M259.043,272.463c1.434-0.785,3.211-0.721,4.76-0.202s2.922,1.45,4.273,2.371"/>
			<path style="fill:none;stroke:#790D13;stroke-width:0.5;stroke-linecap:round;stroke-linejoin:round;stroke-miterlimit:10;" d="
				M247.024,273.935c0.081-0.409-0.077-0.856-0.397-1.124c-0.32-0.267-0.788-0.344-1.176-0.192"/>
		</g>
		<path style="fill:#F79E5B;" d="M300.093,382.761c0.855,2.021,1.771,4.014,2.717,5.98c7.918,16.462,14.765,30.277,12.253,48.892
			c-0.219,1.621-0.457,3.298-1.324,4.686c-1.853,2.965-6.281,4.185-6.909,7.625c-0.11,0.6-0.073,1.255,0.255,1.769
			c0.589,0.924,1.849,1.085,2.943,1.138c2.825,0.136,5.714,0.158,8.411-0.696c8.922-2.824,7.157-14.635,8.214-22.082
			c1.095-7.715,1.677-15.536,1.024-23.319c-0.375-4.466-1.15-8.961-0.548-13.402c0.946-6.97,5.344-13.186,4.858-20.261
			c-0.437-6.356-2.847-13.082-7.909-17.194c-6.335-5.145-15.292-5.286-23.419-4.51c-3.759,0.36-4.863,0.772-5.665,4.282
			c-0.805,3.524-0.248,7.763,0.313,11.282C296.176,372.405,297.94,377.672,300.093,382.761z"/>
		<path style="fill:#F79E5B;" d="M445.265,336.035c4.039,9.115,3.766,19.295,2.534,28.984c-1.257,9.881-4.417,17.509-0.255,27.317
			c1.862,4.388,4.718,8.471,5.343,13.197c0.47,3.563-0.382,7.153-1.229,10.646c-1.276,5.264-2.552,10.528-3.828,15.793
			c0,4.883-0.493,10.256-5.886,11.773c-2.307,0.649-4.756,0.508-7.141,0.269c-1.242-0.124-2.658-0.383-3.292-1.459
			c-0.572-0.972-0.237-2.259,0.45-3.154c0.686-0.895,1.663-1.511,2.544-2.214c5.967-4.764,6.314-13.005,5.31-20.009
			c-0.981-6.84-4.452-12.724-9.501-17.375c-3.815-3.514-8.133-6.555-11.282-10.676c-4.722-6.179-7.891-15.398-9.618-22.91
			c-1.936-8.418-3.042-17.398-1.506-25.974c1.073-5.986,3.862-11.824,8.572-15.672c4.399-3.595,12.485-6.082,17.907-3.265
			C439.315,323.865,443.143,331.247,445.265,336.035z"/>
		<path style="fill:none;stroke:#790D13;stroke-width:0.5;stroke-linecap:round;stroke-linejoin:round;stroke-miterlimit:10;" d="
			M271.499,312.093c1.919-0.718,3.838-1.435,5.757-2.153c1.558-0.583,3.122-1.168,4.592-1.946c3.666-1.94,6.679-5.09,8.454-8.84"/>
		<g>
			<path style="fill:#907235;" d="M288.329,318.798c-4.071,5.547-9.055,10.66-15.339,13.463c-0.036,2.329,2.961,3.52,3.749,5.712
				c0.291,0.809,0.254,1.693,0.341,2.549c0.188,1.856,0.963,3.596,1.736,5.294c3.167,6.954,6.48,13.842,9.935,20.657
				c0.575,1.134,1.547,2.46,2.78,2.151c0.532-0.133,0.936-0.556,1.286-0.979c1.164-1.408,2.058-3.015,2.907-4.632
				c10.327-19.65,14.956-42.254,13.184-64.382c-0.086-1.079-0.21-2.218-0.855-3.087c-0.671-0.905-1.798-1.144-2.804-0.732
				c-0.635-1.865-1.844-6.177-3.917-4.047c-1.516,1.557-1.967,6.699-2.712,8.752C296.126,306.388,292.654,312.905,288.329,318.798z"
				/>
			<g>
				<path style="fill:none;stroke:#2A0F10;stroke-width:0.5;stroke-linecap:round;stroke-linejoin:round;stroke-miterlimit:10;" d="
					M305.082,300.275c-2.012,16.317-4.335,33.44-14.114,46.656"/>
				<path style="fill:none;stroke:#2A0F10;stroke-width:0.5;stroke-linecap:round;stroke-linejoin:round;stroke-miterlimit:10;" d="
					M300.809,307.873c-1.812,6.113-4.658,11.861-7.491,17.573c-2.27,4.577-4.64,9.286-8.525,12.604"/>
			</g>
		</g>
		<path style="fill:none;stroke:#790D13;stroke-width:0.5;stroke-linecap:round;stroke-linejoin:round;stroke-miterlimit:10;" d="
			M297.345,375.319c-0.559-1.995-1.117-3.989-1.676-5.984"/>
		<path style="fill:none;stroke:#790D13;stroke-width:0.5;stroke-linecap:round;stroke-linejoin:round;stroke-miterlimit:10;" d="
			M329.833,385.42c2.413-4.404,4.515-8.979,6.286-13.678"/>
		<path style="fill:none;stroke:#790D13;stroke-width:0.5;stroke-linecap:round;stroke-linejoin:round;stroke-miterlimit:10;" d="
			M408.963,363.309c-0.249-2.755-0.498-5.51-0.747-8.266"/>
		<path style="fill:none;stroke:#790D13;stroke-width:0.5;stroke-linecap:round;stroke-linejoin:round;stroke-miterlimit:10;" d="
			M402.419,438.793c-0.02-1.315,0.574-2.626,1.574-3.478"/>
		<path style="fill:none;stroke:#790D13;stroke-width:0.5;stroke-linecap:round;stroke-linejoin:round;stroke-miterlimit:10;" d="
			M406.269,439.575c-0.126-1.156,0.339-2.361,1.209-3.132"/>
		<path style="fill:none;stroke:#790D13;stroke-width:0.5;stroke-linecap:round;stroke-linejoin:round;stroke-miterlimit:10;" d="
			M432.476,443.504c0.068-1.3,0.658-2.566,1.609-3.455"/>
		<path style="fill:none;stroke:#790D13;stroke-width:0.5;stroke-linecap:round;stroke-linejoin:round;stroke-miterlimit:10;" d="
			M437.234,444.149c0.454-1.301,1.021-2.562,1.693-3.764"/>
		<path style="fill:none;stroke:#790D13;stroke-width:0.5;stroke-linecap:round;stroke-linejoin:round;stroke-miterlimit:10;" d="
			M434.086,398.688c0.962-1.314,1.499-2.934,1.514-4.563"/>
		<path style="fill:none;stroke:#790D13;stroke-width:0.5;stroke-linecap:round;stroke-linejoin:round;stroke-miterlimit:10;" d="
			M403.073,392.059c0.926-1.246,1.702-2.602,2.308-4.031"/>
		<path style="fill:none;stroke:#790D13;stroke-width:0.5;stroke-linecap:round;stroke-linejoin:round;stroke-miterlimit:10;" d="
			M308.765,452.557c0.261-1.51,0.985-2.937,2.048-4.04"/>
		<path style="fill:none;stroke:#790D13;stroke-width:0.5;stroke-linecap:round;stroke-linejoin:round;stroke-miterlimit:10;" d="
			M312.592,452.738c0.593-1.449,1.361-2.826,2.283-4.091"/>
		<path style="fill:none;stroke:#790D13;stroke-width:0.5;stroke-linecap:round;stroke-linejoin:round;stroke-miterlimit:10;" d="
			M293.391,441.92c0.141-1.182,0.611-2.323,1.344-3.261"/>
		<path style="fill:none;stroke:#790D13;stroke-width:0.5;stroke-linecap:round;stroke-linejoin:round;stroke-miterlimit:10;" d="
			M297.58,442.733c0.142-1.496,0.625-2.96,1.401-4.247"/>
		<path style="fill:none;stroke:#790D13;stroke-width:0.5;stroke-linecap:round;stroke-linejoin:round;stroke-miterlimit:10;" d="
			M316.07,412.256c1.611-0.831,2.963-2.155,3.827-3.749"/>
		<path style="fill:none;stroke:#790D13;stroke-width:0.5;stroke-linecap:round;stroke-linejoin:round;stroke-miterlimit:10;" d="
			M300.013,401.8c1.463-0.789,2.602-2.16,3.107-3.744"/>
		<path style="fill:none;stroke:#790D13;stroke-width:0.5;stroke-linecap:round;stroke-linejoin:round;stroke-miterlimit:10;" d="
			M286.455,266.264c1.664,2.518,3.069,5.208,4.184,8.012"/>
	</g>
</g>
</svg>
