<?xml version="1.0" encoding="utf-8"?>
<!-- Generator: Adobe Illustrator 27.5.0, SVG Export Plug-In . SVG Version: 6.00 Build 0)  -->
<svg version="1.1" id="Capa_1" xmlns="http://www.w3.org/2000/svg" xmlns:xlink="http://www.w3.org/1999/xlink" x="0px" y="0px"
	 viewBox="0 0 425.2 425.2" style="enable-background:new 0 0 425.2 425.2;" xml:space="preserve">
<rect x="0.002" y="0.002" style="fill:#632F1E;" width="425.196" height="425.196"/>
<path style="fill:#FFFFFF;" d="M212.6,36.463c-97.278,0-176.141,78.858-176.141,176.135c0,97.281,78.862,176.139,176.141,176.139
	c97.281,0,176.141-78.857,176.141-176.139C388.74,115.322,309.881,36.463,212.6,36.463z"/>
<path style="fill:#F15D2D;" d="M378.03,212.598c0,91.366-74.064,165.428-165.431,165.428c-91.363,0-165.43-74.062-165.43-165.428
	c0-91.36,74.066-165.424,165.43-165.424C303.967,47.174,378.03,121.238,378.03,212.598z"/>
<g>
	<g>
		<path style="fill:#FFFFFF;" d="M212.6,367.848c-85.605,0-155.25-69.645-155.25-155.25c0-85.603,69.645-155.247,155.25-155.247
			c85.607,0,155.253,69.645,155.253,155.247C367.853,298.204,298.207,367.848,212.6,367.848z M212.6,62.029
			c-83.025,0-150.572,67.545-150.572,150.569c0,83.026,67.547,150.573,150.572,150.573c83.027,0,150.576-67.547,150.576-150.573
			C363.176,129.574,295.627,62.029,212.6,62.029z"/>
	</g>
</g>
<g>
	<path style="fill:#FFFFFF;" d="M132.054,105.907l13.161,18.66l-6.439,5.913l-17.766-14.43l4.47-4.105
		c4.739,4.117,8.68,7.664,11.822,10.64c-2.732-3.415-5.121-6.481-7.164-9.2l-2.554-3.372L132.054,105.907z"/>
	<path style="fill:#FFFFFF;" d="M139.101,100.705l8.022-5.265l2.486,3.789l-3.211,2.107l2.356,3.59l3.006-1.973l2.363,3.602
		l-3.005,1.973l2.732,4.163l3.531-2.317l2.486,3.789l-8.343,5.475L139.101,100.705z"/>
	<path style="fill:#FFFFFF;" d="M166.177,85.964l1.866,4.13l-3.114,1.407l7.458,16.506l-5.244,2.37l-7.458-16.507l-3.102,1.401
		l-1.866-4.129L166.177,85.964z"/>
	<path style="fill:#FFFFFF;" d="M174.699,83.03l9.257-2.526l1.193,4.372l-3.706,1.011l1.13,4.143l3.468-0.946l1.134,4.156
		l-3.468,0.946l1.311,4.804l4.075-1.112l1.193,4.372l-9.626,2.627L174.699,83.03z"/>
	<path style="fill:#FFFFFF;" d="M193.715,78.582l4.054-0.399c2.703-0.267,4.542-0.34,5.52-0.221
		c0.978,0.119,1.812,0.588,2.501,1.405c0.689,0.817,1.129,2.187,1.318,4.107c0.172,1.754,0.076,2.953-0.291,3.599
		c-0.367,0.646-1.17,1.09-2.41,1.334c1.162,0.176,1.961,0.486,2.399,0.93c0.438,0.444,0.724,0.863,0.859,1.258
		c0.135,0.395,0.292,1.501,0.471,3.319l0.585,5.944l-5.319,0.523l-0.738-7.488c-0.119-1.206-0.286-1.944-0.499-2.214
		c-0.214-0.27-0.716-0.365-1.505-0.287l1.001,10.161l-5.727,0.564L193.715,78.582z M199.822,81.873l0.494,5.012
		c0.644-0.064,1.087-0.198,1.327-0.405c0.241-0.206,0.312-0.806,0.214-1.799l-0.122-1.239c-0.07-0.714-0.241-1.17-0.513-1.368
		C200.951,81.875,200.484,81.809,199.822,81.873z"/>
	<path style="fill:#FFFFFF;" d="M222.02,77.654l-1.158,22.615l-5.748-0.294l1.158-22.615L222.02,77.654z"/>
	<path style="fill:#FFFFFF;" d="M244.458,81.225l-4.557,22.182l-4.941-1.015l-0.861-10.687l-2.071,10.084l-4.713-0.968l4.557-22.183
		l4.713,0.969l1.108,10.637l2.051-9.988L244.458,81.225z"/>
	<path style="fill:#FFFFFF;" d="M263.62,87.979l-5.408,22.234l-5.456-2.197l1.234-3.891l-1.91-0.77l-1.841,3.646l-5.519-2.223
		l11.184-19.908L263.62,87.979z M255.351,100.345c0.688-2.487,1.602-5.537,2.74-9.149c-2.163,3.803-3.69,6.607-4.578,8.409
		L255.351,100.345z"/>
	<path style="fill:#FFFFFF;" d="M274.723,93.414l3.448,2.169c2.298,1.446,3.797,2.516,4.497,3.209
		c0.699,0.694,1.071,1.575,1.115,2.644c0.044,1.068-0.448,2.42-1.476,4.054c-0.938,1.491-1.75,2.38-2.435,2.665
		c-0.686,0.284-1.593,0.144-2.722-0.424c0.81,0.852,1.252,1.587,1.326,2.206c0.073,0.619,0.043,1.125-0.092,1.52
		c-0.135,0.395-0.689,1.365-1.663,2.912l-3.18,5.056l-4.524-2.847l4.007-6.369c0.646-1.026,0.966-1.711,0.962-2.056
		c-0.004-0.344-0.342-0.727-1.013-1.149l-5.438,8.643l-4.871-3.064L274.723,93.414z M277.531,99.758l-2.682,4.262
		c0.548,0.345,0.98,0.509,1.297,0.493c0.316-0.016,0.74-0.445,1.272-1.29l0.663-1.054c0.382-0.607,0.527-1.073,0.434-1.396
		C278.422,100.45,278.094,100.112,277.531,99.758z"/>
	<path style="fill:#FFFFFF;" d="M302.752,114.644l-12.785,7.933l-5.483,6.093l-3.962-3.566l5.483-6.092l6.658-13.447l3.93,3.537
		c-2.343,3.838-3.986,6.36-4.931,7.567c1.853-1.582,4.24-3.436,7.161-5.561L302.752,114.644z"/>
</g>
<g>
	<g>
		<path style="fill:#FFFFFF;" d="M137.727,302.836l-12.731,19.015l-4.365-3.941l2.498-3.229l-1.528-1.379l-2.984,2.789l-4.417-3.986
			l17.353-14.843L137.727,302.836z M125.706,311.601c1.502-2.1,3.41-4.648,5.723-7.647c-3.341,2.825-5.739,4.933-7.193,6.319
			L125.706,311.601z"/>
		<path style="fill:#FFFFFF;" d="M154.509,314.79l-12.424,18.933l-4.217-2.768l3.145-10.249l-5.648,8.606l-4.023-2.64l12.424-18.933
			l4.022,2.64l-2.897,10.295l5.594-8.525L154.509,314.79z"/>
		<path style="fill:#FFFFFF;" d="M165.039,320.054l-9.84,20.395l-5.183-2.501l9.84-20.396L165.039,320.054z"/>
		<path style="fill:#FFFFFF;" d="M187.292,327.807l-6.623,21.654l-4.811-1.472l4.465-14.621l-6.386,14.034l-3.412-1.044l2.35-14.902
			l-4.376,14.282l-4.81-1.471l6.623-21.655l7.121,2.179c-0.187,1.366-0.438,2.967-0.755,4.803l-0.903,5.747l4.358-9.725
			L187.292,327.807z"/>
		<path style="fill:#FFFFFF;" d="M202.706,329.889l0.578,22.876l-5.84-0.698l0.177-4.078l-2.044-0.245l-0.827,4.001l-5.908-0.707
			l5.605-22.136L202.706,329.889z M197.947,343.984c0.016-2.582,0.102-5.764,0.26-9.548c-1.097,4.235-1.839,7.34-2.227,9.313
			L197.947,343.984z"/>
		<path style="fill:#FFFFFF;" d="M216.387,330.189l0.339,18.11l3.499-0.065l0.085,4.53l-9.253,0.174l-0.424-22.641L216.387,330.189z
			"/>
		<path style="fill:#FFFFFF;" d="M253.986,333.296l-5.529,1.598l-1.092-3.781c-0.318-1.1-0.575-1.768-0.772-2.008
			c-0.197-0.238-0.497-0.299-0.899-0.183c-0.456,0.132-0.696,0.381-0.723,0.747c-0.027,0.367,0.119,1.102,0.438,2.203l2.919,10.105
			c0.305,1.057,0.566,1.729,0.782,2.016c0.216,0.287,0.538,0.369,0.967,0.245c0.411-0.119,0.634-0.358,0.667-0.718
			c0.033-0.36-0.123-1.138-0.467-2.332l-0.791-2.734l5.529-1.598l0.245,0.848c0.65,2.252,0.956,3.894,0.918,4.926
			c-0.038,1.032-0.487,2.056-1.346,3.072c-0.859,1.016-2.068,1.749-3.626,2.199c-1.62,0.468-3.042,0.554-4.266,0.257
			c-1.224-0.297-2.16-0.927-2.808-1.89c-0.648-0.963-1.28-2.51-1.896-4.643l-1.837-6.355c-0.453-1.567-0.74-2.759-0.861-3.573
			c-0.122-0.814-0.026-1.659,0.285-2.535c0.311-0.876,0.869-1.656,1.672-2.34c0.803-0.683,1.804-1.198,3.004-1.545
			c1.628-0.47,3.065-0.536,4.311-0.198c1.246,0.338,2.173,0.94,2.784,1.806c0.61,0.865,1.209,2.313,1.796,4.345L253.986,333.296z"/>
		<path style="fill:#FFFFFF;" d="M265.388,317.566l12.628,19.084l-5.32,2.506l-2.014-3.551l-1.862,0.878l1.422,3.829l-5.382,2.536
			l-6.995-21.737L265.388,317.566z M268.834,332.039c-1.357-2.196-2.972-4.94-4.847-8.232c1.318,4.173,2.336,7.198,3.055,9.075
			L268.834,332.039z"/>
		<path style="fill:#FFFFFF;" d="M272.211,313.89l3.372-2.284c2.248-1.523,3.83-2.466,4.747-2.828
			c0.916-0.361,1.872-0.348,2.868,0.042c0.996,0.39,2.035,1.384,3.118,2.982c0.988,1.459,1.476,2.56,1.461,3.302
			c-0.015,0.742-0.509,1.516-1.482,2.321c1.105-0.399,1.956-0.508,2.553-0.327c0.596,0.183,1.048,0.414,1.355,0.696
			c0.307,0.282,0.973,1.18,1.997,2.692l3.35,4.944l-4.425,2.998l-4.221-6.229c-0.68-1.004-1.178-1.572-1.495-1.707
			c-0.317-0.135-0.803,0.02-1.46,0.465l5.727,8.453l-4.764,3.227L272.211,313.89z M279.148,313.869l2.825,4.169
			c0.535-0.362,0.86-0.692,0.973-0.988c0.113-0.297-0.11-0.857-0.67-1.684l-0.698-1.03c-0.402-0.595-0.771-0.914-1.104-0.959
			C280.141,313.332,279.699,313.496,279.148,313.869z"/>
		<path style="fill:#FFFFFF;" d="M287.345,302.977l7.097-6.459l3.05,3.352l-2.841,2.585l2.891,3.176l2.659-2.42l2.9,3.186
			l-2.659,2.42l3.352,3.683l3.124-2.843l3.05,3.352l-7.379,6.717L287.345,302.977z"/>
	</g>
</g>
<g>
	<path style="fill:#FFFFFF;" d="M317.076,173.351c-13.346-9.058-28.295-15.903-44.39-17.988c-5.435-0.705-11.356-1.013-16.875-0.026
		c-26.481-14.973-59.981-14.986-86.443-0.001c-7.538-1.417-15.807-0.406-23.122,1.019c-9.188,1.788-18.022,5.418-26.293,9.73
		c-7.962,4.153-17.855,9.551-23.158,17.108c-4.864,6.934-2.703,14.987,1.48,21.648c5.353,8.524,12.834,15.428,17.615,24.393
		c1.108,2.081,1.751,3.968,2.201,6.487c-0.11-0.52,0.066,1.143,0.066,1.178c0.048,1.11,0.225,2.214,0.45,3.299
		c0.42,2.04,1.75,3.85,3.117,5.347c4.981,5.459,12.313,3.939,18.289,0.542c3.512,6.679,7.984,12.728,13.404,18.091
		c-1.57,12.087,4.346,23.225,14.005,30.814c12.706,9.982,29.204,13.936,45.127,14.069c24.765,0.206,63.822-14.583,59.253-44.916
		c5.398-5.34,9.859-11.373,13.364-18.028c6.832,3.734,14.999,4.466,20.117-3.027c2.052-3.006,1.539-7.104,2.239-9.708
		c0.932-3.477,3.079-6.791,5.172-9.94c6.224-9.374,16.742-17.696,18.35-29.365C332.388,184.342,324.131,178.226,317.076,173.351z"/>
	<g>
		<g>
			<ellipse style="fill:#A54D34;" cx="212.648" cy="215.774" rx="73.909" ry="65.465"/>
			<path style="fill:#2E0000;" d="M272.692,177.625c-0.824-5.831-4.094-11.086-15.24-13.904
				C263.276,167.659,268.412,172.349,272.692,177.625z"/>
			<path style="fill:#5D2510;" d="M254.785,162.013c0,0,24.682-6.953,59.197,16.79c10.413,7.165,16.513,12.288,3.938,27.59
				c-12.574,15.303-17.012,22.784-17.229,30.55c-0.217,7.764-11.771,8.83-20.892-4.138c-9.119-12.965-5.879-26.667-7.021-40.775
				c-0.813-10.041,4.915-23.198-15.335-28.312C257.364,163.698,255.535,162.536,254.785,162.013z"/>
			<path style="fill:#5D2510;" d="M170.417,162.013c0,0-24.681-6.953-59.197,16.79c-10.414,7.165-16.514,12.288-3.939,27.59
				c12.574,15.303,17.013,22.784,17.229,30.55c0.217,7.764,11.772,8.83,20.894-4.138c9.118-12.965,5.878-26.667,7.02-40.775
				c0.812-10.041-4.916-23.198,15.333-28.312C167.836,163.698,169.667,162.536,170.417,162.013z"/>
			<path style="fill:#E9D1B3;" d="M265.92,268.331c0,19.016-23.849,34.432-53.272,34.432c-29.421,0-53.272-15.416-53.272-34.432
				c0-19.017,23.851-34.433,53.272-34.433C242.071,233.898,265.92,249.314,265.92,268.331z"/>
			<path style="fill:#E9D1B3;" d="M199.24,151.404c-4.325,6.362-10.875,20.496-2.772,40.555c11.271,27.907,9.453,41.67-5.092,51.989
				l21.272-0.744l21.273,0.744c-14.546-10.319-16.363-24.082-5.091-51.989c8.103-20.059,1.553-34.193-2.773-40.555
				c-4.351-0.707-8.827-1.096-13.408-1.096C208.068,150.309,203.59,150.697,199.24,151.404z"/>
			<g>
				<path style="fill:#2E0000;" d="M243.557,223.605c0,2.108-1.708,3.817-3.819,3.817c-2.107,0-3.818-1.709-3.818-3.817
					c0-2.109,1.71-3.818,3.818-3.818C241.849,219.787,243.557,221.495,243.557,223.605z"/>
				<path style="fill:#2E0000;" d="M189.376,223.605c0,2.108-1.708,3.817-3.817,3.817c-2.109,0-3.818-1.709-3.818-3.817
					c0-2.109,1.708-3.818,3.818-3.818C187.667,219.787,189.376,221.495,189.376,223.605z"/>
			</g>
			<path style="fill:#2E0000;" d="M169.284,162.776c-0.006-0.001-0.009-0.001-0.014-0.001c-0.729,0.471-1.463,0.929-1.513,0.943
				c-11.248,2.839-14.479,8.161-15.271,14.053C157.136,172.004,162.811,166.938,169.284,162.776z"/>
			<g>
				<path style="fill:none;stroke:#2E0000;stroke-width:2;stroke-miterlimit:10;" d="M211.71,263.417l-0.033,18.017
					c0,0,0.789,8.352,9.699,8.352"/>
				<path style="fill:none;stroke:#2E0000;stroke-width:2;stroke-miterlimit:10;" d="M211.637,263.417l0.035,18.017
					c0,0-0.789,8.352-9.699,8.352"/>
			</g>
			<path style="fill:#2E0000;" d="M229.218,253.373c2.256,4.526-5.38,18.208-17.661,18.225
				c-12.28-0.017-19.917-13.699-17.662-18.225c2.183-4.64,9.927-5.721,17.662-5.853
				C219.292,247.652,227.037,248.732,229.218,253.373z"/>
		</g>
	</g>
</g>
</svg>
