<?xml version="1.0" encoding="utf-8"?>
<!-- Generator: Adobe Illustrator 27.5.0, SVG Export Plug-In . SVG Version: 6.00 Build 0)  -->
<svg version="1.1" xmlns="http://www.w3.org/2000/svg" xmlns:xlink="http://www.w3.org/1999/xlink" x="0px" y="0px"
	 viewBox="0 0 820 312" style="enable-background:new 0 0 820 312;" xml:space="preserve">
<g id="BACKGROUND">
	<rect style="fill:#FAF1DD;" width="820" height="312"/>
</g>
<g id="OBJECTS">
	<rect y="273.402" style="fill:#EAAC8E;" width="820" height="38.598"/>
	<g>
		<g>
			<path style="fill:#F0CAA5;" d="M484.066,181.906c1.451-17.903,15.697-29.185,20.725-45.545
				c3.726-16.998-24.004-27.985-34.857-38.211c-23.378-28.372-85.696-22.46-113.018,1.609c-8.046-2.33-18.939,17.333-25.015,22.621
				c-14.55,7.419-24.087,33.26-8.622,43.484c16.18,7.503,18.426,41.395,36.572,28.135c2.037,4.386,8.33,6.291,7.443,12.031
				c-3.777,17.322-28.053,31.2-17.301,50.861c-18.316,5.108-21.78,38.115-1.038,32.638c4.134,3.875,10.579,3.924,14.738,0.186
				c2.751,5.47,9.828,2.461,14.008,0.494c6.827-2.592,16.488-6.597,14.357-15.629h44.555c-1.791,9.229,9.523,11.901,16.019,14.673
				c4.194,1.736,9.979,5.072,12.963-0.299c4.136,3.808,11.131,0.114,14.616-3.129c16.468,9.732,20.289-20.452,5.764-28.13
				c9.468-22.501-20.382-35.024-23.237-55.068c-0.572-1.364-0.815-2.83-0.546-4.429c0.39-2.315,1.725-4.37,2.952-6.333
				c0.599-1.617,1.41-2.761,2.368-3.574c0.494-0.611,1.041-1.174,1.679-1.651c1.689-1.262,3.662-1.298,5.507-0.559
				C478.312,185.757,481.962,185.536,484.066,181.906z"/>
			<path style="fill:#FAF1DD;" d="M461.598,244.699c-8.838,16.767-19.931,3.056-24.847,34c5.479-8.613-42.71-2.284-44.418-4.121
				c-2.943-10.966-14.122-15.741-21.897-20.432c0.888-4.044-3.47-9.145,2.362-12.349c4.764-3.776,17.613,1.718,16.804-7.637
				c-15.743-30.984,28.316-5.847,42.332-15.811c6.012-2.319,15.513-3.796,18.079,3.952c1.617,4.07-4.06,9.671,0.153,12.703
				C457.216,235.097,462.854,235.795,461.598,244.699z"/>
			<path style="fill:#FAF1DD;" d="M431.341,190.348c-5.611,3.309-13.383-2.15-15.952-7.358c-1.916-6.066-9.098,17.39-19.062,10.557
				c4.483-7.146,9.955-15.395,7.163-24.677c9.333,3.228,8.06,11.501,17.24-1.811C421.778,175.616,432.833,182.371,431.341,190.348z"
				/>
			<path style="fill:#EAAC8E;" d="M435.243,194.592c-4.629-4.661-19.219-0.153-20.641-12.471
				c-3.458,6.252-8.827,12.929-17.37,13.129C390.962,238.014,446.473,239.387,435.243,194.592z"/>
			<path style="fill:#49312C;" d="M436.102,190.859c-11.099,4.337-23.697-5.531-22.043-17.358c-0.83,0.226-1.731,0.09-2.55-0.112
				c3.5,9.873-3.777,21.23-14.205,22.204c-1.013,0.114-1.062,1.573,0,1.622c6.291,0.3,12.468-1.646,17.502-5.375
				c6.331,5.35,15.524,5.513,22.083,0.373C437.529,191.71,436.84,190.591,436.102,190.859z"/>
		</g>
		<g>
			<g>
				<path style="fill:#49312C;" d="M356.753,98.113c-3.035-2.049-6.73-0.734-9.3,1.459c-3.07,2.62-4.207,6.678-5.798,10.232
					c-3.212,7.173-9.636,11.774-15.587,16.553c-5.752,4.619-11.764,10.429-13.258,17.974c-1.541,7.781,2.643,14.919,7.811,20.385
					c5.263,5.566,12.015,9.889,15.909,16.65c2.142,3.718,2.927,8.026,5.001,11.777c1.736,3.141,4.609,6.1,8.292,6.698
					c8.025,1.303,13.865-7.428,16.706-13.711c3.269-7.229,4.39-15.34,3.089-23.172c-2.784-16.747-17.085-31.822-12.411-49.563
					c0.505-1.916,1.269-3.726,2.287-5.425c0.637-1.063-0.97-1.976-1.648-0.963c-4.306,6.437-4.524,14.54-2.815,21.878
					c1.926,8.27,6.134,15.716,9.193,23.575c2.919,7.501,4.549,15.336,2.935,23.347c-0.736,3.654-1.995,7.196-3.779,10.47
					c-1.742,3.195-3.913,6.473-6.867,8.674c-2.859,2.132-6.326,2.78-9.297,0.478c-2.981-2.309-4.25-6.045-5.499-9.448
					c-1.351-3.68-3.005-7.017-5.509-10.055c-2.374-2.881-5.195-5.352-7.997-7.802c-5.325-4.658-11.551-9.894-13.168-17.143
					c-1.671-7.488,2.918-14.157,8.111-19.053c5.241-4.941,11.568-8.691,16.258-14.221c2.471-2.914,4.058-6.131,5.504-9.641
					c1.374-3.333,3.05-6.983,6.666-8.341c1.448-0.543,3.065-0.623,4.515-0.057C357.041,100.034,357.505,98.62,356.753,98.113
					L356.753,98.113z"/>
			</g>
			<g>
				<path style="fill:#49312C;" d="M359.003,194.616c0.164,1.565,1.108,3.154,2.002,4.418c0.988,1.397,2.112,2.675,3.355,3.85
					c2.463,2.327,5.232,4.31,7.983,6.277c2.746,1.963,5.469,3.973,7.839,6.39c1.199,1.223,2.298,2.539,3.204,3.996
					c0.918,1.477,1.414,3.037,2.076,4.625c0.385,0.921,2.081,0.964,1.951-0.264c-0.342-3.238-2.51-6.335-4.595-8.722
					c-2.273-2.601-5.003-4.764-7.778-6.8c-2.838-2.082-5.764-4.054-8.389-6.409c-1.28-1.148-2.508-2.383-3.597-3.715
					c-1.061-1.299-1.83-2.862-2.936-4.106C359.762,193.753,358.944,194.052,359.003,194.616L359.003,194.616z"/>
			</g>
			<g>
				<path style="fill:#49312C;" d="M383.218,210.946c2.964,4.196,7.667,7.219,12.691,8.289c1.212,0.258,1.733-1.59,0.514-1.865
					c-4.785-1.082-8.914-3.573-12.24-7.168C383.718,209.699,382.811,210.369,383.218,210.946L383.218,210.946z"/>
			</g>
			<g>
				<path style="fill:#49312C;" d="M382.262,185.678c0.626,2.908,2.804,5.401,5.125,7.163c2.686,2.04,5.917,3.215,9.274,3.478
					c6.928,0.542,13.833-2.516,16.4-9.285c1.502-3.962,1.505-8.318,0.89-12.448c-0.227-1.522-2.376-0.977-2.503,0.339
					c-0.384,3.975-0.078,8.126-1.728,11.864c-1.471,3.332-4.333,5.633-7.781,6.708c-3.779,1.178-7.854,0.752-11.334-1.141
					c-3.137-1.706-5.126-4.371-7.232-7.146C382.968,184.676,382.109,184.967,382.262,185.678L382.262,185.678z"/>
			</g>
			<g>
				<path style="fill:#49312C;" d="M400.706,138.651c1.29-0.461,2.736-0.738,4.075-1.043c1.332-0.304,2.685-0.549,4.046-0.675
					c2.768-0.257,5.551-0.096,8.268,0.493c1.263,0.274,1.802-1.671,0.535-1.941c-2.94-0.626-5.96-0.826-8.953-0.521
					c-1.488,0.151-2.963,0.397-4.402,0.808c-1.46,0.416-2.702,1.07-4.052,1.734C399.591,137.815,400.034,138.891,400.706,138.651
					L400.706,138.651z"/>
			</g>
			<g>
				<path style="fill:#49312C;" d="M455.671,90.394c2.935-1.817,6.731-0.493,9.018,1.758c2.677,2.635,4.245,6.162,6.606,9.057
					c4.615,5.657,11.438,8.775,17.723,12.159c5.899,3.176,12.181,7.133,15.008,13.499c3.323,7.482-0.624,15.204-5.039,21.265
					c-4.482,6.152-10.051,11.73-12.395,19.156c-1.246,3.947-1.255,8.209-2.748,12.085c-1.152,2.992-3.515,5.911-6.972,5.968
					c-3.616,0.06-6.892-2.432-9.384-4.8c-2.612-2.481-4.851-5.329-6.643-8.454c-3.79-6.609-5.298-14.125-4.624-21.695
					c0.784-8.819,3.877-17.218,5.171-25.952c1.111-7.497,0.949-15.696-3.033-22.396c-0.892-1.501-1.966-2.887-3.184-4.137
					c-0.865-0.888-2.155,0.435-1.349,1.349c5.428,6.158,6.483,14.822,5.632,22.694c-0.989,9.159-4.278,17.894-5.34,27.045
					c-0.931,8.013,0.285,15.97,3.865,23.224c1.693,3.431,3.899,6.635,6.531,9.415c2.641,2.79,5.873,5.505,9.694,6.422
					c3.694,0.886,7.422-0.293,9.862-3.222c2.632-3.16,3.468-7.092,4.115-11.051c0.362-2.214,0.734-4.425,1.473-6.55
					c0.641-1.843,1.536-3.585,2.534-5.258c2.038-3.415,4.558-6.506,6.97-9.657c4.882-6.378,9.544-14.124,8.077-22.5
					c-1.254-7.163-7.139-12.433-12.995-16.142c-6.337-4.014-13.648-6.62-19.161-11.858c-2.933-2.786-4.674-6.371-7.141-9.521
					c-2.164-2.764-5.293-5.053-8.954-5.028c-1.692,0.011-3.138,0.603-4.347,1.79C453.961,89.728,454.841,90.908,455.671,90.394
					L455.671,90.394z"/>
			</g>
			<g>
				<path style="fill:#49312C;" d="M468.76,184.117c-0.838,1.382-1.305,3.023-2.083,4.456c-0.795,1.464-1.735,2.866-2.744,4.19
					c-2.111,2.769-4.6,5.223-6.993,7.742c-2.368,2.493-4.663,5.109-6.472,8.045c-1.658,2.691-3.399,6.3-3.149,9.555
					c0.081,1.05,1.697,1.427,1.951,0.264c0.362-1.658,0.549-3.29,1.151-4.894c0.602-1.606,1.45-3.118,2.394-4.546
					c1.926-2.913,4.334-5.454,6.751-7.958c2.35-2.433,4.689-4.89,6.688-7.627c0.986-1.35,1.85-2.774,2.539-4.299
					c0.62-1.372,1.305-3.067,1.185-4.597C469.929,183.819,469.113,183.535,468.76,184.117L468.76,184.117z"/>
			</g>
			<g>
				<path style="fill:#49312C;" d="M448.005,204.259c-1.285,2.034-2.847,3.929-4.666,5.508c-1.825,1.585-3.894,2.809-6.114,3.757
					c-0.996,0.425-0.27,2.187,0.745,1.768c4.763-1.966,8.927-5.71,11.095-10.413C449.392,204.171,448.435,203.579,448.005,204.259
					L448.005,204.259z"/>
			</g>
			<g>
				<path style="fill:#49312C;" d="M444.343,179.396c-1.264,2.497-2.385,4.971-4.343,7.033c-1.977,2.081-4.49,3.555-7.265,4.284
					c-5.675,1.492-11.86-0.841-14.734-5.995c-1.776-3.183-2.211-6.896-3.202-10.355c-0.388-1.353-2.552-1.13-2.503,0.339
					c0.236,7.032,2.735,14.844,9.787,17.699c6.099,2.469,13.684,0.828,18.514-3.533c2.544-2.297,4.775-5.653,4.879-9.165
					C445.493,179.115,444.617,178.854,444.343,179.396L444.343,179.396z"/>
			</g>
			<path style="fill:#49312C;" d="M430.015,158.252c-0.686,3.521-2.986,6.641-5.98,8.615c-1.715,1.129-3.697,1.949-5.018,3.513
				c-0.912,1.079-1.439,2.434-2.283,3.572c-0.845,1.129-2.217,2.083-3.588,1.765l-2.367,0.151c-0.627-0.226-1.221-0.619-1.706-1.071
				c-1.037-0.962-1.798-2.2-2.885-3.095c-1.589-1.296-3.68-1.748-5.57-2.551c-3.312-1.397-6.139-4.04-7.444-7.385
				c-1.313-3.346-0.97-7.36,1.137-10.271c1.74-2.392,4.5-3.881,7.369-4.617c2.735-0.703,5.278-0.887,8.079-0.887
				c3.153-0.443,6.984-0.995,9.192-0.836c2.953,0.201,5.939,1.171,8.08,3.203C429.63,150.833,430.692,154.722,430.015,158.252z"/>
			<g>
				<path style="fill:#49312C;" d="M358.256,98.379c1.341-1.058,2.895-1.937,4.291-2.933c1.362-0.971,2.769-1.881,4.195-2.754
					c2.777-1.702,5.698-3.179,8.712-4.415c6.119-2.508,12.637-3.984,19.241-4.318c1.372-0.069,1.381-2.213,0-2.143
					c-6.913,0.35-13.737,1.873-20.132,4.527c-3.182,1.321-6.242,2.916-9.146,4.77c-1.431,0.914-2.81,1.916-4.137,2.975
					c-1.378,1.101-2.461,2.388-3.681,3.635C357.171,98.162,357.799,98.74,358.256,98.379L358.256,98.379z"/>
			</g>
			<g>
				<path style="fill:#49312C;" d="M454.198,87.98c-2.571-2.989-6.577-4.856-10.162-6.352c-3.714-1.549-7.617-2.596-11.605-3.132
					c-4.195-0.564-8.332-0.442-12.529,0.021c-4.296,0.474-8.87,1.068-13.01-0.55c-4.17-1.63-6.598-5.583-6.873-9.959
					c-0.079-1.259-1.884-1.263-1.96,0c-0.229,3.776,1.655,7.581,4.569,9.954c3.241,2.64,7.525,3.341,11.598,3.218
					c4.648-0.14,9.209-1.075,13.876-0.89c4.223,0.168,8.406,0.966,12.407,2.325c2.236,0.76,4.395,1.705,6.486,2.802
					c2.174,1.14,4.161,2.579,6.372,3.64C454.073,89.397,454.716,88.582,454.198,87.98L454.198,87.98z"/>
			</g>
			<g>
				<path style="fill:#49312C;" d="M400.671,78.517c-4.776-3.533-7.583-9.084-8.225-14.91c-0.148-1.345-2.163-1.421-2.156,0
					c0.029,6.603,4.053,12.85,9.682,16.106C400.762,80.171,401.371,79.035,400.671,78.517L400.671,78.517z"/>
			</g>
			<g>
				<path style="fill:#49312C;" d="M396.815,79.216c-3.522-0.198-7.06-1.376-9.987-3.344c-0.481-0.323-1.187-0.093-1.466,0.384
					c-0.307,0.526-0.098,1.144,0.384,1.466c3.292,2.196,7.115,3.275,11.068,3.048C397.814,80.714,397.816,79.272,396.815,79.216
					L396.815,79.216z"/>
			</g>
			<g>
				<path style="fill:#49312C;" d="M371.21,256.122c-1.401-2.551-3.382-4.665-5.851-6.208c-1.202-0.751-2.496-1.361-3.832-1.834
					c-1.313-0.465-2.959-0.971-4.364-0.825c-1.17,0.122-1.511,1.738-0.287,2.118c1.22,0.378,2.511,0.48,3.737,0.876
					c1.229,0.397,2.397,0.921,3.508,1.579c2.189,1.297,4.215,3.036,5.734,5.086C370.444,257.707,371.708,257.029,371.21,256.122
					L371.21,256.122z"/>
			</g>
			<g>
				<path style="fill:#49312C;" d="M360.394,257.193c-2.055-0.596-3.982-0.965-6.14-0.89c-2.084,0.073-4.189,0.491-6.158,1.168
					c-3.922,1.35-7.405,3.79-9.997,7.031c-4.87,6.091-7.072,16.134-2.052,22.817c2.673,3.558,7.529,5.423,11.687,3.381
					c1.119-0.549,0.336-2.37-0.846-2.006c-3.075,0.946-6.492-0.3-8.481-2.781c-2.243-2.796-2.745-6.609-2.376-10.075
					c0.746-6.999,5.3-13.327,11.806-16.057c3.722-1.562,8.241-2.087,12.23-1.405C360.833,258.508,361.168,257.417,360.394,257.193
					L360.394,257.193z"/>
			</g>
			<g>
				<path style="fill:#49312C;" d="M350.695,277.876c-0.648,0.465-1.253,0.903-1.754,1.533c-0.541,0.68-0.943,1.386-1.237,2.205
					c-0.572,1.592-0.652,3.306-0.314,4.958c0.696,3.391,3.522,5.994,6.854,6.751c1.924,0.437,3.92,0.34,5.687-0.576
					c1.231-0.638,0.378-2.596-0.937-2.221c-3.001,0.854-6.504,0.16-8.281-2.62c-0.877-1.373-1.135-2.956-0.98-4.563
					c0.143-1.478,0.769-3.301,1.752-4.439C351.938,278.38,351.337,277.415,350.695,277.876L350.695,277.876z"/>
			</g>
			<g>
				<path style="fill:#49312C;" d="M364.279,280.871c-0.988,0.956-1.822,1.933-2.298,3.24c-0.477,1.308-0.471,2.796-0.172,4.144
					c0.626,2.82,2.86,4.952,5.585,5.77c1.344,0.403,2.742,0.507,4.119,0.216c1.587-0.335,2.952-1.262,4.345-2.042
					c3.055-1.712,6.618-2.03,9.822-3.362c2.971-1.236,5.601-3.971,5.713-7.302c0.033-0.994-1.587-0.992-1.542,0
					c0.179,3.957-4.034,5.374-7.189,5.995c-1.683,0.331-3.391,0.492-5.056,0.926c-1.726,0.45-3.178,1.338-4.723,2.195
					c-2.485,1.38-5.394,1.287-7.414-0.885c-1.798-1.934-1.951-5.877-0.211-7.914C365.831,281.18,364.928,280.242,364.279,280.871
					L364.279,280.871z"/>
			</g>
			<g>
				<path style="fill:#49312C;" d="M392.454,277.794c0.061-1.419,0.283-2.735,0.112-4.164c-0.158-1.318-0.446-2.622-0.89-3.874
					c-0.916-2.586-2.298-4.942-4.094-7.015c-3.349-3.867-8.365-6.821-13.521-7.208c-1.35-0.101-1.596,2.004-0.316,2.336
					c4.556,1.18,8.656,3.059,11.824,6.65c1.564,1.773,2.798,3.891,3.645,6.096c0.418,1.087,0.76,2.198,1.041,3.328
					c0.305,1.226,0.735,2.587,0.763,3.851C391.037,278.722,392.414,278.717,392.454,277.794L392.454,277.794z"/>
			</g>
			<g>
				<path style="fill:#49312C;" d="M364.367,209.641c-1.202,2.941-2.869,5.791-4.53,8.496c-1.713,2.791-3.642,5.436-5.507,8.125
					c-3.616,5.214-7.115,10.801-8.321,17.126c-0.64,3.354-0.864,7.289,0.636,10.455c0.465,0.981,2.237,0.537,2.107-0.57
					c-0.227-1.927-0.574-3.773-0.527-5.727c0.047-1.959,0.379-3.885,0.911-5.768c1.101-3.892,3.073-7.451,5.249-10.835
					c2.19-3.405,4.59-6.67,6.736-10.104c2.136-3.418,3.792-6.858,4.644-10.812C365.967,209.093,364.714,208.792,364.367,209.641
					L364.367,209.641z"/>
			</g>
			<g>
				<path style="fill:#49312C;" d="M361.95,207.597c-0.377,1.043-0.938,2.073-1.487,3.036c-0.543,0.952-1.155,1.882-1.805,2.765
					c-1.286,1.749-2.927,3.254-4.724,4.464c-1.023,0.689-0.085,2.341,0.976,1.67c2.088-1.32,3.846-3.039,5.294-5.036
					c0.715-0.986,1.273-2.025,1.741-3.148c0.475-1.143,0.73-2.278,0.963-3.488C363.029,207.231,362.168,206.994,361.95,207.597
					L361.95,207.597z"/>
			</g>
			<g>
				<path style="fill:#49312C;" d="M395.574,196.923c0.331,3.188,0.862,6.359,1.233,9.546c0.353,3.031,0.674,6.073,1.473,9.026
					c1.443,5.334,4.368,10.258,9.711,12.354c5.15,2.02,11.331,1.196,16.408-0.645c5.316-1.927,10.255-5.579,12.116-11.121
					c1.178-3.507,0.851-7.297,0.659-10.925c-0.209-3.956-0.378-7.919-0.755-11.863c-0.102-1.059-1.694-1.105-1.686,0
					c0.023,3.275,0.198,6.548,0.361,9.818c0.151,3.025,0.464,6.106,0.176,9.131c-0.541,5.684-4.447,9.864-9.474,12.196
					c-4.743,2.201-10.591,3.338-15.665,1.67c-4.859-1.598-7.699-6.004-9.08-10.707c-0.87-2.961-1.249-6.041-1.675-9.089
					c-0.462-3.306-0.92-6.8-2.745-9.679C396.356,196.199,395.512,196.326,395.574,196.923L395.574,196.923z"/>
			</g>
			<g>
				<path style="fill:#49312C;" d="M413.746,187.237c0.404,2.763,0.969,5.501,1.325,8.272c0.351,2.734,0.503,5.491,0.52,8.247
					c0.008,1.253,1.955,1.255,1.947,0c-0.035-5.647-0.671-11.666-2.896-16.897C414.406,186.303,413.674,186.742,413.746,187.237
					L413.746,187.237z"/>
			</g>
			<path style="fill:#49312C;" d="M387.182,139.346c1.007,9.749-11.904,10.929-12.68,1.158
				C373.495,130.757,386.407,129.577,387.182,139.346z"/>
			<path style="fill:#49312C;" d="M446.143,133.878c1.007,9.749-11.904,10.929-12.68,1.158
				C432.456,125.288,445.367,124.108,446.143,133.878z"/>
			<g>
				<path style="fill:#49312C;" d="M371.382,128.542c0.512-0.084,0.918-0.392,1.318-0.705c0.398-0.312,0.715-0.544,1.125-0.871
					c0.595-0.473,1.372-1.007,2.119-1.44c0.386-0.224,0.781-0.434,1.182-0.63c0.201-0.098,0.402-0.195,0.604-0.289
					c0.113-0.052,0.226-0.103,0.339-0.153c0.05-0.022,0.209-0.089,0.07-0.031c0.435-0.18,0.877-0.341,1.324-0.486
					c0.518-0.167,1.061-0.272,1.546-0.523c1.25-0.645,0.672-2.711-0.719-2.655c-1.097,0.045-2.26,0.621-3.251,1.056
					c-0.887,0.39-1.731,0.856-2.537,1.393c-0.853,0.567-1.685,1.196-2.437,1.893c-0.746,0.691-1.636,1.615-1.685,2.678
					C370.356,128.339,370.905,128.62,371.382,128.542L371.382,128.542z"/>
			</g>
			<g>
				<path style="fill:#49312C;" d="M445.435,121.36c0.302-1.002-0.893-1.708-1.617-2.097c-0.797-0.428-1.614-0.796-2.474-1.078
					c-0.766-0.251-1.547-0.458-2.338-0.618c-0.899-0.182-1.874-0.361-2.795-0.346c-0.738,0.013-1.353,0.552-1.45,1.28
					c-0.088,0.658,0.331,1.507,1.058,1.62c0.48,0.075,0.964,0.108,1.447,0.163c0.09,0.01,0.218,0.027,0.054,0.005
					c0.1,0.014,0.2,0.029,0.299,0.044c0.199,0.031,0.399,0.064,0.598,0.097c0.821,0.139,1.633,0.326,2.431,0.562
					c0.769,0.227,1.544,0.451,2.3,0.719C443.673,121.971,445.113,122.426,445.435,121.36L445.435,121.36z"/>
			</g>
			<g>
				<path style="fill:#49312C;" d="M465.058,253.929c1.194-0.441,2.445-0.708,3.699-0.916c0.587-0.097,1.181-0.151,1.774-0.194
					c0.669-0.048,1.352,0.001,2.004-0.174c0.864-0.232,0.799-1.427,0-1.689c-0.681-0.223-1.435-0.149-2.14-0.098
					c-0.697,0.051-1.394,0.16-2.08,0.297c-1.345,0.27-2.614,0.778-3.857,1.352C463.666,252.874,464.229,254.235,465.058,253.929
					L465.058,253.929z"/>
			</g>
			<g>
				<path style="fill:#49312C;" d="M468.607,256.339c3.494-0.598,7.437-0.241,10.789,0.868c3.442,1.139,6.525,3.218,8.816,6.033
					c4.152,5.099,6.389,13.426,2.868,19.436c-1.865,3.183-5.656,5.1-9.294,3.98c-1.169-0.36-1.976,1.451-0.846,2.006
					c3.603,1.769,7.865,0.615,10.641-2.155c2.985-2.978,4.035-7.482,3.806-11.582c-0.458-8.208-5.749-15.707-13.31-18.913
					c-2.125-0.901-4.36-1.456-6.657-1.681c-2.491-0.243-4.763,0.133-7.14,0.822C467.508,255.378,467.84,256.47,468.607,256.339
					L468.607,256.339z"/>
			</g>
			<g>
				<path style="fill:#49312C;" d="M477.188,276.864c0.983,1.139,1.61,2.96,1.752,4.439c0.154,1.607-0.102,3.189-0.98,4.563
					c-1.777,2.781-5.28,3.475-8.281,2.62c-1.301-0.37-2.18,1.577-0.937,2.221c3.092,1.603,6.976,0.763,9.608-1.359
					c2.685-2.164,3.723-5.877,2.812-9.167c-0.246-0.887-0.614-1.726-1.164-2.467c-0.577-0.777-1.239-1.318-2.019-1.878
					C477.343,275.381,476.732,276.336,477.188,276.864L477.188,276.864z"/>
			</g>
			<g>
				<path style="fill:#49312C;" d="M463.416,279.812c1.741,2.037,1.588,5.98-0.211,7.914c-2.019,2.172-4.929,2.264-7.414,0.885
					c-1.545-0.857-2.994-1.747-4.723-2.195c-1.665-0.432-3.373-0.594-5.056-0.926c-3.155-0.621-7.368-2.036-7.189-5.995
					c0.045-0.991-1.576-0.996-1.542,0c0.102,3.03,2.099,5.114,4.522,6.675c2.87,1.848,6.615,2.016,9.727,3.347
					c1.54,0.659,2.884,1.687,4.444,2.31c1.354,0.54,2.762,0.656,4.196,0.417c2.794-0.466,5.283-2.249,6.342-4.91
					c0.57-1.431,0.71-3.047,0.389-4.557c-0.342-1.612-1.353-2.828-2.507-3.945C463.747,278.205,462.843,279.142,463.416,279.812
					L463.416,279.812z"/>
			</g>
			<g>
				<path style="fill:#49312C;" d="M437.658,275.756c0.027-1.216,0.437-2.502,0.722-3.682c0.287-1.188,0.644-2.355,1.081-3.497
					c0.844-2.205,2.082-4.324,3.645-6.096c3.167-3.592,7.268-5.471,11.824-6.651c1.267-0.328,1.048-2.438-0.316-2.336
					c-5.162,0.387-10.165,3.343-13.521,7.208c-1.759,2.026-3.12,4.33-4.036,6.851c-0.474,1.304-0.781,2.662-0.948,4.039
					c-0.173,1.433,0.051,2.741,0.112,4.164C436.26,276.678,437.637,276.685,437.658,275.756L437.658,275.756z"/>
			</g>
			<g>
				<path style="fill:#49312C;" d="M465.468,216.62c1.152,1.113,2.13,2.389,3.232,3.553c1.059,1.118,2.147,2.209,3.202,3.332
					c2.153,2.292,4.274,4.594,6.179,7.102c3.693,4.861,6.571,10.333,7.599,16.402c0.557,3.285,0.539,6.838-0.186,10.093
					c-0.309,1.385,1.708,1.95,2.13,0.587c3.984-12.885-3.853-25.581-12.543-34.492c-1.334-1.368-2.738-2.661-4.16-3.937
					c-1.431-1.285-3.041-2.344-4.472-3.62C465.786,215.051,464.821,215.996,465.468,216.62L465.468,216.62z"/>
			</g>
		</g>
	</g>
	<g>
		<g>
			<path style="fill:#FAF1DD;" d="M308.786,274.616c-1.748-0.188-76.299,0.343-77.23-0.17c-3.377-11.786-16.42-25.175-11.769-37.339
				c8.914-5.358,20.636,3.802,30.817,0.961c23.56-0.145,35.319-21.879,45.397-11.883
				C307.593,238.731,310.993,259.95,308.786,274.616z"/>
			<path style="fill:#755A58;" d="M322.008,274.948c-2.407,8.781-15.251,11.789-19.829,3.259
				c-3.112,5.157-11.267,4.513-13.636-0.997c-14.403,5.589-14.334-19.143-3.161-23.346c18.192-4.466,22.166-5.001,11.957-23.478
				c-17.523,21.437-52.07,23.775-74.72,9.274c-0.457,15.173,21.24,15.333,24.734,28.649c2.449,6.553-4.891,14.651-11.398,11.033
				c-2.764,3.393-8.14,5.94-12.274,3.664c-0.551-0.122-1.102-0.276-1.638-0.47c-12.857,10.838-24.971-6.884-19.455-19.383
				c3.46-10.077,12.078-17.162,16.342-26.801c-27.073-14.753-13.344-49.302-16.553-73.69c-2.71-19.731-16.584-35.96-34.187-44.449
				c-24.161-24.268,46.621-27.852,65.235,20.898l25.674-1.865c-6.481-54.572,68.284-78.687,48.763-45.04
				c-12.794,10.416-20.559,26.516-18.289,43.184c1.018,18.975,19.148,29.133,25.544,45.672c5.62,15.371-0.094,33.686-13.426,43.161
				C301.926,243.611,327.953,254.923,322.008,274.948z"/>
			<path style="fill:#FAF1DD;" d="M299.082,213.37c-3.806,6.388-11.483,6.516-18.046,7.028c-7.009,9.621-24.618,14.332-34.381,7.921
				c-26.71,14.698-38.02-18.138-17.84-33.361c0.075-21.507,29.072-26.951,3.561-53.399c-1.373-1.588,2.068-2.098,3.002-2.61
				c41.36-16.178,4.827,21.448,32.761,32.614c17.313,4.762,10.987,13.384,25.972,18.45c-0.008-0.008-0.016-0.016-0.024-0.016
				C301.032,194.816,303.735,205.902,299.082,213.37z"/>
			<path style="fill:#EAAC8E;" d="M283.973,217.459c-5.888-2.514-11.378-6.604-15.24-11.723c-3.533-4.684-5.435-10.197-6.176-15.93
				c-3.202,3.989-8.114,6.34-13.098,3.223c0.548,1.902,0.938,3.854,1.171,5.856c0.79,6.774,0.361,14.256-2.384,20.566
				c-1.349,3.101-3.421,5.743-5.956,7.966c-2.283,2.002-4.979,3.929-7.963,4.742c10.531,2.805,24.89-17.964,23.224-33.888
				c5.813,14.028,24.398,29.841,33.409,21.124C288.566,219.07,286.23,218.423,283.973,217.459z"/>
			<path style="fill:#49312C;" d="M229.955,177.551c2.154,10.225-11.021,12.843-12.939,2.571
				C214.862,169.898,228.037,167.279,229.955,177.551z"/>
			<path style="fill:#49312C;" d="M275.363,168.107c1.919,10.272,15.094,7.654,12.939-2.572
				C286.383,155.264,273.209,157.882,275.363,168.107z"/>
			<path style="fill:#EAAC8E;" d="M312.649,85.4c-8.658,23.971,13.189,65.432-11.84,75.965
				c-3.451-8.621-13.436-12.498-16.826-21.156C278.305,119.382,289.293,85.566,312.649,85.4z"/>
			<path style="fill:#EAAC8E;" d="M208.973,145.767c4.417,6.327-3.271,41.002-10.845,34.307
				c-23.109-12.64-17.728-44.131-32.796-62.919c-0.859-6.337,7.933-3.32,11.392-2.488
				C191.704,118.88,204.374,130.847,208.973,145.767z"/>
		</g>
		<g>
			<g>
				<path style="fill:#49312C;" d="M208.289,162.353c-0.546,1.626-1.28,3.191-1.863,4.809c-0.579,1.608-1.033,3.266-1.536,4.899
					c-1.022,3.317-1.954,6.663-2.894,10.004c-1.82,6.471-3.443,13.105-3.532,19.864c-0.156,11.905,5.02,23.598,13.992,31.438
					c4.738,4.139,10.37,7.205,16.428,8.904c1.306,0.366,1.86-1.653,0.559-2.029c-10.635-3.076-19.583-10.592-24.382-20.579
					c-2.464-5.126-3.822-10.845-3.902-16.532c-0.091-6.466,1.398-12.784,3.067-18.989c0.952-3.541,2.009-7.055,2.92-10.607
					c0.441-1.722,0.921-3.439,1.326-5.17c0.438-1.877,0.622-3.798,1.053-5.671C209.71,161.887,208.551,161.573,208.289,162.353
					L208.289,162.353z"/>
			</g>
			<g>
				<path style="fill:#49312C;" d="M256.392,196.076c0.119-0.283-0.178,0.364-0.163,0.323c-0.196,0.532-0.171,1.128-0.272,1.687
					c-0.292,1.617-0.411,3.252-0.567,4.889c-0.359,3.768-0.694,7.66-1.925,11.264c-1.524,4.462-4.371,8.364-7.975,11.372
					c-3.845,3.21-8.947,5.76-14.076,5.436c-5.175-0.326-10.273-4.297-10.591-9.709c-0.075-1.28-2.082-1.286-1.999,0
					c0.319,5.003,3.952,9.083,8.515,10.863c5.392,2.102,11.82,0.855,16.715-1.943c4.568-2.61,8.316-6.635,10.711-11.313
					c2.119-4.141,2.903-8.716,3.257-13.315c0.166-2.157,0.334-4.366,0.174-6.528c-0.079-1.06-0.154-2.215-0.493-3.027
					C257.435,195.434,256.661,195.436,256.392,196.076L256.392,196.076z"/>
			</g>
			<g>
				<path style="fill:#49312C;" d="M219.304,216.735c-0.69-1.548-0.745-3.725-0.432-5.36c0.348-1.817,1.157-3.518,2.238-5.012
					c2.382-3.293,6.024-5.426,9.329-7.666c0.882-0.598,0.088-2.007-0.844-1.444c-3.883,2.342-8.106,4.648-10.787,8.433
					c-1.234,1.741-2.029,3.833-2.262,5.954c-0.108,0.985-0.082,1.995,0.108,2.97c0.216,1.107,0.793,1.945,1.431,2.837
					C218.619,218.193,219.674,217.565,219.304,216.735L219.304,216.735z"/>
			</g>
			<g>
				<path style="fill:#49312C;" d="M233.881,139.063c-2.686-10.972-10.399-20.658-19.247-27.415
					c-9.86-7.53-22.126-11.649-34.526-11.718c-5.181-0.029-11.842,0.171-15.731,4.136c-1.991,2.03-2.795,4.9-2.497,7.698
					c0.336,3.146,1.818,5.92,3.408,8.599c3.416,5.756,6.307,11.748,8.433,18.104c2.1,6.28,3.326,12.799,5.196,19.144
					c3.101,10.519,9.212,22.071,20.732,25.007c1.295,0.33,2.627,0.512,3.96,0.578c1.614,0.08,1.61-2.431,0-2.509
					c-11.028-0.533-18.135-11.024-21.384-20.488c-1.999-5.824-3.181-11.881-4.839-17.802c-1.682-6.007-3.96-11.846-6.813-17.394
					c-1.389-2.701-3.031-5.253-4.459-7.93c-1.353-2.536-2.526-5.629-1.647-8.52c1.515-4.983,8.319-5.394,12.594-5.589
					c11.625-0.53,23.47,2.648,33.178,9.097c4.978,3.306,9.413,7.482,13.065,12.21c3.67,4.752,6.451,10.042,8.951,15.477
					C232.69,140.689,234.112,140.008,233.881,139.063L233.881,139.063z"/>
			</g>
			<g>
				<path style="fill:#49312C;" d="M213.879,151.95c-1.766-2.443-3.35-5.063-4.706-7.755c-1.374-2.729-2.282-5.562-3.233-8.452
					c-0.492-1.495-2.688-0.891-2.357,0.65c0.661,3.074,2.009,6.11,3.467,8.881c1.484,2.823,3.318,5.375,5.464,7.73
					C213.167,153.719,214.464,152.758,213.879,151.95L213.879,151.95z"/>
			</g>
			<g>
				<path style="fill:#49312C;" d="M209.651,153.815c-1.169-1.629-2.294-3.287-3.477-4.907c-1.2-1.643-2.36-3.359-3.687-4.903
					c-0.83-0.965-2.502,0.309-1.775,1.37c1.15,1.679,2.511,3.241,3.79,4.823c1.26,1.559,2.573,3.073,3.846,4.622
					C208.94,155.541,210.201,154.582,209.651,153.815L209.651,153.815z"/>
			</g>
			<g>
				<path style="fill:#49312C;" d="M206.911,154.54c-1.04,0.37-2.086,0.701-3.137,1.037c-1.049,0.335-2.076,0.758-3.109,1.139
					c-0.569,0.21-1.017,0.798-0.812,1.431c0.176,0.544,0.826,1.055,1.431,0.812c1.077-0.432,2.175-0.831,3.234-1.305
					c0.987-0.442,1.904-0.875,2.897-1.287c0.472-0.196,0.809-0.628,0.662-1.165C207.948,154.735,207.395,154.367,206.911,154.54
					L206.911,154.54z"/>
			</g>
			<g>
				<path style="fill:#49312C;" d="M205.872,160.748c-0.362,0.092-0.733,0.143-1.094,0.238c-0.389,0.103-0.77,0.286-1.134,0.452
					c-0.721,0.329-1.378,0.805-1.993,1.299c-1.173,0.941-2.158,2.266-2.771,3.633c-0.244,0.544-0.175,1.255,0.41,1.564
					c0.513,0.271,1.285,0.164,1.564-0.41c0.299-0.616,0.647-1.216,1.046-1.774c0.055-0.076,0.111-0.151,0.166-0.226
					c-0.154,0.21,0.034-0.04,0.054-0.066c0.099-0.121,0.2-0.241,0.304-0.357c0.24-0.269,0.497-0.519,0.754-0.771
					c0.245-0.24,0.497-0.471,0.762-0.688c0.06-0.049,0.12-0.098,0.182-0.146c-0.166,0.129,0.079-0.056,0.091-0.064
					c0.14-0.102,0.279-0.204,0.419-0.305c0.279-0.201,0.578-0.372,0.858-0.571c0.295-0.21,0.582-0.402,0.916-0.543
					c0.313-0.133,0.407-0.584,0.283-0.865C206.55,160.832,206.214,160.661,205.872,160.748L205.872,160.748z"/>
			</g>
			<g>
				<path style="fill:#49312C;" d="M223.772,145.328c0.812-0.454,1.792-0.707,2.646-1.096c0.864-0.393,1.725-0.792,2.59-1.181
					c1.74-0.783,3.503-1.518,5.299-2.163c3.559-1.277,7.238-2.243,10.964-2.882c3.736-0.641,7.536-0.921,11.326-0.864
					c1.891,0.028,3.781,0.143,5.662,0.344c1.873,0.201,3.733,0.678,5.607,0.808c1.397,0.097,1.531-1.927,0.316-2.336
					c-1.427-0.48-3.025-0.604-4.514-0.795c-1.524-0.196-3.055-0.336-4.59-0.418c-3.07-0.164-6.151-0.101-9.212,0.185
					c-6.064,0.567-12.03,1.955-17.687,4.219c-1.575,0.631-3.131,1.311-4.635,2.098c-0.73,0.382-1.454,0.792-2.152,1.229
					c-0.814,0.51-1.487,1.203-2.287,1.711C222.391,144.643,223.026,145.745,223.772,145.328L223.772,145.328z"/>
			</g>
			<g>
				<path style="fill:#49312C;" d="M244.338,228.06c0.349,0.625,0.53,1.245,1.028,1.786c0.4,0.435,0.917,0.808,1.411,1.129
					c1.09,0.709,2.363,1.168,3.605,1.534c2.801,0.827,5.799,1.137,8.714,1.081c2.882-0.055,5.775-0.493,8.542-1.301
					c2.713-0.792,5.924-1.844,8.014-3.835c0.77-0.733-0.019-2.224-1.074-1.846c-2.435,0.872-4.631,2.284-7.122,3.062
					c-2.489,0.776-5.061,1.236-7.666,1.358c-2.557,0.12-5.083-0.102-7.591-0.605c-1.164-0.234-2.334-0.494-3.437-0.942
					c-0.583-0.236-1.153-0.52-1.682-0.86c-0.491-0.315-1.299-0.732-1.645-1.201C244.959,226.778,243.931,227.331,244.338,228.06
					L244.338,228.06z"/>
			</g>
			<g>
				<path style="fill:#49312C;" d="M217.527,235.835c-0.901,1.207-1.344,2.867-2.012,4.221c-0.702,1.423-1.521,2.784-2.365,4.127
					c-1.711,2.722-3.678,5.271-5.6,7.845c-3.772,5.052-7.504,10.442-8.575,16.794c-0.561,3.328-0.517,7.149,1.222,10.151
					c0.593,1.023,2.111,0.326,1.863-0.785c-0.418-1.873-0.804-3.69-0.772-5.623c0.032-1.923,0.351-3.822,0.895-5.664
					c1.124-3.808,3.234-7.231,5.496-10.461c2.28-3.256,4.789-6.348,6.953-9.685c1.068-1.646,2.026-3.348,2.821-5.143
					c0.701-1.582,1.671-3.63,1.46-5.4C218.825,235.458,217.985,235.222,217.527,235.835L217.527,235.835z"/>
			</g>
			<g>
				<path style="fill:#49312C;" d="M203.262,282.003c0.464,0.694,0.944,1.391,1.528,1.991c0.596,0.613,1.331,1.106,2.1,1.472
					c1.555,0.74,3.339,1.18,5.067,0.996c0.551-0.059,1.026-0.43,1.026-1.026c0-0.53-0.47-1.059-1.026-1.026
					c-1.459,0.087-2.797-0.056-4.15-0.635c-1.31-0.56-2.734-1.35-3.642-2.469C203.756,280.801,202.901,281.462,203.262,282.003
					L203.262,282.003z"/>
			</g>
			<g>
				<path style="fill:#49312C;" d="M206.958,266.194c1.272-4.196,5.556-6.726,9.433-8.079c4.427-1.546,9.243-2.851,13.966-2.578
					c4.278,0.247,8.185,2.055,10.689,5.607c2.456,3.483,4.204,7.976,4.116,12.272c-0.089,4.396-3.643,9.304-8.517,7.707
					c-1.219-0.4-1.734,1.51-0.528,1.915c4.612,1.551,9.234-1.6,10.861-5.867c1.889-4.956,0.217-10.455-2.139-14.95
					c-2.365-4.512-6.144-7.755-11.195-8.797c-5.53-1.141-11.214,0.287-16.474,1.995c-5.191,1.686-10.559,4.544-11.548,10.406
					C205.477,266.69,206.694,267.064,206.958,266.194L206.958,266.194z"/>
			</g>
			<g>
				<path style="fill:#49312C;" d="M232.438,274.682c1,1.646,2.149,3.868,1.61,5.849c-0.446,1.636-2.45,2.219-3.882,2.638
					c-1.722,0.503-3.835,1.123-5.49,0.103c-0.573-0.353-1.039-0.945-1.3-1.6c-0.292-0.735-0.206-1.474-0.194-2.249
					c0.018-1.132-1.559-1.543-2.119-0.574c-0.927,1.605-0.434,3.902,0.609,5.344c1.295,1.789,3.311,2.591,5.499,2.471
					c2.036-0.111,4.173-0.699,6.019-1.558c1.947-0.905,3.234-2.578,3.361-4.755c0.071-1.205-0.269-2.376-0.819-3.437
					c-0.594-1.145-1.455-2.04-2.249-3.039C233.01,273.276,232.052,274.046,232.438,274.682L232.438,274.682z"/>
			</g>
			<g>
				<path style="fill:#49312C;" d="M221.539,279.5c-0.233,0.849-0.743,1.724-1.214,2.462c-0.446,0.698-0.961,1.362-1.605,1.89
					c-1.258,1.03-2.804,1.484-4.38,1.285c-1.369-0.173-2.733-1.034-3.456-2.291c-0.766-1.333-0.731-2.855-0.152-4.32
					c0.217-0.549-0.193-1.216-0.696-1.418c-0.587-0.236-1.144-0.009-1.501,0.492c-2.17,3.04-0.675,7.654,2.357,9.488
					c3.276,1.982,7.747,1.274,10.199-1.663c0.682-0.817,1.205-1.68,1.55-2.689c0.348-1.021,0.334-1.995,0.259-3.052
					C222.845,278.931,221.755,278.713,221.539,279.5L221.539,279.5z"/>
			</g>
			<g>
				<path style="fill:#49312C;" d="M215.284,169.569c0.8-0.213,1.434-0.682,2.142-1.092c0.708-0.41,1.43-0.807,2.184-1.128
					c0.219-0.093-0.129,0.051,0.09-0.036c0.089-0.035,0.178-0.071,0.268-0.105c0.179-0.068,0.36-0.133,0.541-0.197
					c0.386-0.136,0.775-0.261,1.17-0.368c0.372-0.101,0.748-0.189,1.126-0.262c0.213-0.041,0.427-0.077,0.642-0.11
					c0.241-0.037-0.185,0.021,0.056-0.008c0.119-0.014,0.239-0.027,0.358-0.039c0.845-0.086,1.515-0.696,1.393-1.606
					c-0.123-0.915-0.927-1.302-1.77-1.179c-1.783,0.26-3.513,0.82-5.111,1.655c-0.798,0.417-1.548,0.9-2.252,1.461
					c-0.748,0.596-1.402,1.203-1.731,2.122C214.2,169.213,214.782,169.703,215.284,169.569L215.284,169.569z"/>
			</g>
			<g>
				<path style="fill:#49312C;" d="M288.514,146.497c0.943,1.325,1.729,2.758,2.642,4.107c0.992,1.466,2.099,2.858,3.161,4.274
					c1.924,2.565,3.923,5.071,5.895,7.599c3.648,4.676,7.271,9.439,9.959,14.749c5.395,10.654,5.85,23.57,0.78,34.44
					c-2.597,5.569-6.445,10.426-11.245,14.259c-1.061,0.847,0.437,2.313,1.488,1.488c9.133-7.173,14.953-18.074,15.805-29.655
					c0.465-6.31-0.552-12.709-2.973-18.555c-2.391-5.773-5.942-10.933-9.746-15.857c-2.272-2.94-4.567-5.873-6.917-8.752
					c-1.251-1.532-2.507-3.065-3.785-4.574c-1.277-1.509-2.765-2.813-4.059-4.3C289.048,145.179,288.09,145.901,288.514,146.497
					L288.514,146.497z"/>
			</g>
			<path style="fill:#49312C;" d="M269.873,191.992c-1.02,0.711-2.308,1.087-3.529,0.878c-1.23-0.217-2.367-1.079-2.735-2.267
				c-0.083-0.276-0.134-0.552-0.151-0.836l-0.192,0.017c-0.184,1.43-5.077,5.754-6.423,5.253c-1.062,0.979-6.708-0.828-7.419-2.083
				l-0.201,0.017c0.092,0.284,0.167,0.569,0.192,0.87c0.117,1.238-0.602,2.476-1.656,3.145c-1.054,0.661-2.384,0.803-3.605,0.535
				c-3.329-0.719-5.512-4.341-5.294-7.745c0.217-3.396,2.4-6.44,5.144-8.448c2.752-2.016,6.03-3.153,9.284-4.165
				c3.396-0.309,7.226-1.004,10.539-0.192c3.304,0.803,6.482,2.777,7.988,5.838C273.311,185.87,272.675,190.052,269.873,191.992z"/>
			<g>
				<path style="fill:#49312C;" d="M256.352,195.839c0.027,0.876,0.339,1.598,0.603,2.432c0.567,1.791,1.458,3.501,2.321,5.166
					c2.079,4.012,4.431,8.078,7.705,11.245c7.653,7.402,20.721,10.744,29.993,4.293c4.535-3.156,7.305-9.124,5.458-14.547
					c-0.413-1.212-2.35-0.688-1.928,0.532c1.581,4.566-0.644,9.639-4.555,12.262c-4.103,2.752-9.508,2.885-14.198,1.862
					c-4.771-1.041-9.189-3.3-12.722-6.683c-2.949-2.824-5.016-6.411-7.036-9.923c-0.974-1.695-1.852-3.472-2.964-5.081
					c-0.542-0.785-0.926-1.496-1.517-2.038C257.096,194.977,256.332,195.225,256.352,195.839L256.352,195.839z"/>
			</g>
			<g>
				<path style="fill:#49312C;" d="M301.566,200.526c0.227-1.013,0.436-1.903,0.303-2.955c-0.128-1.009-0.519-1.998-0.976-2.9
					c-0.947-1.867-2.465-3.457-4.18-4.637c-3.874-2.664-8.858-3.152-13.376-3.838c-1.039-0.158-1.517,1.392-0.445,1.613
					c4.041,0.833,8.317,1.438,11.872,3.677c1.517,0.956,2.885,2.221,3.838,3.748c0.886,1.419,1.642,3.4,1.579,5.104
					C300.151,201.126,301.391,201.307,301.566,200.526L301.566,200.526z"/>
			</g>
			<g>
				<path style="fill:#49312C;" d="M258.791,133.935c0.23-5.818,0.759-11.559,2.251-17.206c1.482-5.605,3.818-10.964,6.953-15.843
					c5.72-8.903,14.215-16.007,23.835-20.36c2.376-1.075,4.852-2.001,7.367-2.694c2.398-0.66,5.091-1.138,7.519-0.373
					c6.202,1.954,4.541,10.235,3.91,14.984c-0.856,6.444-1.034,12.969-0.496,19.448c0.537,6.468,1.878,12.836,2.495,19.294
					c0.591,6.195,0.408,12.343-1.808,18.217c-1.867,4.948-5.213,9.319-10.065,11.605c-1.459,0.687-0.187,2.854,1.267,2.167
					c9.895-4.679,13.417-16.385,13.29-26.556c-0.087-6.965-1.533-13.807-2.396-20.695c-0.868-6.921-0.98-13.918-0.258-20.859
					c0.618-5.939,2.642-12.763-1.76-17.787c-3.939-4.496-10.708-2.971-15.611-1.3c-10.73,3.657-20.315,10.613-27.149,19.649
					c-7.354,9.722-11.63,21.787-11.516,34.008c0.014,1.524,0.198,3.032,0.427,4.537
					C257.202,135.198,258.753,134.891,258.791,133.935L258.791,133.935z"/>
			</g>
			<g>
				<path style="fill:#49312C;" d="M282.128,138.654c2.117-5.874,2.954-12.648,1.831-18.836c-0.244-1.345-2.502-1.049-2.4,0.325
					c0.224,3.033,0.469,6.002,0.264,9.048c-0.203,3.02-0.673,6.056-1.371,9.001C280.191,139.292,281.752,139.698,282.128,138.654
					L282.128,138.654z"/>
			</g>
			<g>
				<path style="fill:#49312C;" d="M286.672,138.745c0.579-1.897,1.207-3.777,1.77-5.68c0.559-1.891,1.204-3.793,1.611-5.724
					c0.3-1.423-1.724-1.988-2.18-0.601c-0.617,1.875-1.014,3.843-1.48,5.76c-0.469,1.929-0.869,3.871-1.321,5.803
					C284.828,139.343,286.36,139.768,286.672,138.745L286.672,138.745z"/>
			</g>
			<g>
				<path style="fill:#49312C;" d="M287.975,139.921c1.108,0.001,2.208,0.041,3.315,0.079c1.101,0.038,2.213-0.016,3.315-0.027
					c0.608-0.006,1.191-0.531,1.163-1.163c-0.027-0.61-0.512-1.189-1.163-1.163c-1.102,0.043-2.216,0.044-3.315,0.136
					c-1.106,0.093-2.206,0.187-3.315,0.243c-0.511,0.026-0.948,0.417-0.948,0.947C287.028,139.488,287.461,139.921,287.975,139.921
					L287.975,139.921z"/>
			</g>
			<g>
				<path style="fill:#49312C;" d="M291.277,144.753c0.625,0.007,1.29,0.186,1.898,0.332c0.663,0.159,1.311,0.339,1.947,0.59
					c1.151,0.454,2.332,1.188,3.181,1.939c0.462,0.409,1.162,0.455,1.617,0c0.428-0.428,0.452-1.193,0-1.617
					c-1.165-1.096-2.616-1.965-4.151-2.431c-0.747-0.227-1.553-0.38-2.333-0.414c-0.809-0.035-1.55,0.128-2.343,0.241
					C290.303,143.505,290.521,144.744,291.277,144.753L291.277,144.753z"/>
			</g>
			<g>
				<path style="fill:#49312C;" d="M286.291,153.889c-0.622-0.687-1.484-0.98-2.352-1.24c-0.904-0.27-1.848-0.405-2.786-0.49
					c-1.809-0.165-3.652,0.031-5.41,0.474c-0.743,0.187-1.19,1.018-0.99,1.744c0.2,0.729,1.008,1.21,1.744,0.99
					c1.529-0.456,2.972-0.646,4.57-0.633c0.8,0.007,1.6,0.081,2.393,0.186c0.78,0.104,1.53,0.308,2.318,0.206
					C286.394,155.048,286.745,154.391,286.291,153.889L286.291,153.889z"/>
			</g>
			<g>
				<path style="fill:#49312C;" d="M304.889,233.356c-0.21,1.77,0.759,3.818,1.46,5.4c0.795,1.795,1.754,3.496,2.821,5.142
					c2.164,3.337,4.673,6.43,6.953,9.685c2.262,3.23,4.372,6.653,5.496,10.461c0.544,1.843,0.863,3.742,0.895,5.665
					c0.032,1.933-0.354,3.75-0.773,5.623c-0.246,1.101,1.265,1.818,1.863,0.786c3.128-5.4,1.198-12.665-1.412-17.848
					c-2.895-5.749-7.306-10.524-10.841-15.86c-0.977-1.475-1.916-2.989-2.734-4.559c-0.391-0.751-0.756-1.518-1.111-2.287
					c-0.394-0.853-0.665-1.827-1.23-2.584C305.82,232.368,304.979,232.602,304.889,233.356L304.889,233.356z"/>
			</g>
			<g>
				<path style="fill:#49312C;" d="M319.639,278.451c-0.907,1.119-2.332,1.909-3.642,2.469c-1.353,0.578-2.692,0.722-4.15,0.634
					c-0.554-0.033-1.026,0.495-1.026,1.026c0,0.603,0.473,0.967,1.026,1.026c1.728,0.184,3.512-0.256,5.067-0.996
					c0.751-0.357,1.47-0.835,2.057-1.428c0.603-0.609,1.096-1.324,1.571-2.035C320.9,278.613,320.053,277.941,319.639,278.451
					L319.639,278.451z"/>
			</g>
			<g>
				<path style="fill:#49312C;" d="M318.182,262.97c-0.87-5.161-5.201-8.077-9.811-9.804c-5.058-1.895-10.876-3.528-16.319-2.892
					c-2.457,0.288-4.923,0.968-7.048,2.269c-2.107,1.29-3.795,3.155-5.116,5.226c-2.73,4.281-4.672,9.87-3.542,14.949
					c1.111,4.993,6.056,9.242,11.341,7.464c1.204-0.405,0.693-2.316-0.528-1.915c-4.26,1.396-7.673-2.298-8.379-6.219
					c-0.762-4.234,1.025-8.909,3.162-12.496c2.214-3.717,5.628-6.082,9.927-6.719c4.717-0.699,9.494,0.535,13.974,1.914
					c4.404,1.356,9.546,3.783,11.004,8.592C317.109,264.207,318.328,263.836,318.182,262.97L318.182,262.97z"/>
			</g>
			<g>
				<path style="fill:#49312C;" d="M290.319,271.019c-0.671,0.846-1.406,1.607-1.968,2.538c-0.58,0.963-0.961,1.984-1.078,3.103
					c-0.225,2.148,0.819,4.139,2.659,5.233c1.665,0.99,3.751,1.535,5.656,1.802c2.14,0.3,4.455-0.004,5.992-1.67
					c1.393-1.511,2.259-4.13,1.16-6.032c-0.559-0.968-2.137-0.559-2.119,0.574c0.012,0.776,0.096,1.512-0.194,2.249
					c-0.258,0.656-0.727,1.247-1.3,1.6c-1.655,1.02-3.768,0.4-5.49-0.103c-1.432-0.418-3.436-1.001-3.882-2.637
					c-0.54-1.98,0.611-4.203,1.61-5.849C291.748,271.197,290.799,270.415,290.319,271.019L290.319,271.019z"/>
			</g>
			<g>
				<path style="fill:#49312C;" d="M300.905,276.829c-0.133,1.862,0.168,3.555,1.304,5.094c1.141,1.546,2.662,2.747,4.559,3.193
					c1.884,0.443,3.831,0.238,5.58-0.582c1.728-0.81,2.885-2.294,3.529-4.059c0.664-1.819,0.537-4.129-0.607-5.731
					c-0.347-0.486-0.921-0.747-1.501-0.492c-0.499,0.219-0.919,0.853-0.696,1.418c0.578,1.464,0.612,2.993-0.152,4.32
					c-0.726,1.262-2.09,2.118-3.456,2.291c-1.582,0.2-3.124-0.257-4.38-1.285c-0.644-0.527-1.158-1.192-1.605-1.89
					c-0.472-0.738-0.981-1.614-1.214-2.462C302.051,275.864,300.959,276.069,300.905,276.829L300.905,276.829z"/>
			</g>
		</g>
	</g>
	<g>
		<g>
			<path style="fill:#755A58;" d="M659.22,173.888c2.857-13.769,3.705-30.093,0.858-49.886c0.51-7.385-4.567-18.66-11.258-25.92
				c0.008-0.393-0.142-0.795-0.535-1.146c-4.023-3.546-8.707-7.469-14.445-7.001c-2.367,0.192-4.717,1.021-6.423,2.735
				c-1.924,1.932-2.643,4.692-2.484,7.36c0.343,5.78,3.446,11.233,6.239,16.159c1.33,2.342,2.618,4.692,3.822,7.084
				c0.493,1.33,0.979,2.66,1.447,3.998c4.611,13.01,8.113,26.311,6.459,39.962C647.149,171.285,653.027,173.445,659.22,173.888z"/>
			<path style="fill:#FAF1DD;" d="M642.9,167.233c-1.136,9.378-4.705,18.921-12.021,28.648c1.999-5.637-7.143-19.965-3.279-23.176
				c-0.042-0.192-0.092-0.368-0.142-0.56c4.207-4.809,6.582-10.898,8.046-17.063c1.706-7.227,2.576-15.013,1.815-22.424
				c-0.184-1.815-0.519-3.613-1.129-5.294c-0.602-1.681-1.472-3.254-2.735-4.617c-2.208-6.649-23.461,2.902-27.501,5.068
				c-5.303,3.747-10.104,7.553-15.198,9.777c-0.226,0.293-0.468,0.577-0.727,0.853c-2.693,2.852-6.382,1.999-9.777,1.188
				c-0.443-0.109-0.895-0.209-1.347-0.301c-0.535-0.084-1.079-0.192-1.631-0.326c-2.493-0.442-5.021-0.688-7.549-0.715
				c2.36,18.78-2.626,38.215-17.742,50.531c-12.546,10.873-33.456,15.892-47.675,4.182c-1.655-1.655-3.238-3.381-4.684-5.207
				c-4.166,18.218,0.09,39.553,20.674,43.857c-3.379,6.683-4.542,14.336-3.32,21.721c-25.803,7.302-5.161,40.9,13.759,24.757
				c3.304,3.061,9.042,2.242,11.776-1.163c0.519,4.533,7.561-0.56,8.188-3.078c10.463,0.067,20.927,0.142,31.398,0.217
				c4.96,5.211,14.378,6.03,20.416,1.857c2.827,4.717,9.167,6.574,14.135,4.358c8.096,2.886,13.525-7.034,12.328-14.018
				c-18.092-25.807,19.725-41.755,30.239-92.418C653.027,173.445,647.149,171.285,642.9,167.233z"/>
			<path style="fill:#E7B387;" d="M551.984,188.823c15.115-12.316,20.102-31.751,17.742-50.531
				c-0.484-0.005-0.967-0.016-1.451-0.004c-3.755,0.084-7.636,1.204-11.208-0.519c-2.425-1.179-3.822-3.546-5.779-5.261
				c-9.686-6.382-18.058-16.945-30.646-19.981c-0.067-0.176-0.159-0.343-0.301-0.502c-1.137-1.313-3.061-1.589-4.642-1.004
				c-1.781,0.669-2.827,2.2-3.496,3.906c-0.744,1.89-1.213,3.914-1.715,5.88c-0.569,2.191-1.071,4.4-1.506,6.616
				c-1.597,8.155-2.534,16.92-1.07,25.159c0.519,2.911,1.547,5.838,3.379,8.163c-2.609,4.583-4.751,9.502-6.724,13.583
				c-2.145,4.018-3.836,8.636-4.941,13.47c1.446,1.827,3.029,3.552,4.684,5.207C518.528,204.714,539.438,199.696,551.984,188.823z"
				/>
			<path style="fill:#EAAC8E;" d="M620.938,159.531c2.289,1.797,3.772,4.057,4.82,6.551c0.465-0.803,0.92-1.602,1.374-2.354
				c6.552-10.858,10.777-26.261,2.753-37.452c-1.159,0.283-2.296,0.657-3.398,1.131c-7.461,3.212-13.352,9.803-17.016,17.18
				c-1.135,3.377-1.743,6.848-1.61,10.131C612.562,155.239,617.151,156.558,620.938,159.531z"/>
			<path style="fill:#EAAC8E;" d="M533.834,136.883c-0.341-2.769-1.377-5.438-2.619-7.916c-1.323-2.639-2.861-5.228-4.725-7.525
				c-1.931-2.381-4.141-4.297-6.96-5.541c-1.264-0.558-2.566-1.018-3.872-1.47c-0.02,0.048-0.033,0.096-0.058,0.145
				c-1.774,3.404-3.209,6.96-4.294,10.642c-0.858,2.911-1.485,5.904-1.883,8.927c-0.109,3.369,0.031,6.752,0.337,10.084
				c0.375,4.094,1.284,8.014,2.255,11.996c0.119,0.489,0.213,1.023,0.304,1.571c3.421-4.285,7.792-7.453,12.918-9.529
				c2.355-0.953,4.791-1.649,7.265-2.199C533.634,143.128,534.224,140.049,533.834,136.883z"/>
		</g>
		<g>
			<g>
				<path style="fill:#49312C;" d="M514.291,152.812c-1.099,3.226-2.765,6.291-4.216,9.37c-1.414,3.002-2.915,5.963-4.373,8.943
					c-2.995,6.121-5.93,12.34-7.662,18.956c-1.622,6.196-2.176,12.773-0.678,19.051c1.233,5.169,3.786,9.978,7.217,14.021
					c3.841,4.527,9.001,8.273,14.727,9.973c1.487,0.441,2.022-1.746,0.629-2.281c-9.548-3.667-17.141-11.394-19.882-21.359
					c-3.434-12.484,2-25.18,7.355-36.258c1.586-3.281,3.191-6.549,4.644-9.892c1.445-3.326,2.406-6.729,3.425-10.199
					C515.7,152.374,514.544,152.069,514.291,152.812L514.291,152.812z"/>
			</g>
			<g>
				<path style="fill:#49312C;" d="M556.296,138.335c-1.29-3.014-3.633-5.62-5.786-8.059c-2.215-2.509-4.627-4.834-7.18-6.996
					c-5.056-4.282-10.672-7.878-16.687-10.656c-1.507-0.696-3.038-1.345-4.588-1.941c-1.566-0.603-3.186-1.187-4.884-1.226
					c-3.548-0.081-5.466,2.633-6.562,5.651c-2.636,7.258-4.879,14.873-5.65,22.578c-0.775,7.752,0.192,16.387,4.552,23.038
					c0.848,1.294,2.863,0.144,2.088-1.22c-3.283-5.778-4.579-12.125-4.356-18.744c0.246-7.284,2.253-14.397,4.425-21.309
					c0.764-2.432,1.447-6.927,4.45-7.596c1.616-0.36,3.36,0.331,4.85,0.889c1.42,0.531,2.822,1.111,4.202,1.739
					c5.588,2.54,10.861,5.815,15.632,9.677c2.688,2.176,5.205,4.551,7.579,7.064c2.398,2.539,4.379,5.485,6.877,7.913
					C555.834,139.693,556.577,138.991,556.296,138.335L556.296,138.335z"/>
			</g>
			<g>
				<path style="fill:#49312C;" d="M531.296,146.42c-1.377-2.273-3.137-4.288-5.143-6.028c-0.993-0.862-2.04-1.668-3.126-2.409
					c-1.136-0.775-2.305-1.537-3.611-1.987c-1.141-0.393-1.657,1.223-0.775,1.839c1.029,0.719,2.164,1.275,3.216,1.964
					c1.029,0.674,2.016,1.406,2.953,2.202c1.912,1.624,3.648,3.447,5.266,5.361C530.649,148.043,531.747,147.165,531.296,146.42
					L531.296,146.42z"/>
			</g>
			<g>
				<path style="fill:#49312C;" d="M526.354,145.786c-1.301-0.234-2.602-0.468-3.902-0.704c-0.64-0.116-1.284-0.203-1.928-0.294
					c-0.696-0.099-1.566-0.374-2.247-0.125c-0.796,0.292-0.906,1.246-0.226,1.732c0.571,0.409,1.442,0.377,2.117,0.465
					c0.67,0.088,1.338,0.18,2.011,0.242c1.316,0.121,2.632,0.243,3.948,0.365C527.079,147.556,527.304,145.957,526.354,145.786
					L526.354,145.786z"/>
			</g>
			<g>
				<path style="fill:#49312C;" d="M521.998,147.869c-0.874,0.12-1.748,0.24-2.623,0.36c-0.428,0.059-0.858,0.111-1.284,0.181
					c-0.443,0.072-0.889,0.122-1.313,0.271c-0.477,0.167-0.79,0.588-0.721,1.104c0.067,0.502,0.483,0.855,0.988,0.872
					c0.508,0.018,1.012-0.086,1.515-0.158c0.444-0.063,0.886-0.142,1.328-0.217c0.884-0.149,1.768-0.299,2.652-0.448
					c0.527-0.089,0.869-0.767,0.712-1.254C523.064,147.998,522.567,147.791,521.998,147.869L521.998,147.869z"/>
			</g>
			<g>
				<path style="fill:#49312C;" d="M541.365,280.461c3.389,0.706,7.307,0.302,9.621-2.562c2.297-2.842,2.478-6.682,1.319-10.039
					c-2.316-6.708-8.128-12.206-14.547-14.997c-6.986-3.038-15.061-3.07-22.076-0.087c-6.524,2.775-12.027,8.322-12.877,15.596
					c-0.461,3.943,0.662,8.038,3.394,10.966c2.519,2.7,6.28,4.311,9.985,3.852c1.556-0.193,1.578-2.663,0-2.47
					c-6.139,0.752-10.931-4.58-10.987-10.467c-0.06-6.331,4.251-11.468,9.614-14.325c5.833-3.108,12.906-3.699,19.206-1.754
					c5.634,1.74,10.59,5.579,13.769,10.537c1.867,2.911,3.455,6.643,2.107,10.088c-1.417,3.62-5.278,3.652-8.526,4.389
					C540.743,279.329,540.729,280.328,541.365,280.461L541.365,280.461z"/>
			</g>
			<g>
				<path style="fill:#49312C;" d="M513.165,276.11c0.299,2.045,0.998,3.835,2.559,5.266c1.549,1.42,3.471,2.306,5.569,2.479
					c4.1,0.338,8.399-2.379,9.781-6.258c0.496-1.392-1.796-2.386-2.412-1.017c-1.307,2.903-3.951,4.97-7.255,4.762
					c-1.482-0.093-2.986-0.749-4.131-1.68c-1.209-0.983-2.464-2.367-2.927-3.879C514.112,275.007,513.053,275.346,513.165,276.11
					L513.165,276.11z"/>
			</g>
			<g>
				<path style="fill:#49312C;" d="M529.456,278.111c0.316,0.435,0.477,0.91,0.843,1.324c0.299,0.339,0.655,0.641,1.006,0.924
					c0.791,0.637,1.635,1.096,2.583,1.459c1.88,0.72,4.001,0.83,5.939,0.278c1.936-0.552,3.612-1.721,4.76-3.377
					c1.037-1.498,1.889-4.028,1.186-5.825c-0.501-1.282-2.402-1.152-2.464,0.333c-0.029,0.697,0.107,1.366-0.048,2.064
					c-0.163,0.734-0.433,1.4-0.842,2.031c-0.796,1.227-2.082,2.039-3.478,2.415c-1.424,0.384-2.923,0.312-4.32-0.144
					c-0.736-0.24-1.445-0.591-2.12-0.968c-0.333-0.186-0.646-0.398-0.964-0.608c-0.34-0.225-0.815-0.388-1.115-0.651
					C529.931,276.936,529.021,277.512,529.456,278.111L529.456,278.111z"/>
			</g>
			<g>
				<path style="fill:#49312C;" d="M529.003,272.014c0.084,0.993,0.234,1.99,0.266,2.987c0.017,0.508-0.001,1.017-0.054,1.523
					c-0.052,0.497-0.209,1-0.213,1.504c-0.006,0.738,1.12,1.12,1.461,0.396c0.261-0.555,0.317-1.185,0.369-1.791
					c0.046-0.542,0.052-1.088,0.018-1.631c-0.072-1.158-0.304-2.243-0.921-3.237C529.686,271.373,528.96,271.498,529.003,272.014
					L529.003,272.014z"/>
			</g>
			<g>
				<path style="fill:#49312C;" d="M624.33,163.249c0.243,3.273,0.394,6.511,1.008,9.745c0.622,3.274,1.402,6.511,2.198,9.746
					c1.56,6.341,3.096,12.727,3.504,19.266c0.384,6.154-0.168,12.537-2.769,18.201c-2.103,4.578-5.34,8.593-9.313,11.685
					c-4.559,3.549-9.875,5.585-15.551,6.472c-1.308,0.204-1.012,2.426,0.314,2.323c10.494-0.811,20.32-7.766,25.48-16.794
					c6.576-11.504,4.678-25.242,1.75-37.535c-0.895-3.758-1.875-7.496-2.795-11.248c-0.474-1.934-0.893-3.881-1.351-5.819
					c-0.472-2-1.009-3.996-1.248-6.042C625.469,162.482,624.27,162.448,624.33,163.249L624.33,163.249z"/>
			</g>
			<g>
				<path style="fill:#49312C;" d="M594.326,142.418c-1.759-0.863-3.458-1.641-5.328-2.265c-1.774-0.592-3.571-1.094-5.391-1.525
					c-3.776-0.894-7.625-1.492-11.493-1.8c-7.673-0.611-15.581-0.102-23.062,1.764c-1.146,0.286-0.66,2.015,0.486,1.764
					c7.38-1.617,14.844-2.277,22.39-1.692c7.519,0.583,14.791,2.531,21.939,4.842C594.501,143.709,594.936,142.717,594.326,142.418
					L594.326,142.418z"/>
			</g>
			<g>
				<path style="fill:#49312C;" d="M588.349,141.254c2.654-1.663,4.947-3.865,7.504-5.678c2.575-1.826,5.256-3.516,8.034-5.017
					c5.525-2.985,11.425-5.264,17.528-6.744c2.915-0.707,6.156-1.576,9.177-1.419c1.45,0.076,2.711,0.654,3.39,1.986
					c0.673,1.32,0.771,2.892,0.915,4.34c0.732,7.393,1.396,14.943,0.381,22.342c-0.98,7.143-3.633,13.81-8.457,19.217
					c-1.03,1.154,0.593,2.812,1.71,1.71c4.816-4.753,7.558-11.497,8.79-18.054c1.478-7.865,0.924-15.877,0.088-23.778
					c-0.321-3.035-0.373-6.822-3.046-8.849c-2.599-1.97-6.229-1.169-9.177-0.646c-6.714,1.192-13.268,3.335-19.393,6.332
					c-3.402,1.665-6.703,3.576-9.792,5.77c-3.049,2.166-6.376,4.505-8.554,7.585C587.059,140.898,587.811,141.591,588.349,141.254
					L588.349,141.254z"/>
			</g>
			<g>
				<path style="fill:#49312C;" d="M611.241,154.59c1.977-1.526,4.047-2.938,6.248-4.121c1.072-0.576,2.176-1.095,3.311-1.534
					c1.189-0.46,2.431-0.769,3.604-1.263c0.468-0.197,0.794-0.564,0.721-1.104c-0.06-0.446-0.491-0.933-0.988-0.872
					c-2.608,0.318-5.228,1.597-7.512,2.851c-2.335,1.282-4.496,2.885-6.326,4.822C609.722,153.979,610.514,155.151,611.241,154.59
					L611.241,154.59z"/>
			</g>
			<g>
				<path style="fill:#49312C;" d="M615.288,155.522c1.324,0.158,2.648,0.316,3.973,0.476c0.648,0.078,1.298,0.127,1.949,0.18
					c0.756,0.062,1.486,0.2,2.202-0.11c0.692-0.299,0.539-1.295,0-1.636c-0.601-0.38-1.439-0.319-2.127-0.368
					c-0.674-0.048-1.348-0.101-2.024-0.123c-1.324-0.043-2.648-0.087-3.973-0.131c-0.462-0.016-0.856,0.405-0.856,0.856
					C614.432,155.174,614.826,155.467,615.288,155.522L615.288,155.522z"/>
			</g>
			<g>
				<path style="fill:#49312C;" d="M618.318,158.65c0.82,0.326,1.639,0.653,2.458,0.979c0.394,0.157,0.787,0.32,1.185,0.467
					c0.428,0.158,0.849,0.339,1.299,0.419c0.499,0.09,0.981-0.094,1.187-0.583c0.195-0.463,0.019-0.992-0.412-1.257
					c-0.439-0.269-0.933-0.432-1.411-0.62c-0.409-0.161-0.825-0.306-1.239-0.456c-0.842-0.305-1.684-0.61-2.526-0.916
					c-0.502-0.182-1.138,0.204-1.254,0.712C617.471,157.984,617.786,158.438,618.318,158.65L618.318,158.65z"/>
			</g>
			<g>
				<path style="fill:#49312C;" d="M592.111,277.783c-2.862-0.649-6.362-0.632-8.058-3.454c-1.652-2.749-0.94-6.184,0.419-8.893
					c2.657-5.293,7.37-9.627,12.834-11.895c6.078-2.522,13.085-2.502,19.178-0.043c5.586,2.254,10.553,6.81,11.614,12.95
					c0.579,3.352-0.145,7.053-2.474,9.617c-2.132,2.347-5.16,3.638-8.332,3.25c-1.575-0.193-1.559,2.277,0,2.47
					c3.269,0.405,6.51-0.8,8.992-2.905c2.671-2.266,4.146-5.553,4.44-9.009c0.63-7.413-4.287-13.893-10.52-17.335
					c-6.638-3.665-14.865-4.416-22.059-2.021c-6.609,2.201-12.426,6.915-15.717,13.084c-1.934,3.625-2.863,7.996-0.73,11.751
					c2.122,3.735,6.494,4.521,10.411,3.705C592.747,278.924,592.734,277.924,592.111,277.783L592.111,277.783z"/>
			</g>
			<g>
				<path style="fill:#49312C;" d="M619.127,274.379c-0.453,1.48-1.668,2.829-2.839,3.806c-1.164,0.971-2.696,1.658-4.22,1.753
					c-3.303,0.208-5.947-1.859-7.254-4.762c-0.61-1.354-2.914-0.391-2.413,1.017c1.379,3.87,5.684,6.608,9.781,6.258
					c2.102-0.18,4.014-1.058,5.569-2.48c1.563-1.429,2.26-3.222,2.559-5.266C620.423,273.943,619.365,273.602,619.127,274.379
					L619.127,274.379z"/>
			</g>
			<g>
				<path style="fill:#49312C;" d="M603.056,275.962c-0.281,0.247-0.706,0.38-1.021,0.587c-0.318,0.209-0.627,0.427-0.958,0.616
					c-0.669,0.383-1.381,0.74-2.112,0.987c-1.433,0.485-2.962,0.573-4.428,0.18c-1.354-0.362-2.625-1.146-3.418-2.322
					c-0.419-0.622-0.706-1.287-0.878-2.017c-0.174-0.739-0.043-1.432-0.074-2.172c-0.062-1.475-1.959-1.626-2.464-0.333
					c-0.691,1.766,0.128,4.245,1.124,5.733c1.138,1.701,2.852,2.914,4.821,3.47c1.904,0.537,3.977,0.448,5.833-0.237
					c0.985-0.364,1.873-0.839,2.69-1.5c0.352-0.285,0.705-0.585,1.006-0.924c0.364-0.411,0.528-0.891,0.843-1.324
					C604.451,276.113,603.55,275.528,603.056,275.962L603.056,275.962z"/>
			</g>
			<g>
				<path style="fill:#49312C;" d="M603.548,270.359c-0.617,0.993-0.849,2.08-0.921,3.237c-0.034,0.543-0.028,1.089,0.018,1.631
					c0.052,0.606,0.107,1.236,0.369,1.791c0.341,0.724,1.468,0.343,1.461-0.396c-0.004-0.504-0.161-1.007-0.213-1.504
					c-0.053-0.505-0.071-1.015-0.055-1.523c0.033-0.997,0.182-1.994,0.266-2.987C604.517,270.094,603.79,269.968,603.548,270.359
					L603.548,270.359z"/>
			</g>
			<g>
				<path style="fill:#49312C;" d="M618.336,235.904c-0.004,0.848-0.201,1.68-0.185,2.54c0.016,0.846,0.047,1.688,0.136,2.53
					c0.164,1.549,0.364,3.103,0.682,4.629c0.323,1.551,0.71,3.088,1.159,4.607c0.432,1.465,0.819,3.353,1.797,4.547
					c0.514,0.627,1.613,0.107,1.584-0.656c-0.056-1.472-0.889-3.05-1.313-4.461c-0.44-1.462-0.822-2.942-1.146-4.435
					c-0.323-1.49-0.641-2.98-0.884-4.485c-0.125-0.776-0.268-1.549-0.394-2.325c-0.134-0.826-0.44-1.668-0.522-2.49
					C619.194,235.33,618.339,235.303,618.336,235.904L618.336,235.904z"/>
			</g>
			<g>
				<path style="fill:#49312C;" d="M633.052,194.462c9.742-16.216,12.285-36.4,8.686-54.823c-1.806-9.246-5.234-18.194-10.19-26.211
					c-2.612-4.225-5.823-8.588-5.571-13.805c0.221-4.569,3.623-7.544,8.076-7.788c9.334-0.511,16.571,7.841,20.03,15.627
					c4.059,9.135,5.266,19.567,5.951,29.449c1.298,18.729-1.487,37.934-7.505,55.688c-6.014,17.744-15.394,34.492-27.757,48.599
					c-1.524,1.74-3.094,3.438-4.702,5.1c-0.855,0.883,0.499,2.238,1.349,1.349c13.371-13.983,23.795-30.613,30.76-48.652
					c6.935-17.961,10.495-37.215,10.13-56.477c-0.092-4.843-0.371-9.673-0.951-14.484c-0.627-5.204-1.404-10.451-2.812-15.507
					c-2.595-9.324-8.419-18.652-17.874-22.156c-3.838-1.422-8.585-1.566-12.194,0.576c-4.106,2.437-5.329,7.279-4.538,11.75
					c0.915,5.172,4.383,9.427,6.941,13.864c2.448,4.245,4.466,8.728,6.037,13.369c6.249,18.46,5.626,39.33-1.999,57.296
					c-0.943,2.221-1.893,4.433-2.986,6.585C631.559,194.548,632.62,195.181,633.052,194.462L633.052,194.462z"/>
			</g>
			<path style="fill:#EAAC8E;" d="M572.76,202.548c-1.464,1.757-2.944,3.53-4.859,4.776c-1.907,1.238-4.341,1.882-6.507,1.154
				c-1.255-0.427-2.325-1.28-3.346-2.141c-1.715-1.455-3.404-3.019-4.516-4.985c-1.112-1.965-1.581-4.4-0.761-6.499l1.715-1.573
				c5.361-1.129,11.024-0.778,16.201,1.021c1.765,0.611,3.689,1.631,4.073,3.454C575.127,199.512,573.906,201.168,572.76,202.548z"
				/>
			<g>
				<path style="fill:#49312C;" d="M543.063,199.155c-0.736,0.152-1.422,0.074-2.159,0.345c-0.739,0.272-1.431,0.657-1.99,1.22
					c-1.088,1.097-1.481,2.638-1.512,4.144c-0.059,2.902,0.894,6.185,2.186,8.765c1.352,2.698,3.588,5.001,6.521,5.897
					c3.178,0.971,6.703,0.27,9.595-1.238c3.415-1.782,6.461-4.726,8.786-7.764c0.744-0.972-0.803-2.019-1.632-1.259
					c-2.712,2.487-4.94,5.379-8.276,7.105c-3.104,1.606-7.06,2.059-10.041-0.059c-2.553-1.815-3.794-5.082-4.469-8.024
					c-0.338-1.474-0.661-3.168-0.305-4.663c0.201-0.845,0.654-1.529,1.357-2.037c0.331-0.239,0.701-0.426,1.062-0.615
					c0.377-0.197,0.796-0.538,1.188-0.68C544.084,200.031,543.811,199,543.063,199.155L543.063,199.155z"/>
			</g>
			<g>
				<path style="fill:#49312C;" d="M585.435,204.179c0.65,0.409,1.394,1.148,1.92,1.721c0.644,0.702,0.944,1.53,0.931,2.481
					c-0.022,1.669-0.799,3.4-1.539,4.866c-1.362,2.699-3.309,5.505-6.279,6.554c-3.23,1.141-6.762-0.13-9.314-2.214
					c-2.912-2.378-4.475-5.671-6.603-8.672c-0.775-1.093-2.369-0.167-1.794,1.049c2.702,5.715,7.609,11.865,14.349,12.458
					c6.567,0.578,10.885-5.494,12.824-11.007c0.577-1.641,0.869-3.586,0.139-5.225c-0.356-0.8-0.913-1.446-1.613-1.964
					c-0.335-0.248-0.676-0.454-1.056-0.628c-0.445-0.204-0.933-0.241-1.371-0.434C585.349,202.863,584.779,203.766,585.435,204.179
					L585.435,204.179z"/>
			</g>
			<g>
				<path style="fill:#49312C;" d="M557.187,221.35c0.06,0.264,0.098,0.616,0.222,0.943c0.135,0.356,0.306,0.686,0.505,1.011
					c0.381,0.622,0.826,1.21,1.334,1.733c0.505,0.52,1.07,0.983,1.663,1.399c0.616,0.432,1.282,0.744,1.981,1.019
					c0.558,0.22,1.279-0.24,1.407-0.799c0.151-0.663-0.204-1.165-0.799-1.407c-0.264-0.107,0.228,0.105-0.031-0.013
					c-0.075-0.034-0.15-0.068-0.225-0.103c-0.136-0.064-0.271-0.132-0.405-0.203c-0.267-0.142-0.535-0.281-0.795-0.436
					c-0.27-0.162-0.533-0.336-0.787-0.522c-0.025-0.018-0.211-0.16-0.087-0.064c0.124,0.096-0.061-0.05-0.085-0.069
					c-0.128-0.104-0.254-0.211-0.377-0.322c-0.448-0.401-0.876-0.832-1.258-1.296c-0.052-0.063-0.103-0.127-0.153-0.191
					c0.121,0.154-0.044-0.062-0.054-0.075c-0.11-0.15-0.222-0.297-0.34-0.44c-0.051-0.062-0.102-0.123-0.151-0.186
					c0.117,0.149-0.244-0.297-0.145-0.19c-0.093-0.101-0.206-0.178-0.273-0.272C557.927,220.303,557.022,220.626,557.187,221.35
					L557.187,221.35z"/>
			</g>
			<path style="fill:#49312C;" d="M548.109,181.354c-0.028,9.801-12.992,9.611-12.732-0.187
				C535.406,171.367,548.37,171.557,548.109,181.354z"/>
			<path style="fill:#49312C;" d="M595.4,187.195c-0.028,9.8-12.992,9.611-12.731-0.187
				C582.697,177.207,595.66,177.397,595.4,187.195z"/>
			<g>
				<path style="fill:#49312C;" d="M533.41,168.952c0.935-0.049,1.741-0.706,2.516-1.178c0.799-0.487,1.592-0.958,2.445-1.348
					c0.678-0.31,1.541-0.622,2.357-0.866c0.433-0.13,0.871-0.243,1.313-0.34c0.459-0.101,0.968-0.123,1.406-0.286
					c0.663-0.246,1.131-0.825,1.02-1.563c-0.108-0.717-0.674-1.2-1.399-1.235c-0.532-0.026-1.12,0.145-1.639,0.267
					c-0.466,0.11-0.928,0.238-1.384,0.385c-1.001,0.321-1.975,0.732-2.908,1.215c-0.85,0.44-1.672,0.943-2.441,1.513
					c-0.776,0.575-1.891,1.423-2.05,2.436C532.573,168.425,532.848,168.982,533.41,168.952L533.41,168.952z"/>
			</g>
			<g>
				<path style="fill:#49312C;" d="M596.043,174.597c0.267-1.033-0.787-1.752-1.517-2.251c-0.699-0.478-1.414-0.891-2.189-1.232
					c-1.637-0.72-3.413-1.388-5.21-1.54c-0.73-0.062-1.36,0.61-1.45,1.281c-0.096,0.716,0.343,1.426,1.058,1.62
					c0.785,0.214,1.592,0.347,2.378,0.568c0.784,0.221,1.556,0.487,2.308,0.799c-0.143-0.059-0.017-0.007,0.053,0.024
					c0.088,0.039,0.175,0.079,0.263,0.118c0.244,0.107,0.49,0.208,0.738,0.306c0.044,0.018,0.088,0.036,0.132,0.054
					c-0.088-0.038-0.087-0.037,0.001,0.001c0.089,0.038,0.177,0.077,0.265,0.117c0.176,0.079,0.35,0.16,0.524,0.244
					c0.455,0.22,0.942,0.469,1.45,0.52C595.301,175.271,595.911,175.107,596.043,174.597L596.043,174.597z"/>
			</g>
			<g>
				<path style="fill:#49312C;" d="M519.57,232.888c-2.06,1.381-3.504,3.335-4.681,5.499c-0.576,1.059-1.048,2.181-1.44,3.32
					c-0.392,1.139-0.887,2.499-0.83,3.718c0.057,1.195,1.573,1.307,1.99,0.269c0.408-1.017,0.524-2.176,0.865-3.225
					c0.347-1.068,0.785-2.098,1.286-3.101c1.001-2.004,2.364-3.82,3.623-5.665C520.716,233.215,520.056,232.562,519.57,232.888
					L519.57,232.888z"/>
			</g>
			<g>
				<path style="fill:#49312C;" d="M518.207,241.417c-0.574,0.676-1.166,1.309-1.613,2.082c-0.462,0.799-0.796,1.69-1.045,2.576
					c-0.5,1.78-0.587,3.721-0.186,5.53c0.13,0.589,0.814,0.935,1.375,0.78c0.644-0.177,0.865-0.774,0.781-1.374
					c-0.208-1.478-0.208-2.983,0.077-4.452c0.147-0.756,0.379-1.482,0.634-2.207c0.261-0.744,0.535-1.511,0.963-2.175
					C519.572,241.588,518.672,240.869,518.207,241.417L518.207,241.417z"/>
			</g>
		</g>
	</g>
	<g>
		<g>
			<path style="fill:#EAAC8E;" d="M692.195,223.616c-3.163-1.825-6.57-2.834-10.089-1.583c-3.68,1.308-6.41,4.516-10.029,5.986
				c-2.767,1.124-5.929,1.176-8.54,2.626c-4.019,2.233-5.72,7.576-4.392,11.977c1.328,4.402,5.216,7.743,9.587,9.167
				c2.924,0.952,6.115,1.166,8.812,2.643c2.863,1.568,4.854,4.393,7.655,6.069c3.01,1.802,6.875,2.096,10.123,0.771
				c3.248-1.326,5.804-4.24,6.693-7.634c0.935-3.565,0.087-7.355-1.146-10.828s-2.858-6.836-3.54-10.458
				c-0.34-1.805-0.448-3.677-1.14-5.378C695.498,225.273,693.807,224.336,692.195,223.616z"/>
			<path style="fill:#EAAC8E;" d="M666.882,202.376c-1.822,0.852-3.245,2.42-4.192,4.194c-0.947,1.774-1.451,3.752-1.781,5.736
				c-0.47,2.826-0.586,5.814,0.484,8.471c1.07,2.657,3.56,4.896,6.424,4.954c2.883,0.058,5.471-2.105,6.646-4.738
				c1.175-2.633,1.171-5.641,0.825-8.503c-0.267-2.207-0.743-4.439-1.888-6.345C672.255,204.239,670.906,201.968,666.882,202.376"/>
			<path style="fill:#EAAC8E;" d="M698.001,194.961c-2.647-2.767-6.832-2.288-9.426-0.813c-2.594,1.475-4.465,3.965-5.881,6.591
				c-1.074,1.992-1.935,4.118-2.313,6.349c-0.378,2.231-0.255,4.575,0.576,6.679c0.549,1.391,1.452,2.704,2.771,3.409
				c2.1,1.122,4.718,0.459,6.831-0.638c4.133-2.146,7.399-5.909,8.944-10.302c0.662-1.882,1.018-3.894,0.826-5.879
				C700.136,198.371,699.368,196.413,698.001,194.961z"/>
			<path style="fill:#EAAC8E;" d="M724.724,231.499c0.4,1.971-0.011,4.048-0.873,5.865s-2.15,3.4-3.547,4.847
				c-1.99,2.06-4.322,3.933-7.094,4.656c-2.772,0.723-6.053,0.056-7.805-2.21c-1.764-2.281-1.567-5.648-0.152-8.16
				c1.416-2.512,3.834-4.3,6.34-5.727c1.932-1.1,4.009-2.046,6.222-2.262C720.028,228.292,722.655,228.023,724.724,231.499"/>
			<path style="fill:#EAAC8E;" d="M712.149,202.084c3.799,0.479,5.906,4.126,6.266,7.088c0.36,2.962-0.526,5.948-1.792,8.65
				c-0.96,2.048-2.156,4.007-3.723,5.639c-1.567,1.632-3.523,2.93-5.708,3.515c-1.444,0.387-3.037,0.444-4.388-0.196
				c-2.152-1.019-3.179-3.516-3.555-5.867c-0.737-4.598,0.34-9.463,2.949-13.32c1.118-1.652,2.522-3.137,4.231-4.165
				C708.138,202.4,710.168,201.85,712.149,202.084z"/>
		</g>
		<g>
			<path style="fill:#EAAC8E;" d="M744.244,173.225c-2.506,0.899-4.673,2.319-5.636,4.866c-1.007,2.663-0.509,5.695-1.398,8.4
				c-0.68,2.069-2.141,3.853-2.565,5.989c-0.653,3.288,1.518,6.753,4.592,8.089c3.074,1.336,6.766,0.749,9.618-1.012
				c1.908-1.178,3.531-2.852,5.624-3.656c2.221-0.853,4.732-0.63,6.984-1.397c2.421-0.825,4.407-2.836,5.201-5.268
				c0.794-2.432,0.377-5.227-1.091-7.322c-1.542-2.2-4.05-3.516-6.563-4.467c-2.513-0.951-5.15-1.633-7.486-2.96
				c-1.164-0.661-2.256-1.484-3.529-1.901S745.404,172.668,744.244,173.225z"/>
			<path style="fill:#EAAC8E;" d="M720.497,177.294c-0.385,1.415-0.184,2.946,0.357,4.309c0.541,1.363,1.403,2.576,2.351,3.695
				c1.35,1.593,2.958,3.066,4.94,3.724c1.983,0.657,4.401,0.328,5.784-1.238c1.391-1.576,1.408-4.035,0.497-5.93
				c-0.911-1.895-2.585-3.311-4.341-4.467c-1.354-0.892-2.82-1.679-4.419-1.941C724.066,175.183,722.167,174.863,720.497,177.294"/>
			<path style="fill:#EAAC8E;" d="M731.041,156.488c-2.787,0.168-4.493,2.722-4.895,4.86s0.1,4.353,0.894,6.379
				c0.602,1.536,1.379,3.018,2.441,4.279c1.063,1.262,2.424,2.299,3.987,2.828c1.033,0.35,2.189,0.467,3.202,0.066
				c1.614-0.639,2.479-2.408,2.865-4.1c0.754-3.311,0.201-6.901-1.514-9.831c-0.735-1.255-1.686-2.402-2.881-3.231
				C733.945,156.908,732.494,156.412,731.041,156.488z"/>
			<path style="fill:#EAAC8E;" d="M763.963,158.847c1.285,0.706,2.246,1.914,2.851,3.25c0.605,1.336,0.878,2.799,1.024,4.258
				c0.208,2.078,0.151,4.258-0.754,6.14c-0.905,1.883-2.822,3.394-4.909,3.3c-2.1-0.094-3.881-1.791-4.611-3.762
				c-0.73-1.972-0.585-4.16-0.197-6.226c0.299-1.593,0.751-3.195,1.675-4.527C759.965,159.948,761.054,158.36,763.963,158.847"/>
			<path style="fill:#EAAC8E;" d="M741.673,151.976c2.057-1.888,5.079-1.341,6.896-0.144c1.817,1.196,3.061,3.096,3.967,5.075
				c0.687,1.5,1.212,3.088,1.382,4.729c0.169,1.641-0.031,3.341-0.736,4.832c-0.466,0.986-1.185,1.899-2.177,2.349
				c-1.581,0.717-3.454,0.111-4.94-0.788c-2.905-1.758-5.103-4.65-6.019-7.92c-0.392-1.4-0.556-2.881-0.322-4.317
				C739.958,154.356,740.609,152.968,741.673,151.976z"/>
		</g>
		<g>
			<path style="fill:#EAAC8E;" d="M691.497,134.385c-2.385,0.318-4.57,1.162-5.904,3.23c-1.395,2.162-1.531,4.935-2.83,7.157
				c-0.993,1.699-2.623,2.998-3.403,4.805c-1.201,2.781,0.059,6.255,2.522,8.02c2.463,1.764,5.836,1.946,8.691,0.932
				c1.909-0.678,3.661-1.85,5.663-2.163c2.125-0.332,4.3,0.342,6.437,0.091c2.296-0.269,4.432-1.669,5.595-3.667
				c1.163-1.998,1.326-4.547,0.426-6.677c-0.945-2.237-2.911-3.875-4.951-5.193c-2.04-1.318-4.24-2.42-6.053-4.037
				c-0.903-0.806-1.712-1.74-2.757-2.35C693.887,133.923,692.628,134.113,691.497,134.385z"/>
			<path style="fill:#EAAC8E;" d="M669.741,133.472c-0.609,1.177-0.722,2.568-0.503,3.875s0.751,2.543,1.376,3.711
				c0.891,1.664,2.031,3.271,3.659,4.228c1.627,0.957,3.827,1.125,5.346,0.004c1.529-1.128,2.01-3.298,1.565-5.145
				c-0.445-1.847-1.656-3.416-2.988-4.771c-1.027-1.045-2.173-2.019-3.537-2.554C673.295,132.285,671.678,131.641,669.741,133.472"
				/>
			<path style="fill:#EAAC8E;" d="M683.008,117.089c-2.495-0.38-4.487,1.552-5.248,3.365c-0.761,1.813-0.738,3.865-0.421,5.806
				c0.24,1.471,0.646,2.928,1.345,4.245c0.7,1.317,1.706,2.491,2.986,3.256c0.846,0.505,1.845,0.828,2.817,0.666
				c1.548-0.258,2.648-1.657,3.31-3.079c1.295-2.782,1.488-6.06,0.528-8.975c-0.411-1.248-1.034-2.442-1.933-3.402
				C685.493,118.012,684.305,117.298,683.008,117.089z"/>
			<path style="fill:#EAAC8E;" d="M711.65,125.423c1.001,0.868,1.621,2.118,1.902,3.413c0.281,1.295,0.244,2.64,0.096,3.957
				c-0.211,1.876-0.675,3.791-1.832,5.283c-1.157,1.492-3.138,2.463-4.964,1.984c-1.838-0.482-3.089-2.319-3.36-4.2
				c-0.271-1.881,0.273-3.786,1.008-5.539c0.567-1.351,1.27-2.68,2.339-3.682C707.909,125.637,709.172,124.44,711.65,125.423"/>
			<path style="fill:#EAAC8E;" d="M693.258,115.121c2.176-1.277,4.742-0.22,6.121,1.182c1.379,1.402,2.117,3.317,2.542,5.237
				c0.322,1.456,0.485,2.959,0.323,4.441c-0.162,1.482-0.662,2.946-1.568,4.13c-0.599,0.783-1.407,1.453-2.37,1.662
				c-1.533,0.333-3.073-0.558-4.215-1.634c-2.233-2.105-3.627-5.077-3.815-8.14c-0.081-1.312,0.056-2.652,0.535-3.876
				C691.291,116.898,692.13,115.795,693.258,115.121z"/>
		</g>
	</g>
	<g>
		<g>
			<path style="fill:#EAAC8E;" d="M116.529,225.595c3.163-1.825,6.57-2.834,10.089-1.583c3.68,1.308,6.41,4.516,10.029,5.986
				c2.767,1.124,5.929,1.176,8.54,2.626c4.019,2.233,5.72,7.576,4.393,11.977c-1.328,4.402-5.216,7.743-9.587,9.167
				c-2.924,0.952-6.115,1.166-8.812,2.643c-2.863,1.568-4.854,4.393-7.655,6.069c-3.01,1.802-6.875,2.096-10.123,0.771
				c-3.248-1.326-5.804-4.24-6.693-7.633c-0.935-3.565-0.087-7.355,1.146-10.828c1.233-3.473,2.858-6.836,3.54-10.458
				c0.34-1.805,0.448-3.677,1.14-5.378C113.226,227.252,114.918,226.315,116.529,225.595z"/>
			<path style="fill:#EAAC8E;" d="M141.843,204.355c1.822,0.852,3.245,2.42,4.192,4.194c0.947,1.774,1.451,3.752,1.781,5.736
				c0.47,2.826,0.586,5.814-0.485,8.471c-1.07,2.657-3.56,4.896-6.424,4.954c-2.883,0.058-5.471-2.105-6.646-4.738
				c-1.175-2.633-1.171-5.641-0.825-8.503c0.267-2.207,0.743-4.439,1.888-6.345C136.47,206.218,137.818,203.947,141.843,204.355"/>
			<path style="fill:#EAAC8E;" d="M110.724,196.939c2.647-2.767,6.832-2.288,9.426-0.813c2.594,1.475,4.465,3.965,5.882,6.591
				c1.074,1.991,1.935,4.118,2.313,6.349c0.378,2.231,0.255,4.575-0.576,6.679c-0.55,1.391-1.452,2.704-2.771,3.409
				c-2.1,1.122-4.718,0.459-6.831-0.638c-4.133-2.146-7.399-5.909-8.944-10.302c-0.662-1.882-1.018-3.894-0.826-5.879
				C108.589,200.35,109.356,198.391,110.724,196.939z"/>
			<path style="fill:#EAAC8E;" d="M84,233.478c-0.4,1.971,0.011,4.048,0.873,5.865c0.861,1.817,2.15,3.4,3.547,4.847
				c1.99,2.06,4.322,3.933,7.094,4.656c2.772,0.723,6.053,0.056,7.805-2.21c1.764-2.281,1.567-5.648,0.152-8.16
				c-1.416-2.512-3.834-4.3-6.339-5.727c-1.932-1.1-4.009-2.046-6.222-2.262C88.697,230.271,86.069,230.002,84,233.478"/>
			<path style="fill:#EAAC8E;" d="M96.575,204.063c-3.799,0.479-5.907,4.126-6.266,7.088c-0.36,2.962,0.526,5.948,1.792,8.65
				c0.96,2.049,2.156,4.007,3.723,5.639c1.567,1.632,3.523,2.93,5.709,3.515c1.444,0.387,3.037,0.444,4.388-0.196
				c2.152-1.019,3.179-3.516,3.555-5.867c0.737-4.598-0.34-9.463-2.949-13.32c-1.118-1.652-2.522-3.137-4.231-4.165
				C100.586,204.379,98.556,203.829,96.575,204.063z"/>
		</g>
		<g>
			<path style="fill:#EAAC8E;" d="M64.48,175.204c2.506,0.899,4.673,2.319,5.636,4.866c1.007,2.663,0.51,5.695,1.398,8.4
				c0.68,2.069,2.141,3.852,2.565,5.988c0.653,3.288-1.518,6.753-4.592,8.089c-3.074,1.336-6.766,0.749-9.618-1.012
				c-1.908-1.178-3.531-2.852-5.624-3.656c-2.222-0.853-4.732-0.63-6.984-1.397c-2.421-0.825-4.407-2.836-5.201-5.268
				c-0.794-2.432-0.377-5.227,1.091-7.322c1.542-2.2,4.05-3.516,6.563-4.467c2.513-0.951,5.15-1.633,7.486-2.96
				c1.164-0.662,2.256-1.484,3.529-1.901C62.001,174.148,63.32,174.647,64.48,175.204z"/>
			<path style="fill:#EAAC8E;" d="M88.228,179.272c0.385,1.415,0.184,2.946-0.357,4.309c-0.54,1.363-1.403,2.576-2.351,3.695
				c-1.35,1.593-2.958,3.066-4.94,3.724s-4.401,0.328-5.784-1.238c-1.392-1.576-1.408-4.035-0.497-5.93
				c0.911-1.895,2.585-3.31,4.341-4.467c1.354-0.892,2.82-1.679,4.42-1.941C84.658,177.162,86.557,176.841,88.228,179.272"/>
			<path style="fill:#EAAC8E;" d="M77.683,158.467c2.787,0.168,4.493,2.722,4.895,4.86c0.402,2.138-0.1,4.353-0.894,6.379
				c-0.602,1.536-1.379,3.018-2.441,4.279c-1.063,1.262-2.424,2.299-3.987,2.828c-1.033,0.35-2.189,0.467-3.202,0.066
				c-1.614-0.639-2.479-2.408-2.865-4.1c-0.754-3.311-0.201-6.901,1.514-9.831c0.735-1.255,1.686-2.402,2.881-3.231
				S76.231,158.391,77.683,158.467z"/>
			<path style="fill:#EAAC8E;" d="M44.761,160.826c-1.285,0.706-2.246,1.914-2.851,3.25c-0.605,1.336-0.878,2.799-1.024,4.258
				c-0.208,2.078-0.15,4.258,0.754,6.14c0.905,1.883,2.822,3.393,4.909,3.3c2.1-0.094,3.881-1.791,4.611-3.762
				c0.73-1.972,0.585-4.16,0.197-6.226c-0.299-1.593-0.751-3.195-1.675-4.527C48.759,161.927,47.67,160.338,44.761,160.826"/>
			<path style="fill:#EAAC8E;" d="M67.051,153.955c-2.057-1.888-5.079-1.341-6.896-0.144c-1.817,1.196-3.061,3.096-3.967,5.075
				c-0.687,1.5-1.212,3.088-1.382,4.729c-0.169,1.641,0.031,3.341,0.736,4.832c0.466,0.986,1.185,1.899,2.178,2.349
				c1.581,0.717,3.454,0.111,4.94-0.788c2.905-1.758,5.103-4.65,6.019-7.92c0.392-1.4,0.556-2.881,0.322-4.317
				C68.766,156.335,68.115,154.946,67.051,153.955z"/>
		</g>
		<g>
			<path style="fill:#EAAC8E;" d="M117.228,136.363c2.385,0.318,4.57,1.162,5.904,3.23c1.395,2.162,1.531,4.935,2.83,7.157
				c0.993,1.699,2.623,2.998,3.403,4.805c1.201,2.781-0.059,6.255-2.522,8.02c-2.463,1.764-5.836,1.946-8.691,0.932
				c-1.91-0.678-3.661-1.85-5.663-2.163c-2.125-0.332-4.3,0.342-6.437,0.091c-2.296-0.269-4.432-1.669-5.595-3.667
				c-1.163-1.998-1.326-4.547-0.426-6.676c0.945-2.237,2.911-3.875,4.951-5.193c2.04-1.318,4.24-2.421,6.053-4.037
				c0.903-0.806,1.712-1.74,2.757-2.35C114.837,135.901,116.097,136.091,117.228,136.363z"/>
			<path style="fill:#EAAC8E;" d="M138.983,135.45c0.609,1.177,0.722,2.568,0.503,3.875c-0.219,1.307-0.751,2.543-1.376,3.711
				c-0.891,1.664-2.032,3.271-3.659,4.228c-1.627,0.957-3.827,1.125-5.346,0.004c-1.529-1.128-2.01-3.298-1.565-5.145
				c0.445-1.847,1.656-3.416,2.988-4.771c1.027-1.045,2.173-2.019,3.537-2.554S137.046,133.619,138.983,135.45"/>
			<path style="fill:#EAAC8E;" d="M125.717,119.068c2.495-0.381,4.487,1.552,5.248,3.365c0.761,1.813,0.737,3.865,0.421,5.806
				c-0.24,1.472-0.646,2.928-1.345,4.245c-0.699,1.317-1.706,2.491-2.986,3.256c-0.846,0.505-1.845,0.828-2.817,0.666
				c-1.548-0.258-2.648-1.657-3.31-3.079c-1.295-2.782-1.488-6.06-0.528-8.975c0.411-1.249,1.034-2.442,1.933-3.402
				C123.231,119.99,124.419,119.276,125.717,119.068z"/>
			<path style="fill:#EAAC8E;" d="M97.075,127.402c-1.001,0.868-1.621,2.118-1.902,3.413c-0.281,1.295-0.244,2.64-0.096,3.957
				c0.211,1.876,0.675,3.791,1.832,5.283c1.157,1.492,3.138,2.463,4.964,1.984c1.838-0.482,3.089-2.319,3.36-4.2
				c0.271-1.881-0.273-3.786-1.008-5.539c-0.567-1.351-1.27-2.68-2.339-3.682C100.816,127.616,99.552,126.419,97.075,127.402"/>
			<path style="fill:#EAAC8E;" d="M115.466,117.099c-2.176-1.277-4.743-0.22-6.121,1.182c-1.379,1.402-2.117,3.317-2.542,5.237
				c-0.322,1.456-0.485,2.959-0.323,4.441c0.162,1.482,0.662,2.946,1.567,4.13c0.599,0.783,1.407,1.453,2.37,1.662
				c1.533,0.333,3.073-0.558,4.215-1.634c2.233-2.105,3.627-5.077,3.815-8.14c0.081-1.312-0.056-2.652-0.535-3.876
				C117.433,118.877,116.594,117.773,115.466,117.099z"/>
		</g>
	</g>
	<g>
		<g>
			<g>
				<path style="fill:#E7B387;" d="M604.489,12.788c-0.031,0-0.062-0.001-0.093-0.005c-0.528-0.051-0.915-0.52-0.865-1.048
					c0.19-1.974,0.544-3.934,1.052-5.825c0.137-0.512,0.664-0.817,1.177-0.679c0.512,0.138,0.816,0.664,0.679,1.177
					c-0.48,1.79-0.815,3.644-0.995,5.512C605.396,12.417,604.978,12.788,604.489,12.788z"/>
			</g>
			<g>
				<path style="fill:#E7B387;" d="M781.159,255.795c-0.199,0-0.4-0.062-0.572-0.19c-0.426-0.316-0.515-0.918-0.198-1.344
					c2.245-3.024,4.367-6.214,6.307-9.481c0.271-0.457,0.861-0.606,1.317-0.336c0.456,0.271,0.606,0.861,0.336,1.318
					c-1.974,3.324-4.132,6.568-6.416,9.645C781.742,255.661,781.452,255.795,781.159,255.795z M792.881,236.072
					c-0.136,0-0.273-0.029-0.405-0.09c-0.481-0.223-0.69-0.795-0.466-1.276c1.594-3.424,3.037-6.976,4.291-10.554
					c0.176-0.5,0.724-0.769,1.225-0.588c0.501,0.175,0.765,0.723,0.589,1.225c-1.274,3.637-2.742,7.247-4.362,10.729
					C793.59,235.867,793.244,236.072,792.881,236.072z M800.474,214.419c-0.076,0-0.152-0.008-0.229-0.027
					c-0.516-0.126-0.832-0.646-0.706-1.162c0.899-3.686,1.623-7.45,2.153-11.186c0.075-0.525,0.56-0.887,1.087-0.816
					c0.525,0.075,0.891,0.561,0.816,1.087c-0.539,3.798-1.275,7.624-2.189,11.372C801.299,214.125,800.906,214.419,800.474,214.419z
					 M803.69,191.701c-0.013,0-0.026,0-0.039-0.001c-0.53-0.022-0.943-0.469-0.921-0.999c0.062-1.531,0.094-3.076,0.094-4.592
					c0-2.263-0.07-4.55-0.209-6.795c-0.033-0.529,0.37-0.985,0.9-1.018c0.532-0.019,0.986,0.371,1.018,0.9
					c0.141,2.285,0.213,4.612,0.213,6.914c0,1.542-0.032,3.113-0.096,4.671C804.629,191.296,804.203,191.701,803.69,191.701z
					 M802.262,168.804c-0.461,0-0.867-0.331-0.946-0.8c-0.4-2.362-0.885-4.735-1.444-7.053c-0.325-1.346-0.683-2.707-1.064-4.049
					c-0.145-0.51,0.151-1.042,0.662-1.187c0.509-0.148,1.042,0.151,1.187,0.662c0.388,1.365,0.753,2.753,1.083,4.124
					c0.569,2.36,1.064,4.777,1.471,7.182c0.089,0.524-0.264,1.019-0.787,1.108C802.369,168.799,802.315,168.804,802.262,168.804z
					 M796.003,146.741c-0.38,0-0.74-0.227-0.892-0.601c-1.41-3.489-3.027-6.962-4.808-10.321c-0.249-0.469-0.07-1.051,0.399-1.3
					c0.469-0.25,1.05-0.068,1.299,0.399c1.812,3.419,3.458,6.951,4.892,10.501c0.199,0.493-0.039,1.053-0.531,1.251
					C796.245,146.718,796.123,146.741,796.003,146.741z M785.268,126.465c-0.311,0-0.615-0.15-0.8-0.428
					c-2.095-3.142-4.376-6.222-6.78-9.156c-0.336-0.41-0.276-1.015,0.134-1.352c0.411-0.335,1.016-0.276,1.352,0.134
					c2.444,2.982,4.764,6.114,6.893,9.308c0.294,0.441,0.175,1.038-0.267,1.333C785.636,126.413,785.451,126.465,785.268,126.465z
					 M770.722,108.716c-0.246,0-0.492-0.094-0.68-0.282c-2.68-2.684-5.517-5.26-8.434-7.658c-0.41-0.337-0.469-0.942-0.132-1.352
					c0.337-0.412,0.943-0.469,1.353-0.132c2.965,2.437,5.849,5.057,8.573,7.785c0.375,0.375,0.374,0.983-0.001,1.359
					C771.213,108.622,770.968,108.716,770.722,108.716z M752.994,94.148c-0.183,0-0.369-0.053-0.533-0.161
					c-3.158-2.109-6.449-4.071-9.781-5.832c-0.469-0.248-0.649-0.83-0.401-1.299c0.248-0.469,0.831-0.649,1.299-0.4
					c3.39,1.791,6.737,3.788,9.95,5.932c0.442,0.295,0.56,0.891,0.266,1.334C753.609,93.998,753.304,94.148,752.994,94.148z
					 M732.708,83.439c-0.119,0-0.239-0.021-0.357-0.068c-2.729-1.092-5.52-2.076-8.297-2.925c-0.826-0.253-1.654-0.495-2.484-0.729
					c-0.511-0.144-0.808-0.675-0.664-1.185c0.144-0.512,0.674-0.807,1.185-0.665c0.844,0.237,1.686,0.485,2.526,0.742
					c2.828,0.864,5.67,1.867,8.448,2.978c0.493,0.197,0.732,0.756,0.535,1.249C733.451,83.212,733.09,83.439,732.708,83.439z
					 M710.652,77.113c-0.061,0-0.124-0.006-0.187-0.018c-3.365-0.663-7.056-1.288-11.283-1.912c-0.525-0.077-0.888-0.566-0.81-1.09
					c0.077-0.526,0.567-0.893,1.091-0.811c4.257,0.628,7.978,1.258,11.374,1.927c0.521,0.103,0.86,0.608,0.757,1.129
					C711.504,76.796,711.102,77.113,710.652,77.113z M687.938,73.647c-0.042,0-0.083-0.003-0.125-0.008l-0.726-0.094
					c-3.501-0.456-7.122-0.927-10.676-1.439c-0.526-0.076-0.89-0.563-0.814-1.089c0.076-0.525,0.57-0.881,1.088-0.815
					c3.54,0.51,7.155,0.981,10.65,1.436l0.725,0.095c0.526,0.069,0.898,0.55,0.829,1.076
					C688.826,73.294,688.413,73.647,687.938,73.647z M665.211,70.243c-0.06,0-0.122-0.006-0.183-0.017
					c-4.07-0.785-7.756-1.629-11.27-2.584c-0.512-0.139-0.815-0.666-0.675-1.179c0.138-0.511,0.665-0.818,1.179-0.676
					c3.467,0.941,7.107,1.776,11.129,2.551c0.521,0.1,0.862,0.604,0.762,1.125C666.065,69.924,665.663,70.243,665.211,70.243z
					 M643.09,64.117c-0.116,0-0.233-0.021-0.348-0.065c-3.746-1.455-7.286-3.108-10.522-4.915c-0.464-0.259-0.63-0.844-0.371-1.307
					c0.258-0.465,0.843-0.63,1.307-0.371c3.159,1.763,6.618,3.379,10.281,4.8c0.495,0.192,0.74,0.749,0.548,1.244
					C643.839,63.884,643.475,64.117,643.09,64.117z M623.166,52.854c-0.213,0-0.427-0.07-0.606-0.215
					c-3.005-2.442-5.772-5.231-8.222-8.289c-0.332-0.414-0.265-1.018,0.149-1.35c0.414-0.331,1.019-0.267,1.351,0.149
					c2.365,2.951,5.035,5.643,7.934,7.999c0.412,0.335,0.475,0.94,0.14,1.352C623.723,52.733,623.445,52.854,623.166,52.854z
					 M608.924,35.04c-0.355,0-0.696-0.197-0.863-0.538c-1.774-3.612-3.067-7.331-3.841-11.052c-0.108-0.52,0.225-1.028,0.745-1.137
					c0.517-0.104,1.028,0.225,1.137,0.745c0.741,3.564,1.981,7.13,3.684,10.598c0.234,0.476,0.038,1.052-0.439,1.286
					C609.21,35.008,609.066,35.04,608.924,35.04z"/>
			</g>
			<g>
				<path style="fill:#E7B387;" d="M769.759,268.818c-0.251,0-0.502-0.098-0.69-0.292c-0.37-0.381-0.36-0.99,0.021-1.359
					c1.354-1.312,2.698-2.69,3.994-4.093c0.359-0.389,0.969-0.414,1.358-0.053c0.39,0.36,0.414,0.968,0.054,1.358
					c-1.32,1.429-2.689,2.831-4.067,4.168C770.241,268.728,770,268.818,769.759,268.818z"/>
			</g>
		</g>
		<g>
			<g>
				<path style="fill:#E7B387;" d="M14.456,129.404c-0.031,0-0.061-0.001-0.092-0.005c-3.989-0.379-7.913-1.185-11.66-2.394
					c-0.505-0.163-0.782-0.705-0.619-1.21c0.163-0.505,0.704-0.78,1.21-0.62c3.615,1.168,7.401,1.945,11.252,2.311
					c0.528,0.05,0.916,0.519,0.866,1.047C15.364,129.031,14.946,129.404,14.456,129.404z M26.15,129.276
					c-0.48,0-0.895-0.359-0.953-0.848c-0.062-0.527,0.315-1.005,0.842-1.067c3.847-0.452,7.613-1.318,11.193-2.571
					c0.501-0.18,1.049,0.088,1.225,0.588c0.175,0.501-0.088,1.049-0.589,1.225c-3.712,1.301-7.616,2.198-11.604,2.667
					C26.226,129.274,26.188,129.276,26.15,129.276z M48.055,121.526c-0.315,0-0.623-0.155-0.807-0.438
					c-0.289-0.446-0.162-1.041,0.283-1.329c0.853-0.553,1.692-1.137,2.494-1.738c2.17-1.622,4.256-3.441,6.379-5.565
					c0.375-0.375,0.984-0.375,1.359,0c0.375,0.375,0.375,0.983,0,1.359c-2.188,2.189-4.343,4.069-6.587,5.745
					c-0.836,0.626-1.711,1.235-2.6,1.811C48.415,121.476,48.234,121.526,48.055,121.526z M64.788,105.278
					c-0.208,0-0.417-0.067-0.593-0.206c-0.418-0.327-0.49-0.932-0.162-1.349c2.108-2.683,4.177-5.501,6.178-8.227l0.829-1.129
					c0.314-0.425,0.915-0.518,1.343-0.205c0.427,0.314,0.519,0.916,0.205,1.344l-0.828,1.127c-2.01,2.738-4.089,5.569-6.216,8.277
					C65.354,105.152,65.073,105.278,64.788,105.278z M78.933,86.59c-0.214,0-0.43-0.071-0.608-0.218
					c-0.411-0.336-0.471-0.941-0.135-1.352c2.795-3.413,5.43-6.251,8.058-8.676c0.391-0.359,0.999-0.335,1.358,0.055
					c0.36,0.389,0.336,0.998-0.054,1.358c-2.562,2.363-5.137,5.137-7.874,8.481C79.487,86.47,79.211,86.59,78.933,86.59z
					 M96.245,70.976c-0.324,0-0.641-0.164-0.822-0.462c-0.276-0.453-0.132-1.045,0.322-1.32c3.21-1.952,6.784-3.728,10.622-5.276
					c0.494-0.195,1.052,0.04,1.251,0.532c0.198,0.492-0.04,1.052-0.532,1.251c-3.741,1.509-7.221,3.237-10.342,5.135
					C96.588,70.931,96.415,70.976,96.245,70.976z M117.834,62.062c-0.422,0-0.808-0.28-0.926-0.706
					c-0.141-0.513,0.16-1.041,0.672-1.182c3.465-0.954,7.219-1.831,11.477-2.682c0.52-0.109,1.027,0.233,1.13,0.754
					c0.104,0.521-0.234,1.027-0.754,1.131c-4.212,0.842-7.923,1.709-11.344,2.65C118.005,62.051,117.919,62.062,117.834,62.062z
					 M140.778,57.32c-0.461,0-0.868-0.332-0.947-0.801c-0.088-0.524,0.265-1.019,0.788-1.107l1.363-0.229
					c3.337-0.56,6.787-1.14,10.17-1.765c0.522-0.106,1.023,0.249,1.12,0.771s-0.249,1.023-0.77,1.12
					c-3.398,0.628-6.856,1.209-10.201,1.771l-1.362,0.229C140.885,57.315,140.831,57.32,140.778,57.32z M163.792,52.902
					c-0.432,0-0.824-0.293-0.932-0.731c-0.127-0.516,0.189-1.036,0.704-1.163c4.086-1.005,7.727-2.088,11.132-3.311
					c0.497-0.18,1.05,0.08,1.229,0.58c0.18,0.499-0.08,1.05-0.579,1.229c-3.468,1.245-7.172,2.347-11.323,3.367
					C163.945,52.894,163.868,52.902,163.792,52.902z M185.728,44.833c-0.342,0-0.673-0.183-0.847-0.505
					c-0.251-0.467-0.077-1.05,0.39-1.302c0.411-0.222,0.82-0.448,1.226-0.678c2.911-1.648,5.698-3.595,8.282-5.788
					c0.405-0.343,1.011-0.292,1.354,0.111c0.344,0.405,0.294,1.012-0.111,1.355c-2.676,2.271-5.562,4.288-8.579,5.996
					c-0.419,0.236-0.838,0.468-1.26,0.695C186.038,44.796,185.882,44.833,185.728,44.833z M203.437,29.757
					c-0.2,0-0.403-0.063-0.576-0.192c-0.425-0.319-0.51-0.921-0.192-1.346c2.385-3.178,4.282-6.522,5.639-9.943
					c0.196-0.493,0.752-0.734,1.248-0.539c0.494,0.196,0.735,0.755,0.539,1.248c-1.42,3.578-3.401,7.073-5.888,10.388
					C204.018,29.625,203.729,29.757,203.437,29.757z"/>
			</g>
			<g>
				<path style="fill:#E7B387;" d="M211.705,8.146c-0.013,0-0.027,0-0.04-0.001c-0.53-0.022-0.942-0.47-0.92-1
					c0.078-1.867-0.016-3.743-0.278-5.575c-0.076-0.525,0.29-1.013,0.815-1.088c0.521-0.077,1.013,0.29,1.087,0.816
					c0.279,1.949,0.379,3.944,0.296,5.928C212.643,7.741,212.218,8.146,211.705,8.146z"/>
			</g>
		</g>
	</g>
</g>
<g id="TEXTS">
	<text transform="matrix(1 0 0 1 247.2031 48.7378)" style="fill:#49312C; font-family:'Acme-Regular'; font-size:32.6736px;">THE BEST FOR YOUR PET</text>
</g>
</svg>
